# Blender v2.79 (sub 0) OBJ File: 'Column_Slim.blend'
# www.blender.org
mtllib Column_Slim.mtl
o Column_Slim_Plane.044
v 0.165423 0.000000 0.257110
v 0.195877 4.459660 0.306066
v 0.165423 0.000000 -0.257110
v 0.195877 4.459660 -0.257110
v -0.165423 0.000000 0.257110
v -0.195878 4.459660 0.306066
v -0.165423 0.000000 -0.257110
v -0.195878 4.459660 -0.257110
v 0.195877 3.384821 -0.090030
v 0.195877 3.384821 -0.257110
v -0.195878 3.390055 -0.090030
v -0.195878 3.390055 -0.257110
v 0.195877 3.657609 0.306066
v 0.195877 3.657609 -0.257110
v -0.195878 3.657609 0.306066
v -0.195878 3.657609 -0.257110
v 0.195877 0.797427 0.195264
v 0.195877 0.797427 -0.257110
v -0.195878 0.797427 0.195264
v -0.195878 0.797427 -0.257110
v 0.195877 1.019752 -0.090030
v 0.195877 1.019752 -0.257110
v -0.195878 1.019752 -0.090030
v -0.195878 1.019752 -0.257110
v 0.195877 1.290745 -0.090030
v 0.195877 3.119881 -0.090030
v 0.195877 1.290745 -0.257110
v 0.195877 3.119881 -0.257110
v -0.195878 1.290745 -0.090030
v -0.195878 3.125114 -0.090030
v -0.195878 1.290745 -0.257110
v -0.195878 3.125114 -0.257110
v 0.149428 1.290745 -0.093442
v 0.149428 3.107777 -0.093442
v 0.149428 1.290745 -0.253698
v 0.149428 3.107777 -0.253698
v -0.149429 1.290745 -0.093442
v -0.149429 3.113011 -0.093442
v -0.149429 1.290745 -0.253698
v -0.149429 3.113011 -0.253698
v 0.061395 3.518238 0.062008
v -0.061396 3.523472 0.062008
v 0.061395 2.272779 0.062008
v -0.061396 2.272779 0.062008
v -0.061396 3.523472 -0.136368
v -0.061396 1.951777 -0.136368
v 0.061395 3.518238 -0.136368
v 0.061395 1.951777 -0.136368
v -0.195878 0.737226 -0.257110
v -0.195878 0.737226 0.195264
v 0.195877 0.737226 -0.257110
v 0.195877 0.737226 0.195264
v -0.165423 0.708388 -0.257110
v 0.165423 0.708388 -0.257110
v -0.165423 0.708388 0.195264
v 0.165423 0.708388 0.195264
v -0.165423 0.095171 -0.257110
v 0.165423 0.089937 -0.257110
v -0.165423 0.095171 0.195264
v 0.165423 0.089937 0.195264
v -0.165423 0.082388 -0.257110
v 0.165423 0.077154 -0.257110
v -0.165423 0.082388 0.227914
v 0.165423 0.077154 0.227914
v 0.138559 3.373353 0.209319
v -0.138560 3.373353 0.209319
v -0.138560 3.373353 -0.238381
v 0.138559 3.373353 -0.238381
v -0.138560 3.641787 0.209319
v -0.138560 3.641787 -0.238381
v 0.138559 3.641787 -0.238381
v 0.138559 3.641787 0.209319
v -0.209930 2.664269 -0.386951
v -0.225970 2.702986 -0.386951
v -0.264687 2.719026 -0.386951
v -0.303404 2.702986 -0.386951
v -0.319444 2.664269 -0.386951
v -0.303404 2.625552 -0.386951
v -0.264687 2.609512 -0.386951
v -0.225970 2.625552 -0.386951
v -0.209930 2.664269 -0.125342
v -0.225971 2.702986 -0.125342
v -0.264688 2.719026 -0.125342
v -0.303404 2.702986 -0.125342
v -0.319444 2.664269 -0.125342
v -0.303404 2.625552 -0.125342
v -0.264688 2.609512 -0.125342
v -0.225970 2.625552 -0.125342
v -0.182794 2.664269 -0.085935
v -0.194136 2.702986 -0.074592
v -0.221513 2.719026 -0.047215
v -0.248889 2.702986 -0.019839
v -0.260231 2.664269 -0.008497
v -0.248889 2.625552 -0.019839
v -0.221513 2.609512 -0.047215
v -0.194135 2.625552 -0.074593
v -0.149554 2.664269 -0.077301
v -0.149554 2.702986 -0.061261
v -0.149554 2.719026 -0.022544
v -0.149554 2.702986 0.016173
v -0.149554 2.664269 0.032213
v -0.149554 2.625552 0.016173
v -0.149554 2.609512 -0.022544
v -0.149554 2.625552 -0.061261
v -0.026197 2.664269 -0.077301
v -0.026197 2.702986 -0.061261
v -0.026197 2.719026 -0.022544
v -0.026197 2.702986 0.016173
v -0.026197 2.664269 0.032213
v -0.026197 2.625552 0.016173
v -0.026197 2.609512 -0.022544
v -0.026197 2.625552 -0.061261
v -0.162138 2.481618 -0.386951
v -0.178178 2.520334 -0.386951
v -0.216894 2.536375 -0.386951
v -0.255611 2.520334 -0.386951
v -0.271651 2.481618 -0.386951
v -0.255611 2.442901 -0.386951
v -0.216894 2.426861 -0.386951
v -0.178177 2.442901 -0.386951
v -0.162138 2.481618 -0.125342
v -0.178178 2.520334 -0.125342
v -0.216895 2.536375 -0.125342
v -0.255611 2.520334 -0.125342
v -0.271652 2.481618 -0.125342
v -0.255612 2.442901 -0.125342
v -0.216895 2.426861 -0.125342
v -0.178178 2.442901 -0.125342
v -0.135001 2.481618 -0.085935
v -0.146343 2.520334 -0.074592
v -0.173720 2.536375 -0.047215
v -0.201097 2.520334 -0.019839
v -0.212439 2.481618 -0.008497
v -0.201097 2.442901 -0.019839
v -0.173720 2.426861 -0.047215
v -0.146343 2.442901 -0.074593
v -0.101762 2.481618 -0.077301
v -0.101762 2.520334 -0.061261
v -0.101762 2.536375 -0.022544
v -0.101762 2.520334 0.016173
v -0.101762 2.481618 0.032213
v -0.101762 2.442901 0.016173
v -0.101762 2.426861 -0.022544
v -0.101762 2.442901 -0.061261
v -0.026197 2.481618 -0.077301
v -0.026197 2.520334 -0.061261
v -0.026197 2.536375 -0.022544
v -0.026197 2.520334 0.016173
v -0.026197 2.481618 0.032213
v -0.026197 2.442901 0.016173
v -0.026197 2.426861 -0.022544
v -0.026197 2.442901 -0.061261
v 0.199641 2.664269 -0.386951
v 0.215681 2.702986 -0.386951
v 0.254398 2.719026 -0.386951
v 0.293115 2.702986 -0.386951
v 0.309155 2.664269 -0.386951
v 0.293115 2.625552 -0.386951
v 0.254398 2.609512 -0.386951
v 0.215681 2.625552 -0.386951
v 0.199642 2.664269 -0.125342
v 0.215682 2.702986 -0.125342
v 0.254399 2.719026 -0.125342
v 0.293115 2.702986 -0.125342
v 0.309155 2.664269 -0.125342
v 0.293115 2.625552 -0.125342
v 0.254399 2.609512 -0.125342
v 0.215681 2.625552 -0.125342
v 0.172505 2.664269 -0.085935
v 0.183847 2.702986 -0.074592
v 0.211224 2.719026 -0.047215
v 0.238601 2.702986 -0.019839
v 0.249943 2.664269 -0.008497
v 0.238601 2.625552 -0.019839
v 0.211224 2.609512 -0.047215
v 0.183847 2.625552 -0.074593
v 0.139266 2.664269 -0.077301
v 0.139266 2.702986 -0.061261
v 0.139266 2.719026 -0.022544
v 0.139266 2.702986 0.016173
v 0.139266 2.664269 0.032213
v 0.139266 2.625552 0.016173
v 0.139266 2.609512 -0.022544
v 0.139266 2.625552 -0.061261
v 0.015908 2.664269 -0.077301
v 0.015908 2.702986 -0.061261
v 0.015908 2.719026 -0.022544
v 0.015908 2.702986 0.016173
v 0.015908 2.664269 0.032213
v 0.015908 2.625552 0.016173
v 0.015908 2.609512 -0.022544
v 0.015908 2.625552 -0.061261
v 0.151849 2.481618 -0.386951
v 0.167889 2.520334 -0.386951
v 0.206606 2.536375 -0.386951
v 0.245322 2.520334 -0.386951
v 0.261362 2.481618 -0.386951
v 0.245323 2.442901 -0.386951
v 0.206606 2.426861 -0.386951
v 0.167889 2.442901 -0.386951
v 0.151849 2.481618 -0.125342
v 0.167889 2.520334 -0.125342
v 0.206606 2.536375 -0.125342
v 0.245323 2.520334 -0.125342
v 0.261363 2.481618 -0.125342
v 0.245323 2.442901 -0.125342
v 0.206606 2.426861 -0.125342
v 0.167889 2.442901 -0.125342
v 0.124712 2.481618 -0.085935
v 0.136054 2.520334 -0.074592
v 0.163431 2.536375 -0.047215
v 0.190808 2.520334 -0.019839
v 0.202150 2.481618 -0.008497
v 0.190808 2.442901 -0.019839
v 0.163431 2.426861 -0.047215
v 0.136054 2.442901 -0.074593
v 0.091473 2.481618 -0.077301
v 0.091473 2.520334 -0.061261
v 0.091473 2.536375 -0.022544
v 0.091473 2.520334 0.016173
v 0.091473 2.481618 0.032213
v 0.091473 2.442901 0.016173
v 0.091473 2.426861 -0.022544
v 0.091473 2.442901 -0.061261
v 0.015908 2.481618 -0.077301
v 0.015908 2.520334 -0.061261
v 0.015908 2.536375 -0.022544
v 0.015908 2.520334 0.016173
v 0.015908 2.481618 0.032213
v 0.015908 2.442901 0.016173
v 0.015908 2.426861 -0.022544
v 0.015908 2.442901 -0.061261
v 0.061395 0.827632 0.062008
v -0.061396 0.827632 0.062008
v 0.061395 1.211762 0.062008
v -0.061396 1.211762 0.062008
v -0.061396 0.827632 -0.136368
v -0.061396 1.532764 -0.136368
v 0.061395 0.827632 -0.136368
v 0.061395 1.532764 -0.136368
vn 1.0000 0.0000 0.0000
vn -1.0000 0.0000 0.0000
vn 0.0000 -1.0000 0.0000
vn 0.0000 0.0000 -1.0000
vn 0.0000 1.0000 0.0000
vn 0.0027 0.3437 0.9391
vn -0.0055 -0.8261 0.5635
vn 0.0000 0.0000 1.0000
vn 0.0000 0.7888 0.6147
vn -0.0041 -0.2713 0.9625
vn -0.2522 -0.9677 0.0000
vn 0.2522 -0.9677 0.0000
vn -0.0041 -0.2713 -0.9625
vn 0.0000 -0.5257 0.8507
vn -0.6876 -0.7261 0.0000
vn 0.6876 -0.7261 0.0000
vn 0.0147 0.9311 0.3645
vn 0.0000 0.5257 0.8507
vn 0.9520 0.0000 -0.3059
vn 0.6454 -0.7401 -0.1890
vn 0.7071 -0.7071 0.0000
vn 0.7071 0.7071 0.0000
vn 0.6454 0.7401 -0.1890
vn -0.0593 0.9978 0.0281
vn -0.7071 0.7071 0.0000
vn -0.7149 0.6768 0.1756
vn -0.9751 0.0000 0.2217
vn -0.7071 -0.7071 0.0000
vn -0.7149 -0.6768 0.1756
vn -0.0593 -0.9978 0.0281
vn -0.0558 -0.9960 0.0694
vn -0.4949 -0.6623 0.5625
vn 0.4016 -0.7479 -0.5285
vn 0.5808 0.0000 -0.8140
vn -0.4949 0.6623 0.5625
vn -0.0558 0.9960 0.0694
vn -0.6668 0.0000 0.7452
vn 0.4016 0.7479 -0.5285
vn -0.0165 0.9991 0.0399
vn 0.1021 0.7172 -0.6894
vn 0.1021 -0.7172 -0.6894
vn -0.0165 -0.9991 0.0399
vn -0.1283 -0.6806 0.7213
vn -0.1675 0.0000 0.9859
vn 0.1420 0.0000 -0.9898
vn -0.1283 0.6806 0.7213
vn 0.0000 0.7071 -0.7071
vn 0.0000 -0.7071 -0.7071
vn 0.0000 -0.7071 0.7071
vn 0.0000 0.7071 0.7071
vn -0.0165 0.9991 0.0398
vn -0.6454 -0.7401 -0.1890
vn -0.9520 0.0000 -0.3059
vn -0.6454 0.7401 -0.1890
vn 0.0593 0.9978 0.0281
vn 0.7149 0.6768 0.1756
vn 0.9751 0.0000 0.2217
vn 0.7149 -0.6768 0.1756
vn 0.0593 -0.9978 0.0281
vn 0.4949 -0.6623 0.5625
vn 0.0558 -0.9960 0.0694
vn -0.4016 -0.7479 -0.5285
vn -0.5808 0.0000 -0.8140
vn 0.0558 0.9960 0.0694
vn 0.4949 0.6623 0.5625
vn 0.6668 0.0000 0.7452
vn -0.4016 0.7479 -0.5285
vn -0.1021 0.7172 -0.6894
vn 0.0165 0.9991 0.0399
vn 0.0165 -0.9991 0.0399
vn -0.1021 -0.7172 -0.6894
vn 0.1675 0.0000 0.9859
vn 0.1283 -0.6806 0.7213
vn -0.1420 0.0000 -0.9898
vn 0.1283 0.6806 0.7213
vn 0.0165 0.9991 0.0398
vn 0.0165 -0.9991 0.0398
usemtl DarkGrey
s off
f 64//1 1//1 3//1 62//1
f 63//2 61//2 7//2 5//2
f 1//3 5//3 7//3 3//3
f 14//4 16//4 8//4 4//4
f 4//5 8//5 6//5 2//5
f 64//6 63//6 5//6 1//6
f 13//7 15//7 11//7 9//7
f 28//4 32//4 12//4 10//4
f 15//2 16//2 12//2 11//2
f 13//1 9//1 10//1 14//1
f 2//1 13//1 14//1 4//1
f 6//2 8//2 16//2 15//2
f 2//8 6//8 15//8 13//8
f 10//4 12//4 16//4 14//4
f 51//4 49//4 20//4 18//4
f 21//9 23//9 19//9 17//9
f 23//2 24//2 20//2 19//2
f 21//1 17//1 18//1 22//1
f 25//1 21//1 22//1 27//1
f 29//2 31//2 24//2 23//2
f 25//8 29//8 23//8 21//8
f 18//4 20//4 24//4 22//4
f 9//8 11//8 30//8 26//8
f 26//10 30//10 38//10 34//10
f 11//2 12//2 32//2 30//2
f 30//11 32//11 40//11 38//11
f 9//1 26//1 28//1 10//1
f 28//12 26//12 34//12 36//12
f 22//4 24//4 31//4 27//4
f 27//5 31//5 39//5 35//5
f 34//8 38//8 37//8 33//8
f 38//2 40//2 39//2 37//2
f 34//1 33//1 35//1 36//1
f 35//4 39//4 40//4 36//4
f 32//13 28//13 36//13 40//13
f 25//5 27//5 35//5 33//5
f 31//5 29//5 37//5 39//5
f 29//5 25//5 33//5 37//5
f 47//4 48//4 46//4 45//4
f 46//14 48//14 43//14 44//14
f 45//2 46//2 44//2 42//2
f 41//8 42//8 44//8 43//8
f 48//1 47//1 41//1 43//1
f 54//4 53//4 49//4 51//4
f 17//8 19//8 50//8 52//8
f 17//1 52//1 51//1 18//1
f 19//2 20//2 49//2 50//2
f 58//4 57//4 53//4 54//4
f 52//8 50//8 55//8 56//8
f 50//15 49//15 53//15 55//15
f 52//16 56//16 54//16 51//16
f 71//5 70//5 69//5 72//5
f 62//4 61//4 57//4 58//4
f 56//8 55//8 59//8 60//8
f 55//2 53//2 57//2 59//2
f 56//1 60//1 58//1 54//1
f 3//4 7//4 61//4 62//4
f 60//17 59//17 63//17 64//17
f 59//2 57//2 61//2 63//2
f 60//1 64//1 62//1 58//1
f 68//3 65//3 66//3 67//3
f 68//4 67//4 70//4 71//4
f 65//1 68//1 71//1 72//1
f 66//8 65//8 72//8 69//8
f 67//2 66//2 69//2 70//2
usemtl Main
f 239//4 237//4 238//4 240//4
f 238//18 236//18 235//18 240//18
f 237//2 234//2 236//2 238//2
f 233//8 235//8 236//8 234//8
f 240//1 235//1 233//1 239//1
usemtl Pipes
s 1
f 73//1 81//19 88//20 80//21
f 74//22 82//23 81//19 73//1
f 75//5 83//24 82//23 74//22
f 76//25 84//26 83//24 75//5
f 77//2 85//27 84//26 76//25
f 78//28 86//29 85//27 77//2
f 79//3 87//30 86//29 78//28
f 80//21 88//20 87//30 79//3
f 86//29 87//30 95//31 94//32
f 87//30 88//20 96//33 95//31
f 88//20 81//19 89//34 96//33
f 83//24 84//26 92//35 91//36
f 85//27 86//29 94//32 93//37
f 82//23 83//24 91//36 90//38
f 81//19 82//23 90//38 89//34
f 84//26 85//27 93//37 92//35
f 90//38 91//36 99//39 98//40
f 95//31 96//33 104//41 103//42
f 93//37 94//32 102//43 101//44
f 94//32 95//31 103//42 102//43
f 96//33 89//34 97//45 104//41
f 92//35 93//37 101//44 100//46
f 91//36 92//35 100//46 99//39
f 89//34 90//38 98//40 97//45
f 97//45 98//40 106//47 105//4
f 98//40 99//39 107//5 106//47
f 103//42 104//41 112//48 111//3
f 101//44 102//43 110//49 109//8
f 102//43 103//42 111//3 110//49
f 104//41 97//45 105//4 112//48
f 100//46 101//44 109//8 108//50
f 99//39 100//46 108//50 107//5
f 113//1 121//19 128//20 120//21
f 114//22 122//23 121//19 113//1
f 115//5 123//24 122//23 114//22
f 116//25 124//26 123//24 115//5
f 117//2 125//27 124//26 116//25
f 118//28 126//29 125//27 117//2
f 119//3 127//30 126//29 118//28
f 120//21 128//20 127//30 119//3
f 126//29 127//30 135//31 134//32
f 127//30 128//20 136//33 135//31
f 128//20 121//19 129//34 136//33
f 123//24 124//26 132//35 131//36
f 125//27 126//29 134//32 133//37
f 122//23 123//24 131//36 130//38
f 121//19 122//23 130//38 129//34
f 124//26 125//27 133//37 132//35
f 130//38 131//36 139//51 138//40
f 135//31 136//33 144//41 143//42
f 133//37 134//32 142//43 141//44
f 134//32 135//31 143//42 142//43
f 136//33 129//34 137//45 144//41
f 132//35 133//37 141//44 140//46
f 131//36 132//35 140//46 139//51
f 129//34 130//38 138//40 137//45
f 137//45 138//40 146//47 145//4
f 138//40 139//51 147//5 146//47
f 143//42 144//41 152//48 151//3
f 141//44 142//43 150//49 149//8
f 142//43 143//42 151//3 150//49
f 144//41 137//45 145//4 152//48
f 140//46 141//44 149//8 148//50
f 139//51 140//46 148//50 147//5
f 153//2 160//28 168//52 161//53
f 154//25 153//2 161//53 162//54
f 155//5 154//25 162//54 163//55
f 156//22 155//5 163//55 164//56
f 157//1 156//22 164//56 165//57
f 158//21 157//1 165//57 166//58
f 159//3 158//21 166//58 167//59
f 160//28 159//3 167//59 168//52
f 166//58 174//60 175//61 167//59
f 167//59 175//61 176//62 168//52
f 168//52 176//62 169//63 161//53
f 163//55 171//64 172//65 164//56
f 165//57 173//66 174//60 166//58
f 162//54 170//67 171//64 163//55
f 161//53 169//63 170//67 162//54
f 164//56 172//65 173//66 165//57
f 170//67 178//68 179//69 171//64
f 175//61 183//70 184//71 176//62
f 173//66 181//72 182//73 174//60
f 174//60 182//73 183//70 175//61
f 176//62 184//71 177//74 169//63
f 172//65 180//75 181//72 173//66
f 171//64 179//69 180//75 172//65
f 169//63 177//74 178//68 170//67
f 177//74 185//4 186//47 178//68
f 178//68 186//47 187//5 179//69
f 183//70 191//3 192//48 184//71
f 181//72 189//8 190//49 182//73
f 182//73 190//49 191//3 183//70
f 184//71 192//48 185//4 177//74
f 180//75 188//50 189//8 181//72
f 179//69 187//5 188//50 180//75
f 193//2 200//28 208//52 201//53
f 194//25 193//2 201//53 202//54
f 195//5 194//25 202//54 203//55
f 196//22 195//5 203//55 204//56
f 197//1 196//22 204//56 205//57
f 198//21 197//1 205//57 206//58
f 199//3 198//21 206//58 207//59
f 200//28 199//3 207//59 208//52
f 206//58 214//60 215//61 207//59
f 207//59 215//61 216//62 208//52
f 208//52 216//62 209//63 201//53
f 203//55 211//64 212//65 204//56
f 205//57 213//66 214//60 206//58
f 202//54 210//67 211//64 203//55
f 201//53 209//63 210//67 202//54
f 204//56 212//65 213//66 205//57
f 210//67 218//68 219//76 211//64
f 215//61 223//77 224//71 216//62
f 213//66 221//72 222//73 214//60
f 214//60 222//73 223//77 215//61
f 216//62 224//71 217//74 209//63
f 212//65 220//75 221//72 213//66
f 211//64 219//76 220//75 212//65
f 209//63 217//74 218//68 210//67
f 217//74 225//4 226//47 218//68
f 218//68 226//47 227//5 219//76
f 223//77 231//3 232//48 224//71
f 221//72 229//8 230//49 222//73
f 222//73 230//49 231//3 223//77
f 224//71 232//48 225//4 217//74
f 220//75 228//50 229//8 221//72
f 219//76 227//5 228//50 220//75
