# Blender v2.79 (sub 0) OBJ File: 'Details_Arrow.blend'
# www.blender.org
mtllib Details_Arrow.mtl
o Details_Arrow_Cube.062
v -0.049468 0.070748 0.024672
v 0.000000 0.120216 0.024672
v -0.060022 0.090630 -0.024672
v 0.000000 0.150651 -0.024672
v 0.000000 0.021280 0.024672
v 0.049468 0.070748 0.024672
v 0.000000 0.030608 -0.024672
v 0.060022 0.090630 -0.024672
v 0.180065 -0.029414 -0.024672
v 0.099662 -0.096494 -0.024672
v 0.098936 -0.077657 0.024672
v 0.148404 -0.028189 0.024672
v -0.180065 -0.029414 -0.024672
v -0.148404 -0.028189 0.024672
v -0.099662 -0.096494 -0.024672
v -0.098936 -0.077657 0.024672
v 0.032979 -0.011699 0.024672
v 0.082447 0.037769 0.024672
v 0.040015 -0.038581 -0.024672
v 0.100036 0.050615 -0.024672
v -0.100036 0.050615 -0.024672
v -0.082447 0.037769 0.024672
v -0.032979 -0.011699 0.024672
v -0.040014 -0.038581 -0.024672
v 0.000000 -0.156715 0.024672
v 0.000000 -0.185360 -0.024672
v -0.040014 -0.185360 -0.024672
v 0.032979 -0.156715 0.024672
v 0.040014 -0.185360 -0.024672
v -0.032979 -0.156715 0.024672
vn -0.6481 0.6481 0.3998
vn 0.0000 -0.0000 -1.0000
vn 0.0000 -0.0000 1.0000
vn 0.6481 0.6481 0.3998
vn 0.6263 -0.6979 0.3474
vn -0.6771 -0.6866 0.2648
vn -0.6263 -0.6979 0.3474
vn 0.6771 -0.6866 0.2648
vn 0.9900 -0.0000 0.1412
vn -0.0000 -0.8648 0.5021
vn -0.9900 -0.0000 0.1412
usemtl Main
s 1
f 1//1 2//1 4//1 3//1
f 3//2 4//2 8//2 7//2
f 21//2 24//2 15//2 13//2
f 5//3 6//3 2//3 1//3
f 8//4 4//4 2//4 6//4
f 10//5 9//5 12//5 11//5
f 18//3 17//3 11//3 12//3
f 17//6 19//6 10//6 11//6
f 20//4 18//4 12//4 9//4
f 13//7 15//7 16//7 14//7
f 22//1 21//1 13//1 14//1
f 24//8 23//8 16//8 15//8
f 23//3 22//3 14//3 16//3
f 7//2 8//2 20//2 19//2
f 8//4 6//4 18//4 20//4
f 24//2 7//2 26//2 27//2
f 6//3 5//3 17//3 18//3
f 3//2 7//2 24//2 21//2
f 5//3 1//3 22//3 23//3
f 19//9 17//9 28//9 29//9
f 1//1 3//1 21//1 22//1
f 25//10 26//10 29//10 28//10
f 26//10 25//10 30//10 27//10
f 23//11 24//11 27//11 30//11
f 7//2 19//2 29//2 26//2
f 17//3 5//3 25//3 28//3
f 5//3 23//3 30//3 25//3
f 19//2 20//2 9//2 10//2
