# Blender v2.79 (sub 0) OBJ File: 'Details_Output_Small.blend'
# www.blender.org
mtllib Details_Output_Small.mtl
o Details_Output_Small_Cube.052
v -0.028088 0.028088 0.025504
v -0.018618 0.018618 -0.017397
v -0.036699 0.015201 0.025504
v -0.024326 0.010076 -0.017397
v -0.039723 -0.000000 0.025504
v -0.026330 -0.000000 -0.017397
v -0.036699 -0.015201 0.025504
v -0.024326 -0.010076 -0.017397
v -0.028088 -0.028088 0.025504
v -0.018618 -0.018619 -0.017397
v -0.015201 -0.036699 0.025504
v -0.010076 -0.024326 -0.017397
v 0.000000 -0.039723 0.025504
v 0.000000 -0.026330 -0.017397
v 0.015201 -0.036699 0.025504
v 0.010076 -0.024326 -0.017397
v 0.028088 -0.028088 0.025504
v 0.018618 -0.018619 -0.017397
v 0.036699 -0.015201 0.025504
v 0.024326 -0.010076 -0.017397
v 0.039723 -0.000000 0.025504
v 0.026330 -0.000000 -0.017397
v 0.036699 0.015201 0.025504
v 0.024326 0.010076 -0.017397
v 0.028088 0.028088 0.025504
v 0.018618 0.018618 -0.017397
v 0.015201 0.036699 0.025504
v 0.010076 0.024326 -0.017397
v 0.000000 0.039723 0.025504
v 0.000000 0.026330 -0.017397
v -0.015201 0.036699 0.025504
v -0.010076 0.024326 -0.017397
v -0.040243 0.040243 0.024024
v -0.052580 0.021779 0.024024
v -0.056913 -0.000000 0.024024
v -0.052580 -0.021780 0.024024
v -0.040243 -0.040243 0.024024
v -0.021780 -0.052580 0.024024
v 0.000000 -0.056913 0.024024
v 0.021779 -0.052580 0.024024
v 0.040243 -0.040243 0.024024
v 0.052580 -0.021779 0.024024
v 0.056912 -0.000000 0.024024
v 0.052580 0.021779 0.024024
v 0.040243 0.040243 0.024024
v 0.021779 0.052580 0.024024
v -0.000000 0.056913 0.024024
v -0.021780 0.052580 0.024024
v -0.050131 0.050130 -0.028655
v -0.065499 0.027130 -0.028655
v -0.070896 -0.000000 -0.028655
v -0.065499 -0.027131 -0.028655
v -0.050131 -0.050131 -0.028655
v -0.027131 -0.065499 -0.028655
v -0.000000 -0.070896 -0.028655
v 0.027131 -0.065499 -0.028655
v 0.050131 -0.050131 -0.028655
v 0.065499 -0.027131 -0.028655
v 0.070895 -0.000000 -0.028655
v 0.065499 0.027130 -0.028655
v 0.050130 0.050130 -0.028655
v 0.027131 0.065498 -0.028655
v -0.000000 0.070895 -0.028655
v -0.027131 0.065499 -0.028655
v -0.052145 0.052144 0.024024
v -0.063575 0.032774 0.024024
v 0.032775 -0.063576 0.024024
v 0.052144 -0.052144 0.024024
v 0.063576 -0.032775 0.024024
v -0.032775 0.063575 0.024024
v -0.064956 0.064955 -0.028655
v -0.079195 0.040827 -0.028655
v 0.040827 -0.079195 -0.028655
v 0.064955 -0.064956 -0.028655
v 0.079195 -0.040827 -0.028655
v -0.040827 0.079195 -0.028655
v -0.063140 -0.032340 0.024024
v -0.051673 -0.051674 0.024024
v -0.032339 -0.063141 0.024024
v 0.063141 0.032339 0.024024
v 0.051673 0.051673 0.024024
v 0.032339 0.063140 0.024024
v -0.078654 -0.040285 -0.028655
v -0.064369 -0.064369 -0.028655
v -0.040285 -0.078654 -0.028655
v 0.078653 0.040285 -0.028655
v 0.064369 0.064369 -0.028655
v 0.040285 0.078653 -0.028655
vn 0.0000 0.0000 -1.0000
vn 0.6750 -0.6750 0.2980
vn 0.8819 -0.3653 0.2980
vn 0.9546 0.0000 0.2980
vn 0.8819 0.3653 0.2980
vn 0.6750 0.6750 0.2980
vn 0.3653 0.8819 0.2980
vn -0.0000 0.9546 0.2980
vn -0.3653 0.8819 0.2980
vn -0.6750 0.6750 0.2980
vn -0.8819 0.3653 0.2980
vn -0.9546 0.0000 0.2980
vn -0.8819 -0.3653 0.2980
vn -0.6750 -0.6750 0.2980
vn -0.3653 -0.8819 0.2980
vn -0.0000 -0.9546 0.2980
vn 0.0000 -0.0000 1.0000
vn 0.3653 -0.8819 0.2980
vn -0.0328 -0.0793 0.9963
vn -0.0219 -0.0529 0.9984
vn 0.0000 -0.0858 0.9963
vn 0.0858 -0.0000 0.9963
vn 0.0529 0.0219 0.9984
vn 0.0793 0.0328 0.9963
vn -0.0328 0.0793 0.9963
vn -0.0219 0.0529 0.9984
vn -0.0266 0.0266 0.9993
vn -0.0607 0.0607 0.9963
vn -0.0793 -0.0328 0.9963
vn -0.0529 -0.0219 0.9984
vn -0.0266 -0.0266 0.9993
vn -0.0607 -0.0607 0.9963
vn 0.0607 -0.0607 0.9963
vn 0.0266 -0.0266 0.9993
vn 0.0529 -0.0219 0.9984
vn 0.0793 -0.0328 0.9963
vn 0.0328 0.0793 0.9963
vn 0.0219 0.0529 0.9984
vn 0.0000 0.0858 0.9963
vn -0.0793 0.0328 0.9963
vn -0.0529 0.0219 0.9984
vn -0.0858 -0.0000 0.9963
vn 0.0219 -0.0529 0.9984
vn 0.0328 -0.0793 0.9963
vn 0.0266 0.0266 0.9993
vn 0.0607 0.0607 0.9963
vn -0.0000 -0.9665 0.2566
vn -0.1888 -0.9491 0.2519
vn 0.0000 0.9665 0.2566
vn 0.1888 0.9491 0.2519
vn 0.1888 -0.9491 0.2519
vn -0.1888 0.9491 0.2519
vn -0.7035 -0.7035 0.1011
vn -0.9665 0.0000 0.2566
vn -0.9491 0.1888 0.2519
vn 0.9665 -0.0000 0.2566
vn 0.9491 -0.1888 0.2519
vn -0.9491 -0.1888 0.2519
vn 0.9491 0.1888 0.2519
vn 0.6687 -0.6687 0.3252
vn 0.4822 -0.8171 0.3160
vn -0.8171 0.4822 0.3160
vn -0.6687 0.6687 0.3252
vn -0.4822 0.8171 0.3160
vn 0.8171 -0.4822 0.3160
vn 0.7035 0.7035 0.1011
vn 0.4844 0.8167 0.3136
vn 0.6693 0.6693 0.3226
vn -0.6693 -0.6693 0.3226
vn -0.8167 -0.4844 0.3136
vn 0.8167 0.4844 0.3136
vn -0.4844 -0.8167 0.3136
vn -0.7035 0.7035 0.1011
vn 0.7035 -0.7035 0.1011
usemtl DarkGrey
s off
f 57//1 58//1 75//1 74//1
f 56//1 57//1 74//1 73//1
f 60//1 61//1 87//1 86//1
f 53//1 54//1 85//1 84//1
f 64//1 49//1 71//1 76//1
f 49//1 50//1 72//1 71//1
f 61//1 62//1 88//1 87//1
f 52//1 53//1 84//1 83//1
s 1
f 1//2 3//3 4//3 2//2
f 3//3 5//4 6//4 4//3
f 5//4 7//5 8//5 6//4
f 7//5 9//6 10//6 8//5
f 9//6 11//7 12//7 10//6
f 11//7 13//8 14//8 12//7
f 13//8 15//9 16//9 14//8
f 15//9 17//10 18//10 16//9
f 17//10 19//11 20//11 18//10
f 19//11 21//12 22//12 20//11
f 21//12 23//13 24//13 22//12
f 23//13 25//14 26//14 24//13
f 25//14 27//15 28//15 26//14
f 27//15 29//16 30//16 28//15
f 4//17 6//17 8//17 10//17 12//17 14//17 16//17 18//17 20//17 22//17 24//17 26//17 28//17 30//17 32//17 2//17
f 29//16 31//18 32//18 30//16
f 31//18 1//2 2//2 32//18
f 11//19 38//20 39//21 13//21
f 21//22 43//22 44//23 23//24
f 31//25 48//26 33//27 1//28
f 7//29 36//30 37//31 9//32
f 17//33 41//34 42//35 19//36
f 27//37 46//38 47//39 29//39
f 3//40 34//41 35//42 5//42
f 13//21 39//21 40//43 15//44
f 23//24 44//23 45//45 25//46
f 9//32 37//31 38//20 11//19
f 19//36 42//35 43//22 21//22
f 29//39 47//39 48//26 31//25
f 5//42 35//42 36//30 7//29
f 15//44 40//43 41//34 17//33
f 1//28 33//27 34//41 3//40
f 25//46 45//45 46//38 27//37
f 37//31 36//30 77//17 78//17
f 39//47 38//48 54//48 55//47
f 47//49 46//50 62//50 63//49
f 40//51 39//47 55//47 56//51
f 48//52 47//49 63//49 64//52
f 40//53 56//53 73//53 67//53
f 50//53 34//53 66//53 72//53
f 35//54 34//55 50//55 51//54
f 43//56 42//57 58//57 59//56
f 36//58 35//54 51//54 52//58
f 44//59 43//56 59//56 60//59
f 46//38 45//45 81//17 82//17
f 68//60 67//61 73//61 74//60
f 66//62 65//63 71//63 72//62
f 65//63 70//64 76//64 71//63
f 69//65 68//60 74//60 75//65
f 48//66 64//66 76//66 70//66
f 34//41 33//27 65//17 66//17
f 58//66 42//66 69//66 75//66
f 41//34 40//43 67//17 68//17
f 42//35 41//34 68//17 69//17
f 33//27 48//26 70//17 65//17
f 82//67 81//68 87//68 88//67
f 78//69 77//70 83//70 84//69
f 81//68 80//71 86//71 87//68
f 79//72 78//69 84//69 85//72
f 36//73 52//73 83//73 77//73
f 54//74 38//74 79//74 85//74
f 62//73 46//73 82//73 88//73
f 38//20 37//31 78//17 79//17
f 44//74 60//74 86//74 80//74
f 45//45 44//23 80//17 81//17
