# Blender v2.79 (sub 0) OBJ File: 'Details_Triangles.blend'
# www.blender.org
mtllib Details_Triangles.mtl
o Details_Triangles_Cube.063
v -0.198406 0.048485 0.013471
v -0.118833 -0.000000 0.013471
v -0.215954 0.080561 -0.013471
v -0.083737 0.000000 -0.013471
v -0.198406 -0.048485 0.013471
v -0.215954 -0.080561 -0.013471
v -0.026524 0.048485 0.013471
v 0.053049 0.000000 0.013471
v -0.044072 0.080561 -0.013471
v 0.088144 0.000000 -0.013471
v -0.026524 -0.048485 0.013471
v -0.044072 -0.080561 -0.013471
v 0.145357 0.048485 0.013470
v 0.224930 0.000000 0.013470
v 0.127809 0.080561 -0.013471
v 0.260026 0.000000 -0.013471
v 0.145357 -0.048485 0.013470
v 0.127809 -0.080561 -0.013471
vn 0.4307 0.7069 0.5611
vn -0.0000 0.0000 -1.0000
vn 0.4307 -0.7069 0.5611
vn -0.0000 -0.0000 1.0000
vn -0.8379 -0.0000 0.5458
usemtl Accent
s 1
f 1//1 2//1 4//1 3//1
f 3//2 4//2 6//2
f 6//3 4//3 2//3 5//3
f 5//4 2//4 1//4
f 3//5 6//5 5//5 1//5
f 7//1 8//1 10//1 9//1
f 9//2 10//2 12//2
f 12//3 10//3 8//3 11//3
f 11//4 8//4 7//4
f 9//5 12//5 11//5 7//5
f 13//1 14//1 16//1 15//1
f 15//2 16//2 18//2
f 18//3 16//3 14//3 17//3
f 17//4 14//4 13//4
f 15//5 18//5 17//5 13//5
