# Blender v2.79 (sub 0) OBJ File: 'Details_Plate_Details.blend'
# www.blender.org
mtllib Details_Plate_Details.mtl
o Details_Plate_Details_Cube.047
v -0.226789 0.280192 0.006446
v -0.271216 0.234097 0.006446
v -0.240518 0.277936 0.006446
v -0.252902 0.271389 0.006446
v -0.262731 0.261191 0.006446
v -0.269042 0.248341 0.006446
v 0.271393 0.234097 0.006446
v 0.226966 0.280193 0.006446
v 0.269219 0.248341 0.006446
v 0.262909 0.261191 0.006446
v 0.253080 0.271389 0.006446
v 0.240695 0.277937 0.006446
v -0.271216 -0.235233 0.006446
v -0.226789 -0.281328 0.006446
v -0.269042 -0.249477 0.006446
v -0.262731 -0.262327 0.006446
v -0.252903 -0.272525 0.006446
v -0.240518 -0.279072 0.006446
v 0.226966 -0.281328 0.006446
v 0.271393 -0.235232 0.006446
v 0.240695 -0.279072 0.006446
v 0.253080 -0.272525 0.006446
v 0.262909 -0.262327 0.006446
v 0.269219 -0.249477 0.006446
v -0.247650 -0.297452 -0.016316
v -0.292955 -0.251244 -0.016316
v -0.261650 -0.295190 -0.016316
v -0.274279 -0.288627 -0.016316
v -0.284302 -0.278404 -0.016316
v -0.290737 -0.265523 -0.016316
v -0.292955 0.250108 -0.016316
v -0.247650 0.296316 -0.016316
v -0.290737 0.264387 -0.016316
v -0.284302 0.277268 -0.016316
v -0.274280 0.287491 -0.016316
v -0.261650 0.294054 -0.016316
v 0.247827 0.296316 -0.016316
v 0.293132 0.250108 -0.016316
v 0.261827 0.294055 -0.016316
v 0.274457 0.287491 -0.016316
v 0.284480 0.277269 -0.016316
v 0.290915 0.264387 -0.016316
v 0.293132 -0.251244 -0.016316
v 0.247827 -0.297452 -0.016316
v 0.290915 -0.265523 -0.016316
v 0.284480 -0.278404 -0.016316
v 0.274457 -0.288627 -0.016316
v 0.261827 -0.295190 -0.016316
v -0.222284 0.255529 0.012372
v -0.227814 0.246624 -0.008671
v -0.194846 0.255529 0.012372
v -0.189316 0.246624 -0.008671
v -0.212074 0.299714 0.012372
v -0.222285 0.288991 0.012372
v -0.219294 0.296573 0.012372
v -0.227815 0.297896 -0.008671
v -0.217604 0.308619 -0.008671
v -0.224824 0.305478 -0.008671
v -0.194846 0.288991 0.012372
v -0.205056 0.299714 0.012372
v -0.197836 0.296573 0.012372
v -0.199526 0.308619 -0.008671
v -0.189316 0.297896 -0.008671
v -0.192306 0.305478 -0.008671
v -0.222284 -0.256665 0.012372
v -0.227814 -0.247760 -0.008671
v -0.194846 -0.256665 0.012372
v -0.189316 -0.247760 -0.008671
v -0.212074 -0.300850 0.012372
v -0.222284 -0.290127 0.012372
v -0.219294 -0.297709 0.012372
v -0.227814 -0.299031 -0.008671
v -0.217604 -0.309755 -0.008671
v -0.224824 -0.306614 -0.008671
v -0.194846 -0.290127 0.012372
v -0.205056 -0.300850 0.012372
v -0.197836 -0.297709 0.012372
v -0.199526 -0.309755 -0.008671
v -0.189316 -0.299031 -0.008671
v -0.192306 -0.306614 -0.008671
v 0.194779 0.257091 0.012372
v 0.189249 0.248186 -0.008671
v 0.222218 0.257091 0.012372
v 0.227748 0.248186 -0.008671
v 0.204989 0.301276 0.012372
v 0.194779 0.290553 0.012372
v 0.197769 0.298135 0.012372
v 0.189249 0.299458 -0.008671
v 0.199459 0.310181 -0.008671
v 0.192239 0.307040 -0.008671
v 0.222218 0.290553 0.012372
v 0.212007 0.301276 0.012372
v 0.219227 0.298135 0.012372
v 0.217537 0.310181 -0.008671
v 0.227748 0.299458 -0.008671
v 0.224757 0.307040 -0.008671
v 0.194779 -0.255103 0.012372
v 0.189249 -0.246198 -0.008671
v 0.222218 -0.255103 0.012372
v 0.227748 -0.246198 -0.008671
v 0.204990 -0.299288 0.012372
v 0.194779 -0.288564 0.012372
v 0.197770 -0.296147 0.012372
v 0.189249 -0.297469 -0.008671
v 0.199460 -0.308193 -0.008671
v 0.192240 -0.305052 -0.008671
v 0.222218 -0.288565 0.012372
v 0.212007 -0.299288 0.012372
v 0.219227 -0.296147 0.012372
v 0.217537 -0.308193 -0.008671
v 0.227748 -0.297469 -0.008671
v 0.224757 -0.305052 -0.008671
v 0.255283 0.222464 0.012372
v 0.246378 0.227994 -0.008671
v 0.255283 0.195025 0.012372
v 0.246378 0.189496 -0.008671
v 0.299467 0.212254 0.012372
v 0.288744 0.222464 0.012372
v 0.296327 0.219474 0.012372
v 0.297649 0.227994 -0.008671
v 0.308372 0.217783 -0.008671
v 0.305232 0.225003 -0.008671
v 0.288744 0.195025 0.012372
v 0.299467 0.205236 0.012372
v 0.296327 0.198016 0.012372
v 0.308372 0.199706 -0.008671
v 0.297649 0.189495 -0.008671
v 0.305232 0.192486 -0.008671
v -0.256911 0.222464 0.012372
v -0.248006 0.227994 -0.008671
v -0.256911 0.195025 0.012372
v -0.248006 0.189495 -0.008671
v -0.301096 0.212253 0.012372
v -0.290373 0.222464 0.012372
v -0.297955 0.219473 0.012372
v -0.299278 0.227994 -0.008671
v -0.310001 0.217783 -0.008671
v -0.306860 0.225003 -0.008671
v -0.290373 0.195025 0.012372
v -0.301096 0.205236 0.012372
v -0.297955 0.198016 0.012372
v -0.310001 0.199706 -0.008671
v -0.299278 0.189495 -0.008671
v -0.306860 0.192486 -0.008671
v 0.256845 -0.194599 0.012372
v 0.247940 -0.189069 -0.008671
v 0.256845 -0.222038 0.012372
v 0.247940 -0.227568 -0.008671
v 0.301030 -0.204810 0.012372
v 0.290306 -0.194599 0.012372
v 0.297889 -0.197590 0.012372
v 0.299211 -0.189069 -0.008671
v 0.309934 -0.199280 -0.008671
v 0.306794 -0.192060 -0.008671
v 0.290306 -0.222038 0.012372
v 0.301030 -0.211827 0.012372
v 0.297889 -0.219047 0.012372
v 0.309934 -0.217357 -0.008671
v 0.299211 -0.227568 -0.008671
v 0.306794 -0.224577 -0.008671
v -0.255349 -0.194599 0.012372
v -0.246444 -0.189069 -0.008671
v -0.255349 -0.222038 0.012372
v -0.246444 -0.227568 -0.008671
v -0.299534 -0.204810 0.012372
v -0.288811 -0.194599 0.012372
v -0.296393 -0.197590 0.012372
v -0.297716 -0.189069 -0.008671
v -0.308439 -0.199280 -0.008671
v -0.305298 -0.192060 -0.008671
v -0.288811 -0.222038 0.012372
v -0.299534 -0.211827 0.012372
v -0.296393 -0.219047 0.012372
v -0.308439 -0.217357 -0.008671
v -0.297716 -0.227568 -0.008671
v -0.305298 -0.224577 -0.008671
v -0.245268 -0.021669 0.002185
v -0.036357 -0.227215 0.015819
v -0.229070 -0.227215 0.015819
v -0.229070 -0.035280 0.015819
v -0.245268 -0.243341 0.002185
v -0.022698 -0.243341 0.002185
v -0.086662 -0.021669 0.002185
v -0.022698 -0.085633 0.002185
v -0.036357 -0.090663 0.015819
v -0.091740 -0.035280 0.015819
v 0.245268 -0.021669 0.002185
v 0.036357 -0.227215 0.015819
v 0.229070 -0.227215 0.015819
v 0.229070 -0.035280 0.015819
v 0.245268 -0.243341 0.002185
v 0.022698 -0.243341 0.002185
v 0.086662 -0.021669 0.002185
v 0.022698 -0.085633 0.002185
v 0.036357 -0.090663 0.015819
v 0.091740 -0.035280 0.015819
v -0.245268 0.021669 0.002185
v -0.036357 0.227215 0.015819
v -0.229070 0.227215 0.015819
v -0.229070 0.035280 0.015819
v -0.245268 0.243341 0.002185
v -0.022698 0.243341 0.002185
v -0.086662 0.021669 0.002185
v -0.022698 0.085633 0.002185
v -0.036357 0.090663 0.015819
v -0.091740 0.035280 0.015819
v 0.245268 0.021669 0.002185
v 0.036357 0.227215 0.015819
v 0.229070 0.227215 0.015819
v 0.229070 0.035280 0.015819
v 0.245268 0.243341 0.002185
v 0.022698 0.243341 0.002185
v 0.086662 0.021669 0.002185
v 0.022698 0.085633 0.002185
v 0.036357 0.090663 0.015819
v 0.091740 0.035280 0.015819
vn -0.0390 0.7981 0.6013
vn 0.0390 0.7981 0.6013
vn 0.0855 0.7742 0.6272
vn -0.0855 0.7742 0.6272
vn 0.0000 -0.0000 -1.0000
vn 0.7089 0.0391 0.7043
vn 0.7089 -0.0391 0.7043
vn 0.6978 -0.0670 0.7132
vn 0.6978 0.0670 0.7132
vn 0.0390 -0.7981 0.6013
vn -0.0390 -0.7981 0.6013
vn -0.0855 -0.7742 0.6272
vn 0.0855 -0.7742 0.6272
vn -0.0000 0.0000 1.0000
vn -0.7089 -0.0391 0.7043
vn -0.6978 -0.0670 0.7132
vn -0.6277 -0.2139 0.7485
vn -0.6434 -0.1843 0.7430
vn -0.5269 -0.3739 0.7633
vn -0.5283 -0.3719 0.7632
vn -0.4056 -0.5218 0.7505
vn -0.3853 -0.5432 0.7460
vn -0.2520 -0.6635 0.7045
vn -0.1967 -0.7046 0.6818
vn 0.6434 -0.1843 0.7430
vn 0.6277 -0.2139 0.7485
vn 0.5283 -0.3719 0.7632
vn 0.5269 -0.3739 0.7633
vn 0.3853 -0.5432 0.7460
vn 0.4056 -0.5218 0.7505
vn 0.1967 -0.7046 0.6818
vn 0.2520 -0.6635 0.7045
vn 0.6277 0.2139 0.7485
vn 0.6434 0.1843 0.7430
vn 0.5269 0.3739 0.7633
vn 0.5283 0.3719 0.7632
vn 0.4056 0.5218 0.7505
vn 0.3853 0.5432 0.7460
vn 0.2520 0.6635 0.7045
vn 0.1967 0.7046 0.6818
vn -0.6978 0.0670 0.7132
vn -0.7089 0.0391 0.7043
vn -0.6434 0.1843 0.7430
vn -0.6277 0.2139 0.7485
vn -0.5283 0.3719 0.7632
vn -0.5269 0.3739 0.7633
vn -0.3853 0.5432 0.7460
vn -0.4056 0.5218 0.7505
vn -0.1967 0.7046 0.6818
vn -0.2520 0.6635 0.7045
vn 0.9197 0.2110 0.3310
vn 0.9419 0.1383 0.3061
vn 0.9672 -0.0000 0.2542
vn -0.9419 0.1383 0.3061
vn -0.9197 0.2110 0.3310
vn -0.9672 -0.0000 0.2542
vn -0.0000 -0.9209 0.3897
vn -0.8638 0.3407 0.3712
vn -0.3578 0.8225 0.4421
vn -0.1655 0.8919 0.4209
vn -0.2006 0.8822 0.4260
vn 0.8638 0.3407 0.3712
vn 0.3578 0.8225 0.4421
vn 0.2006 0.8822 0.4260
vn 0.1655 0.8919 0.4209
vn 0.9197 -0.2110 0.3310
vn 0.9419 -0.1383 0.3061
vn -0.9419 -0.1383 0.3061
vn -0.9197 -0.2110 0.3310
vn -0.0000 0.9209 0.3897
vn -0.8638 -0.3407 0.3712
vn -0.3578 -0.8225 0.4421
vn -0.2006 -0.8822 0.4260
vn -0.1655 -0.8919 0.4209
vn 0.8638 -0.3407 0.3712
vn 0.3578 -0.8225 0.4421
vn 0.1655 -0.8919 0.4209
vn 0.2006 -0.8822 0.4260
vn 0.2110 -0.9197 0.3310
vn 0.1383 -0.9419 0.3061
vn -0.0000 -0.9672 0.2542
vn 0.1383 0.9419 0.3061
vn 0.2110 0.9197 0.3310
vn -0.0000 0.9672 0.2542
vn -0.9209 0.0000 0.3897
vn 0.3407 0.8638 0.3712
vn 0.8225 0.3578 0.4421
vn 0.8919 0.1655 0.4209
vn 0.8822 0.2006 0.4260
vn 0.3407 -0.8638 0.3712
vn 0.8225 -0.3578 0.4421
vn 0.8822 -0.2006 0.4260
vn 0.8919 -0.1655 0.4209
vn -0.2110 -0.9197 0.3310
vn -0.1383 -0.9419 0.3061
vn -0.1383 0.9419 0.3061
vn -0.2110 0.9197 0.3310
vn 0.9209 0.0000 0.3897
vn -0.3407 0.8638 0.3712
vn -0.8225 0.3578 0.4421
vn -0.8822 0.2006 0.4260
vn -0.8919 0.1655 0.4209
vn -0.3407 -0.8638 0.3712
vn -0.8225 -0.3578 0.4421
vn -0.8919 -0.1655 0.4209
vn -0.8822 -0.2006 0.4260
vn 0.7065 -0.0000 0.7078
vn 0.0000 -0.6456 0.7636
vn -0.6440 -0.0000 0.7651
vn 0.5077 0.5077 0.6960
vn -0.0000 0.7077 0.7065
vn -0.7065 0.0000 0.7078
vn 0.6440 -0.0000 0.7651
vn -0.5077 0.5077 0.6960
vn -0.0000 0.6456 0.7636
vn 0.5077 -0.5077 0.6960
vn 0.0000 -0.7077 0.7065
vn -0.5077 -0.5077 0.6960
usemtl Main
s 1
f 1//1 8//2 37//3 32//4
f 31//5 33//5 34//5 35//5 36//5 32//5 37//5 39//5 40//5 41//5 42//5 38//5 43//5 45//5 46//5 47//5 48//5 44//5 25//5 27//5 28//5 29//5 30//5 26//5
f 7//6 20//7 43//8 38//9
f 19//10 14//11 25//12 44//13
f 1//14 3//14 4//14 5//14 6//14 2//14 13//14 15//14 16//14 17//14 18//14 14//14 19//14 21//14 22//14 23//14 24//14 20//14 7//14 9//14 10//14 11//14 12//14 8//14
f 13//15 26//16 30//17 15//18
f 15//18 30//17 29//19 16//20
f 16//20 29//19 28//21 17//22
f 17//22 28//21 27//23 18//24
f 18//24 27//23 25//12 14//11
f 43//8 20//7 24//25 45//26
f 45//26 24//25 23//27 46//28
f 46//28 23//27 22//29 47//30
f 47//30 22//29 21//31 48//32
f 48//32 21//31 19//10 44//13
f 7//6 38//9 42//33 9//34
f 9//34 42//33 41//35 10//36
f 10//36 41//35 40//37 11//38
f 11//38 40//37 39//39 12//40
f 12//40 39//39 37//3 8//2
f 31//41 2//42 6//43 33//44
f 33//44 6//43 5//45 34//46
f 34//46 5//45 4//47 35//48
f 35//48 4//47 3//49 36//50
f 36//50 3//49 1//1 32//4
f 13//15 2//42 31//41 26//16
usemtl Accent
f 56//5 58//5 57//5 62//5 64//5 63//5 52//5 50//5
f 59//14 61//14 60//14 53//14 55//14 54//14 49//14 51//14
f 63//51 59//52 51//53 52//53
f 54//54 56//55 50//56 49//56
f 49//57 50//57 52//57 51//57
f 56//55 54//54 55//58 58//58
f 58//59 55//59 53//60 57//61
f 59//52 63//51 64//62 61//62
f 61//63 64//63 62//64 60//65
f 60//65 62//64 57//61 53//60
f 72//5 66//5 68//5 79//5 80//5 78//5 73//5 74//5
f 75//14 67//14 65//14 70//14 71//14 69//14 76//14 77//14
f 79//66 68//53 67//53 75//67
f 70//68 65//56 66//56 72//69
f 65//70 67//70 68//70 66//70
f 72//69 74//71 71//71 70//68
f 74//72 73//73 69//74 71//72
f 75//67 77//75 80//75 79//66
f 77//76 76//77 78//78 80//76
f 76//77 69//74 73//73 78//78
f 88//5 90//5 89//5 94//5 96//5 95//5 84//5 82//5
f 91//14 93//14 92//14 85//14 87//14 86//14 81//14 83//14
f 95//51 91//52 83//53 84//53
f 86//54 88//55 82//56 81//56
f 81//57 82//57 84//57 83//57
f 88//55 86//54 87//58 90//58
f 90//59 87//59 85//60 89//61
f 91//52 95//51 96//62 93//62
f 93//63 96//63 94//64 92//65
f 92//65 94//64 89//61 85//60
f 104//5 98//5 100//5 111//5 112//5 110//5 105//5 106//5
f 107//14 99//14 97//14 102//14 103//14 101//14 108//14 109//14
f 111//66 100//53 99//53 107//67
f 102//68 97//56 98//56 104//69
f 97//70 99//70 100//70 98//70
f 104//69 106//71 103//71 102//68
f 106//72 105//73 101//74 103//72
f 107//67 109//75 112//75 111//66
f 109//76 108//77 110//78 112//76
f 108//77 101//74 105//73 110//78
f 120//5 122//5 121//5 126//5 128//5 127//5 116//5 114//5
f 123//14 125//14 124//14 117//14 119//14 118//14 113//14 115//14
f 127//79 123//80 115//81 116//81
f 118//82 120//83 114//84 113//84
f 113//85 114//85 116//85 115//85
f 120//83 118//82 119//86 122//86
f 122//87 119//87 117//88 121//89
f 123//80 127//79 128//90 125//90
f 125//91 128//91 126//92 124//93
f 124//93 126//92 121//89 117//88
f 136//5 130//5 132//5 143//5 144//5 142//5 137//5 138//5
f 139//14 131//14 129//14 134//14 135//14 133//14 140//14 141//14
f 143//94 132//81 131//81 139//95
f 134//96 129//84 130//84 136//97
f 129//98 131//98 132//98 130//98
f 136//97 138//99 135//99 134//96
f 138//100 137//101 133//102 135//100
f 139//95 141//103 144//103 143//94
f 141//104 140//105 142//106 144//104
f 140//105 133//102 137//101 142//106
f 152//5 154//5 153//5 158//5 160//5 159//5 148//5 146//5
f 155//14 157//14 156//14 149//14 151//14 150//14 145//14 147//14
f 159//79 155//80 147//81 148//81
f 150//82 152//83 146//84 145//84
f 145//85 146//85 148//85 147//85
f 152//83 150//82 151//86 154//86
f 154//87 151//87 149//88 153//89
f 155//80 159//79 160//90 157//90
f 157//91 160//91 158//92 156//93
f 156//93 158//92 153//89 149//88
f 168//5 162//5 164//5 175//5 176//5 174//5 169//5 170//5
f 171//14 163//14 161//14 166//14 167//14 165//14 172//14 173//14
f 175//94 164//81 163//81 171//95
f 166//96 161//84 162//84 168//97
f 161//98 163//98 164//98 162//98
f 168//97 170//99 167//99 166//96
f 170//100 169//101 165//102 167//100
f 171//95 173//103 176//103 175//94
f 173//104 172//105 174//106 176//104
f 172//105 165//102 169//101 174//106
usemtl DarkGrey
f 182//107 184//107 185//107 178//107
f 181//108 182//108 178//108 179//108
f 177//109 181//109 179//109 180//109
f 180//14 179//14 178//14 185//14 186//14
f 183//110 186//110 185//110 184//110
f 183//111 177//111 180//111 186//111
f 192//112 188//112 195//112 194//112
f 191//108 189//108 188//108 192//108
f 187//113 190//113 189//113 191//113
f 190//14 196//14 195//14 188//14 189//14
f 193//114 194//114 195//114 196//114
f 193//111 196//111 190//111 187//111
f 202//107 198//107 205//107 204//107
f 201//115 199//115 198//115 202//115
f 197//109 200//109 199//109 201//109
f 200//14 206//14 205//14 198//14 199//14
f 203//116 204//116 205//116 206//116
f 203//117 206//117 200//117 197//117
f 212//112 214//112 215//112 208//112
f 211//115 212//115 208//115 209//115
f 207//113 211//113 209//113 210//113
f 210//14 209//14 208//14 215//14 216//14
f 213//118 216//118 215//118 214//118
f 213//117 207//117 210//117 216//117
