# Blender v2.79 (sub 0) OBJ File: 'Details_Pipes_Small.blend'
# www.blender.org
mtllib Details_Pipes_Small.mtl
o Details_Pipes_Small_Cube.057
v -0.121808 0.045017 -0.038058
v -0.121809 0.016169 -0.026107
v -0.121809 0.004217 0.002742
v -0.121808 0.085817 0.002742
v -0.121809 0.073866 -0.026107
v -0.121808 0.045017 0.043541
v -0.121809 0.073866 0.031590
v -0.121808 0.016169 0.031590
v -0.069611 0.045017 -0.048604
v -0.069611 0.008713 -0.033563
v -0.069611 -0.006329 0.002742
v -0.069611 0.096363 0.002742
v -0.069611 0.081322 -0.033564
v -0.069611 0.045017 0.054087
v -0.069611 0.081322 0.039046
v -0.069611 0.008713 0.039046
v -0.069611 0.019582 0.028177
v -0.069611 0.070453 0.028177
v -0.069611 0.045017 0.038714
v -0.069611 0.070453 -0.022694
v -0.069611 0.080990 0.002742
v -0.069611 0.009044 0.002742
v -0.069611 0.019582 -0.022694
v -0.069611 0.045017 -0.033231
v -0.102546 0.045017 -0.033231
v -0.102545 0.019582 -0.022694
v -0.102545 0.009044 0.002742
v -0.102545 0.080990 0.002742
v -0.102545 0.070453 -0.022694
v -0.102546 0.045017 0.038714
v -0.102545 0.070453 0.028177
v -0.102545 0.019582 0.028177
v -0.102545 0.016169 0.031590
v -0.102545 0.073866 0.031590
v -0.102545 0.045017 0.043541
v -0.102545 0.073866 -0.026107
v -0.102545 0.085817 0.002742
v -0.102545 0.004217 0.002742
v -0.102545 0.016169 -0.026107
v -0.102546 0.045017 -0.038058
v -0.049260 0.045017 -0.048604
v -0.049260 0.008713 -0.033563
v -0.049260 -0.006329 0.002742
v -0.049260 0.096363 0.002742
v -0.049260 0.081322 -0.033564
v -0.049260 0.045017 0.054087
v -0.049260 0.081322 0.039046
v -0.049260 0.008713 0.039046
v -0.049260 0.045017 -0.035441
v -0.049260 0.018020 -0.024256
v -0.049260 0.006834 0.002742
v -0.049260 0.083200 0.002742
v -0.049260 0.072015 -0.024256
v -0.049260 0.045017 0.040924
v -0.049260 0.072015 0.029739
v -0.049260 0.018020 0.029739
v 0.110784 0.045017 -0.035441
v 0.110784 0.018020 -0.024256
v 0.110784 0.006834 0.002742
v 0.110784 0.083200 0.002742
v 0.110784 0.072015 -0.024256
v 0.110784 0.045017 0.040924
v 0.110784 0.072015 0.029739
v 0.110784 0.018020 0.029739
v 0.110784 0.045017 -0.041279
v 0.110784 0.013892 -0.028384
v 0.110784 0.000996 0.002742
v 0.110784 0.089038 0.002742
v 0.110784 0.076143 -0.028384
v 0.110784 0.045017 0.046762
v 0.110784 0.076143 0.033867
v 0.110784 0.013892 0.033867
v 0.170423 0.045017 -0.041279
v 0.170423 0.013892 -0.028384
v 0.170423 0.000996 0.002742
v 0.170423 0.089038 0.002742
v 0.170423 0.076143 -0.028384
v 0.170423 0.045017 0.046762
v 0.170423 0.076143 0.033867
v 0.170423 0.013892 0.033867
v -0.056043 0.081322 0.039046
v -0.062827 0.081322 0.039046
v -0.062827 0.045017 0.054087
v -0.056043 0.045017 0.054087
v -0.056043 -0.006329 0.002742
v -0.062827 -0.006329 0.002742
v -0.062827 0.008713 -0.033563
v -0.056043 0.008713 -0.033563
v -0.056043 0.045017 -0.048604
v -0.062827 0.045017 -0.048604
v -0.062827 0.081322 -0.033564
v -0.056043 0.081322 -0.033564
v -0.062827 0.008713 0.039046
v -0.056043 0.008713 0.039046
v -0.056043 0.096363 0.002742
v -0.062827 0.096363 0.002742
v -0.056548 0.075920 0.033645
v -0.062322 0.075920 0.033645
v -0.062322 0.045017 0.046447
v -0.056548 0.045017 0.046447
v -0.056548 0.001311 0.002742
v -0.062322 0.001311 0.002742
v -0.062322 0.014115 -0.028161
v -0.056548 0.014115 -0.028161
v -0.056548 0.045017 -0.040964
v -0.062322 0.045017 -0.040964
v -0.062322 0.075920 -0.028162
v -0.056548 0.075920 -0.028162
v -0.062322 0.014115 0.033644
v -0.056548 0.014115 0.033644
v -0.056548 0.088723 0.002742
v -0.062322 0.088723 0.002742
v -0.121808 -0.045017 -0.038058
v -0.121808 -0.073865 -0.026107
v -0.121808 -0.085818 0.002742
v -0.121809 -0.004217 0.002742
v -0.121808 -0.016169 -0.026107
v -0.121808 -0.045018 0.043541
v -0.121808 -0.016169 0.031590
v -0.121808 -0.073865 0.031590
v 0.022399 -0.045018 -0.048604
v 0.022399 -0.081322 -0.033563
v 0.022399 -0.096364 0.002742
v 0.022399 0.006328 0.002742
v 0.022399 -0.008712 -0.033564
v 0.022399 -0.045018 0.054087
v 0.022399 -0.008712 0.039046
v 0.022399 -0.081322 0.039046
v 0.022399 -0.070452 0.028177
v 0.022399 -0.019582 0.028177
v 0.022399 -0.045017 0.038714
v 0.022399 -0.019582 -0.022694
v 0.022399 -0.009044 0.002742
v 0.022399 -0.080991 0.002742
v 0.022399 -0.070452 -0.022694
v 0.022399 -0.045017 -0.033231
v -0.083031 -0.045018 -0.033231
v -0.083031 -0.070452 -0.022694
v -0.083031 -0.080991 0.002742
v -0.083031 -0.009044 0.002742
v -0.083031 -0.019582 -0.022694
v -0.083031 -0.045018 0.038714
v -0.083031 -0.019582 0.028177
v -0.083031 -0.070452 0.028177
v -0.083031 -0.073865 0.031590
v -0.083031 -0.016169 0.031590
v -0.083031 -0.045018 0.043541
v -0.083031 -0.016169 -0.026107
v -0.083031 -0.004217 0.002742
v -0.083031 -0.085818 0.002742
v -0.083031 -0.073865 -0.026107
v -0.083031 -0.045018 -0.038058
v 0.042751 -0.045018 -0.048604
v 0.042751 -0.081322 -0.033563
v 0.042751 -0.096364 0.002742
v 0.042751 0.006328 0.002742
v 0.042751 -0.008712 -0.033564
v 0.042751 -0.045018 0.054087
v 0.042751 -0.008712 0.039046
v 0.042751 -0.081322 0.039046
v 0.042751 -0.045017 -0.035441
v 0.042751 -0.072015 -0.024256
v 0.042751 -0.083200 0.002742
v 0.042751 -0.006834 0.002742
v 0.042751 -0.018019 -0.024256
v 0.042751 -0.045017 0.040924
v 0.042751 -0.018019 0.029739
v 0.042751 -0.072015 0.029739
v 0.141709 -0.045017 -0.035441
v 0.141709 -0.072015 -0.024256
v 0.141709 -0.083200 0.002742
v 0.141709 -0.006834 0.002742
v 0.141709 -0.018019 -0.024256
v 0.141709 -0.045017 0.040924
v 0.141709 -0.018019 0.029739
v 0.141709 -0.072015 0.029739
v 0.141709 -0.045017 -0.041279
v 0.141709 -0.076142 -0.028384
v 0.141709 -0.089038 0.002742
v 0.141709 -0.000997 0.002742
v 0.141709 -0.013892 -0.028384
v 0.141709 -0.045017 0.046762
v 0.141709 -0.013892 0.033867
v 0.141709 -0.076142 0.033867
v 0.170423 -0.045017 -0.041279
v 0.170423 -0.076142 -0.028384
v 0.170423 -0.089038 0.002742
v 0.170423 -0.000997 0.002742
v 0.170423 -0.013892 -0.028384
v 0.170423 -0.045017 0.046762
v 0.170423 -0.013892 0.033867
v 0.170423 -0.076142 0.033867
v 0.035967 -0.008712 0.039046
v 0.029183 -0.008712 0.039046
v 0.029183 -0.045018 0.054087
v 0.035967 -0.045017 0.054087
v 0.035967 -0.096364 0.002742
v 0.029183 -0.096364 0.002742
v 0.029183 -0.081322 -0.033563
v 0.035967 -0.081322 -0.033563
v 0.035967 -0.045017 -0.048604
v 0.029183 -0.045018 -0.048604
v 0.029183 -0.008712 -0.033564
v 0.035967 -0.008712 -0.033564
v 0.029183 -0.081322 0.039046
v 0.035967 -0.081322 0.039046
v 0.035967 0.006328 0.002742
v 0.029183 0.006328 0.002742
v 0.035462 -0.014114 0.033645
v 0.029688 -0.014114 0.033645
v 0.029688 -0.045018 0.046447
v 0.035462 -0.045017 0.046447
v 0.035462 -0.088724 0.002742
v 0.029688 -0.088724 0.002742
v 0.029688 -0.075920 -0.028161
v 0.035462 -0.075920 -0.028161
v 0.035462 -0.045017 -0.040964
v 0.029688 -0.045018 -0.040964
v 0.029688 -0.014114 -0.028162
v 0.035462 -0.014114 -0.028162
v 0.029688 -0.075920 0.033644
v 0.035462 -0.075920 0.033644
v 0.035462 -0.001311 0.002742
v 0.029688 -0.001311 0.002742
v -0.112786 -0.111171 0.045977
v -0.136630 -0.089411 0.045977
v -0.129646 -0.104798 0.045977
v -0.136630 0.089411 0.045977
v -0.112786 0.111170 0.045977
v -0.129646 0.104797 0.045977
v -0.129740 -0.123082 -0.056107
v -0.153584 -0.101322 -0.056107
v -0.146600 -0.116709 -0.056107
v -0.153584 0.101322 -0.056107
v -0.129740 0.123081 -0.056107
v -0.146600 0.116708 -0.056107
v 0.179849 -0.089411 0.045977
v 0.156004 -0.111171 0.045977
v 0.172865 -0.104798 0.045977
v 0.156004 0.111170 0.045977
v 0.179849 0.089411 0.045977
v 0.172865 0.104797 0.045977
v 0.196803 -0.101322 -0.056107
v 0.172959 -0.123082 -0.056107
v 0.189819 -0.116709 -0.056107
v 0.172959 0.123081 -0.056107
v 0.196803 0.101322 -0.056107
v 0.189819 0.116708 -0.056107
v -0.090162 -0.095277 0.045977
v -0.114006 -0.073517 0.045977
v -0.107022 -0.088903 0.045977
v -0.114006 0.073516 0.045977
v -0.090162 0.095276 0.045977
v -0.107022 0.088903 0.045977
v 0.133381 0.095276 0.045977
v 0.157225 0.073516 0.045977
v 0.150241 0.088903 0.045977
v 0.157225 -0.073517 0.045977
v 0.133381 -0.095277 0.045977
v 0.150241 -0.088903 0.045977
v -0.114006 -0.073517 -0.051321
v -0.090162 -0.095277 -0.051321
v -0.107022 -0.088903 -0.051321
v -0.090162 0.095276 -0.051321
v -0.114006 0.073516 -0.051321
v -0.107022 0.088903 -0.051321
v 0.157225 0.073516 -0.051321
v 0.133381 0.095276 -0.051321
v 0.150241 0.088903 -0.051321
v 0.133381 -0.095277 -0.051321
v 0.157225 -0.073517 -0.051321
v 0.150241 -0.088903 -0.051321
vn -1.0000 -0.0000 -0.0000
vn 1.0000 0.0000 0.0000
vn 0.0000 -0.7071 -0.7071
vn 0.0000 -0.0000 -1.0000
vn -0.0000 1.0000 0.0000
vn -0.0000 0.7071 0.7071
vn -0.0000 0.7071 -0.7071
vn 0.0000 -1.0000 -0.0000
vn 0.0000 -0.7071 0.7071
vn 0.0000 -0.0000 1.0000
vn -0.9978 -0.0659 0.0000
vn -0.9978 -0.0466 0.0466
vn 0.9978 -0.0466 -0.0466
vn 0.9978 -0.0000 -0.0659
vn -0.9978 0.0000 0.0659
vn -0.9978 0.0466 0.0466
vn 0.9978 -0.0466 0.0466
vn 0.9978 -0.0659 -0.0000
vn 0.9978 0.0466 0.0466
vn 0.9978 0.0000 0.0659
vn -0.9978 -0.0466 -0.0466
vn -0.9978 0.0000 -0.0659
vn 0.9978 0.0466 -0.0466
vn 0.9978 0.0659 0.0000
vn -0.9978 0.0659 -0.0000
vn -0.9978 0.0466 -0.0466
vn 0.9585 -0.2175 0.1846
vn 0.9585 0.2175 0.1846
vn 0.9631 0.1975 0.1830
vn 0.9631 -0.1975 0.1830
vn -0.9631 -0.1975 0.1830
vn -0.9631 0.1975 0.1830
vn -0.9585 0.2175 0.1846
vn -0.9585 -0.2175 0.1846
vn -0.1797 -0.9837 0.0000
vn 0.1797 -0.9837 -0.0000
vn 0.9774 -0.2114 0.0000
vn 0.9774 0.2114 -0.0000
vn 0.1930 0.9704 0.1453
vn -0.1930 0.9704 0.1453
vn -0.1619 0.9767 0.1409
vn 0.1619 0.9767 0.1409
vn 0.1797 0.9837 -0.0000
vn -0.1797 0.9837 0.0000
vn -0.9774 0.2114 0.0000
vn -0.9774 -0.2114 0.0000
vn -0.1930 -0.9704 0.1453
vn -0.1619 -0.9767 0.1409
vn -0.6632 -0.7227 0.1945
vn -0.6773 -0.7093 0.1952
vn -0.6773 0.7093 0.1952
vn -0.6632 0.7227 0.1945
vn 0.1619 -0.9767 0.1409
vn 0.1930 -0.9704 0.1453
vn 0.6773 -0.7093 0.1952
vn 0.6632 -0.7227 0.1945
vn 0.6632 0.7227 0.1945
vn 0.6773 0.7093 0.1952
vn -0.6839 0.7296 0.0000
vn 0.6839 0.7296 -0.0000
vn 0.6839 -0.7296 0.0000
vn -0.6839 -0.7296 0.0000
usemtl DarkGrey
s 1
f 23//1 24//1 9//1 10//1
f 24//1 20//1 13//1 9//1
f 20//1 21//1 12//1 13//1
f 21//1 18//1 15//1 12//1
f 18//1 19//1 14//1 15//1
f 19//1 17//1 16//1 14//1
f 22//1 23//1 10//1 11//1
f 17//1 22//1 11//1 16//1
f 39//2 40//2 25//2 26//2
f 37//2 34//2 31//2 28//2
f 35//2 33//2 32//2 30//2
f 33//2 38//2 27//2 32//2
f 38//2 39//2 26//2 27//2
f 34//2 35//2 30//2 31//2
f 40//2 36//2 29//2 25//2
f 36//2 37//2 28//2 29//2
f 2//3 1//4 40//4 39//3
f 4//5 7//6 34//6 37//5
f 1//4 5//7 36//7 40//4
f 3//8 2//3 39//3 38//8
f 5//7 4//5 37//5 36//7
f 8//9 3//8 38//8 33//9
f 6//10 8//9 33//9 35//10
f 7//6 6//10 35//10 34//6
f 81//6 84//10 46//10 47//6
f 85//8 88//3 42//3 43//8
f 89//4 92//7 45//7 41//4
f 88//3 89//4 41//4 42//3
f 84//10 94//9 48//9 46//10
f 95//5 81//6 47//6 44//5
f 92//7 95//5 44//5 45//7
f 94//9 85//8 43//8 48//9
f 43//2 42//2 50//2 51//2
f 47//2 46//2 54//2 55//2
f 41//2 45//2 53//2 49//2
f 45//2 44//2 52//2 53//2
f 42//2 41//2 49//2 50//2
f 44//2 47//2 55//2 52//2
f 48//2 43//2 51//2 56//2
f 46//2 48//2 56//2 54//2
f 61//1 60//1 68//1 69//1
f 58//1 57//1 65//1 66//1
f 60//1 63//1 71//1 68//1
f 64//1 59//1 67//1 72//1
f 62//1 64//1 72//1 70//1
f 59//1 58//1 66//1 67//1
f 63//1 62//1 70//1 71//1
f 57//1 61//1 69//1 65//1
f 71//6 70//10 78//10 79//6
f 65//4 69//7 77//7 73//4
f 69//7 68//5 76//5 77//7
f 66//3 65//4 73//4 74//3
f 68//5 71//6 79//6 76//5
f 72//9 67//8 75//8 80//9
f 70//10 72//9 80//9 78//10
f 67//8 66//3 74//3 75//8
f 16//9 11//8 86//8 93//9
f 85//11 94//12 110//12 101//11
f 13//7 12//5 96//5 91//7
f 87//13 90//14 106//14 103//13
f 12//5 15//6 82//6 96//5
f 84//15 81//16 97//16 100//15
f 14//10 16//9 93//9 83//10
f 93//17 86//18 102//18 109//17
f 10//3 9//4 90//4 87//3
f 94//12 84//15 100//15 110//12
f 9//4 13//7 91//7 90//4
f 82//19 83//20 99//20 98//19
f 11//8 10//3 87//3 86//8
f 83//20 93//17 109//17 99//20
f 15//6 14//10 83//10 82//6
f 88//21 85//11 101//11 104//21
f 109//9 102//8 101//8 110//9
f 107//7 112//5 111//5 108//7
f 112//5 98//6 97//6 111//5
f 99//10 109//9 110//9 100//10
f 103//3 106//4 105//4 104//3
f 106//4 107//7 108//7 105//4
f 102//8 103//3 104//3 101//8
f 98//6 99//10 100//10 97//6
f 89//22 88//21 104//21 105//22
f 91//23 96//24 112//24 107//23
f 90//14 91//23 107//23 106//14
f 95//25 92//26 108//26 111//25
f 92//26 89//22 105//22 108//26
f 96//24 82//19 98//19 112//24
f 86//18 87//13 103//13 102//18
f 81//16 95//25 111//25 97//16
f 135//1 136//1 121//1 122//1
f 136//1 132//1 125//1 121//1
f 132//1 133//1 124//1 125//1
f 133//1 130//1 127//1 124//1
f 130//1 131//1 126//1 127//1
f 131//1 129//1 128//1 126//1
f 134//1 135//1 122//1 123//1
f 129//1 134//1 123//1 128//1
f 151//2 152//2 137//2 138//2
f 149//2 146//2 143//2 140//2
f 147//2 145//2 144//2 142//2
f 145//2 150//2 139//2 144//2
f 150//2 151//2 138//2 139//2
f 146//2 147//2 142//2 143//2
f 152//2 148//2 141//2 137//2
f 148//2 149//2 140//2 141//2
f 114//3 113//4 152//4 151//3
f 116//5 119//6 146//6 149//5
f 113//4 117//7 148//7 152//4
f 115//8 114//3 151//3 150//8
f 117//7 116//5 149//5 148//7
f 120//9 115//8 150//8 145//9
f 118//10 120//9 145//9 147//10
f 119//6 118//10 147//10 146//6
f 193//6 196//10 158//10 159//6
f 197//8 200//3 154//3 155//8
f 201//4 204//7 157//7 153//4
f 200//3 201//4 153//4 154//3
f 196//10 206//9 160//9 158//10
f 207//5 193//6 159//6 156//5
f 204//7 207//5 156//5 157//7
f 206//9 197//8 155//8 160//9
f 155//2 154//2 162//2 163//2
f 159//2 158//2 166//2 167//2
f 153//2 157//2 165//2 161//2
f 157//2 156//2 164//2 165//2
f 154//2 153//2 161//2 162//2
f 156//2 159//2 167//2 164//2
f 160//2 155//2 163//2 168//2
f 158//2 160//2 168//2 166//2
f 173//1 172//1 180//1 181//1
f 170//1 169//1 177//1 178//1
f 172//1 175//1 183//1 180//1
f 176//1 171//1 179//1 184//1
f 174//1 176//1 184//1 182//1
f 171//1 170//1 178//1 179//1
f 175//1 174//1 182//1 183//1
f 169//1 173//1 181//1 177//1
f 183//6 182//10 190//10 191//6
f 177//4 181//7 189//7 185//4
f 181//7 180//5 188//5 189//7
f 178//3 177//4 185//4 186//3
f 180//5 183//6 191//6 188//5
f 184//9 179//8 187//8 192//9
f 182//10 184//9 192//9 190//10
f 179//8 178//3 186//3 187//8
f 128//9 123//8 198//8 205//9
f 197//11 206//12 222//12 213//11
f 125//7 124//5 208//5 203//7
f 199//13 202//14 218//14 215//13
f 124//5 127//6 194//6 208//5
f 196//15 193//16 209//16 212//15
f 126//10 128//9 205//9 195//10
f 205//17 198//18 214//18 221//17
f 122//3 121//4 202//4 199//3
f 206//12 196//15 212//15 222//12
f 121//4 125//7 203//7 202//4
f 194//19 195//20 211//20 210//19
f 123//8 122//3 199//3 198//8
f 195//20 205//17 221//17 211//20
f 127//6 126//10 195//10 194//6
f 200//21 197//11 213//11 216//21
f 221//9 214//8 213//8 222//9
f 219//7 224//5 223//5 220//7
f 224//5 210//6 209//6 223//5
f 211//10 221//9 222//9 212//10
f 215//3 218//4 217//4 216//3
f 218//4 219//7 220//7 217//4
f 214//8 215//3 216//3 213//8
f 210//6 211//10 212//10 209//6
f 201//22 200//21 216//21 217//22
f 203//23 208//24 224//24 219//23
f 202//14 203//23 219//23 218//14
f 207//25 204//26 220//26 223//25
f 204//26 201//22 217//22 220//26
f 208//24 194//19 210//19 224//24
f 198//18 199//13 215//13 214//18
f 193//16 207//25 223//25 209//16
usemtl Accent
f 31//6 30//10 19//10 18//6
f 32//9 27//8 22//8 17//9
f 26//3 25//4 24//4 23//3
f 25//4 29//7 20//7 24//4
f 28//5 31//6 18//6 21//5
f 29//7 28//5 21//5 20//7
f 27//8 26//3 23//3 22//8
f 30//10 32//9 17//9 19//10
f 52//5 55//6 63//6 60//5
f 56//9 51//8 59//8 64//9
f 54//10 56//9 64//9 62//10
f 51//8 50//3 58//3 59//8
f 55//6 54//10 62//10 63//6
f 49//4 53//7 61//7 57//4
f 53//7 52//5 60//5 61//7
f 50//3 49//4 57//4 58//3
f 143//6 142//10 131//10 130//6
f 144//9 139//8 134//8 129//9
f 138//3 137//4 136//4 135//3
f 137//4 141//7 132//7 136//4
f 140//5 143//6 130//6 133//5
f 141//7 140//5 133//5 132//7
f 139//8 138//3 135//3 134//8
f 142//10 144//9 129//9 131//10
f 164//5 167//6 175//6 172//5
f 168//9 163//8 171//8 176//9
f 166//10 168//9 176//9 174//10
f 163//8 162//3 170//3 171//8
f 167//6 166//10 174//10 175//6
f 161//4 165//7 173//7 169//4
f 165//7 164//5 172//5 173//7
f 162//3 161//4 169//4 170//3
usemtl DarkAccent
f 225//10 238//10 259//10 249//10
f 243//27 247//28 241//29 237//30
f 237//10 241//10 256//10 258//10
f 226//31 228//32 234//33 232//34
f 240//10 229//10 253//10 255//10
f 255//35 253//36 264//36 268//35
f 252//37 250//38 261//38 265//37
f 246//39 235//40 229//41 240//42
f 228//10 226//10 250//10 252//10
f 249//43 259//44 270//44 262//43
f 258//45 256//46 267//46 271//45
f 231//47 225//48 227//49 233//50
f 233//50 227//49 226//31 232//34
f 229//41 235//40 236//51 230//52
f 230//52 236//51 234//33 228//32
f 238//53 244//54 245//55 239//56
f 239//56 245//55 243//27 237//30
f 246//39 240//42 242//57 248//58
f 248//58 242//57 241//29 247//28
f 228//10 252//10 254//10 230//10
f 230//10 254//10 253//10 229//10
f 256//10 241//10 242//10 257//10
f 257//10 242//10 240//10 255//10
f 259//10 238//10 239//10 260//10
f 260//10 239//10 237//10 258//10
f 225//10 249//10 251//10 227//10
f 227//10 251//10 250//10 226//10
f 258//45 271//45 272//59 260//59
f 260//59 272//59 270//44 259//44
f 261//38 250//38 251//60 263//60
f 263//60 251//60 249//43 262//43
f 264//36 253//36 254//61 266//61
f 266//61 254//61 252//37 265//37
f 267//46 256//46 257//62 269//62
f 269//62 257//62 255//35 268//35
f 231//47 244//54 238//53 225//48
usemtl Black
f 270//10 272//10 271//10 267//10 269//10 268//10 264//10 266//10 265//10 261//10 263//10 262//10
