# Blender v2.79 (sub 0) OBJ File: 'Details_Plate_Small.blend'
# www.blender.org
mtllib Details_Plate_Small.mtl
o Details_Plate_Small_Cube.036
v -0.131813 0.144889 0.022762
v -0.176240 0.098794 0.022762
v -0.145541 0.142633 0.022762
v -0.157926 0.136086 0.022762
v -0.167755 0.125888 0.022762
v -0.174065 0.113038 0.022762
v 0.176238 0.098794 0.022762
v 0.131811 0.144889 0.022762
v 0.174063 0.113038 0.022762
v 0.167753 0.125888 0.022762
v 0.157924 0.136086 0.022762
v 0.145539 0.142633 0.022762
v -0.176240 -0.098794 0.022762
v -0.131813 -0.144890 0.022762
v -0.174065 -0.113039 0.022762
v -0.167755 -0.125889 0.022762
v -0.157926 -0.136087 0.022762
v -0.145541 -0.142634 0.022762
v 0.131811 -0.144890 0.022762
v 0.176238 -0.098794 0.022762
v 0.145539 -0.142634 0.022762
v 0.157924 -0.136086 0.022762
v 0.167753 -0.125889 0.022762
v 0.174063 -0.113039 0.022762
v -0.152674 -0.161014 0.000000
v -0.197978 -0.114806 0.000000
v -0.166674 -0.158752 0.000000
v -0.179303 -0.152189 0.000000
v -0.189326 -0.141966 -0.000000
v -0.195761 -0.129085 -0.000000
v -0.197978 0.114805 -0.000000
v -0.152674 0.161013 -0.000000
v -0.195761 0.129084 -0.000000
v -0.189326 0.141965 -0.000000
v -0.179303 0.152188 -0.000000
v -0.166674 0.158751 -0.000000
v 0.152672 0.161013 0.000000
v 0.197976 0.114805 -0.000000
v 0.166672 0.158751 0.000000
v 0.179301 0.152188 0.000000
v 0.189324 0.141965 0.000000
v 0.195759 0.129084 0.000000
v 0.197976 -0.114806 0.000000
v 0.152672 -0.161013 0.000000
v 0.195759 -0.129085 0.000000
v 0.189324 -0.141966 0.000000
v 0.179301 -0.152189 0.000000
v 0.166672 -0.158752 0.000000
v -0.102690 0.120226 0.028688
v -0.108220 0.111321 0.007645
v -0.075251 0.120226 0.028688
v -0.069721 0.111321 0.007645
v -0.092479 0.164411 0.028688
v -0.102690 0.153687 0.028688
v -0.099699 0.161270 0.028688
v -0.108220 0.162592 0.007645
v -0.098009 0.173316 0.007645
v -0.105229 0.170175 0.007645
v -0.075251 0.153687 0.028688
v -0.085462 0.164411 0.028688
v -0.078242 0.161270 0.028688
v -0.079932 0.173316 0.007645
v -0.069721 0.162592 0.007645
v -0.072712 0.170175 0.007645
v 0.102688 0.120226 0.028688
v 0.108218 0.111321 0.007645
v 0.075249 0.120226 0.028688
v 0.069719 0.111321 0.007645
v 0.092478 0.164411 0.028688
v 0.102688 0.153688 0.028688
v 0.099698 0.161270 0.028688
v 0.108218 0.162593 0.007645
v 0.098008 0.173316 0.007645
v 0.105227 0.170175 0.007645
v 0.075249 0.153688 0.028688
v 0.085460 0.164411 0.028688
v 0.078240 0.161270 0.028688
v 0.079930 0.173316 0.007645
v 0.069720 0.162593 0.007645
v 0.072710 0.170175 0.007645
v -0.102690 -0.120227 0.028688
v -0.108220 -0.111322 0.007645
v -0.075251 -0.120227 0.028688
v -0.069721 -0.111322 0.007645
v -0.092479 -0.164411 0.028688
v -0.102690 -0.153688 0.028688
v -0.099699 -0.161271 0.028688
v -0.108220 -0.162593 0.007645
v -0.098009 -0.173316 0.007645
v -0.105229 -0.170176 0.007645
v -0.075251 -0.153688 0.028688
v -0.085462 -0.164411 0.028688
v -0.078242 -0.161271 0.028688
v -0.079932 -0.173316 0.007645
v -0.069721 -0.162593 0.007645
v -0.072712 -0.170176 0.007645
v 0.102688 -0.120227 0.028688
v 0.108218 -0.111322 0.007645
v 0.075249 -0.120227 0.028688
v 0.069720 -0.111322 0.007645
v 0.092478 -0.164411 0.028688
v 0.102688 -0.153688 0.028688
v 0.099698 -0.161271 0.028688
v 0.108218 -0.162593 0.007645
v 0.098008 -0.173316 0.007645
v 0.105227 -0.170176 0.007645
v 0.075249 -0.153688 0.028688
v 0.085460 -0.164411 0.028688
v 0.078240 -0.161271 0.028688
v 0.079930 -0.173316 0.007645
v 0.069719 -0.162593 0.007645
v 0.072710 -0.170176 0.007645
v -0.140490 -0.081159 0.022762
v -0.142519 -0.067867 0.022762
v -0.134601 -0.093150 0.022762
v -0.125430 -0.102666 0.022762
v -0.113873 -0.108775 0.022762
v -0.101062 -0.110880 0.022762
v 0.142517 -0.067867 0.022762
v 0.140488 -0.081159 0.022762
v 0.134600 -0.093149 0.022762
v 0.125428 -0.102665 0.022762
v 0.113871 -0.108775 0.022762
v 0.101060 -0.110880 0.022762
v 0.140488 0.081158 0.022762
v 0.142517 0.067866 0.022762
v 0.134600 0.093149 0.022762
v 0.125428 0.102665 0.022762
v 0.113871 0.108775 0.022762
v 0.101060 0.110880 0.022762
v -0.142519 0.067866 0.022762
v -0.140490 0.081158 0.022762
v -0.134602 0.093149 0.022762
v -0.125430 0.102665 0.022762
v -0.113873 0.108774 0.022762
v -0.101062 0.110880 0.022762
v -0.133874 -0.074877 0.016893
v -0.135875 -0.061773 0.016893
v -0.128069 -0.086699 0.016893
v -0.119027 -0.096080 0.016893
v -0.107633 -0.102104 0.016893
v -0.095003 -0.104179 0.016893
v 0.135873 -0.061773 0.016893
v 0.133873 -0.074877 0.016893
v 0.128067 -0.086699 0.016893
v 0.119025 -0.096080 0.016893
v 0.107631 -0.102104 0.016893
v 0.095002 -0.104179 0.016893
v 0.133873 0.074877 0.016893
v 0.135873 0.061772 0.016893
v 0.128067 0.086698 0.016893
v 0.119025 0.096080 0.016893
v 0.107631 0.102103 0.016893
v 0.095002 0.104179 0.016893
v -0.135875 0.061772 0.016893
v -0.133874 0.074876 0.016893
v -0.128069 0.086698 0.016893
v -0.119027 0.096080 0.016893
v -0.107633 0.102103 0.016893
v -0.095003 0.104178 0.016893
vn -0.0390 0.7981 0.6013
vn 0.0390 0.7981 0.6013
vn 0.0855 0.7742 0.6272
vn -0.0855 0.7742 0.6272
vn 0.0000 -0.0000 -1.0000
vn 0.7089 0.0391 0.7043
vn 0.7089 -0.0391 0.7043
vn 0.6978 -0.0670 0.7132
vn 0.6978 0.0670 0.7132
vn 0.0390 -0.7981 0.6013
vn -0.0390 -0.7981 0.6013
vn -0.0855 -0.7742 0.6272
vn 0.0855 -0.7742 0.6272
vn -0.0000 0.0000 1.0000
vn -0.7089 -0.0391 0.7043
vn -0.6978 -0.0670 0.7132
vn -0.6277 -0.2139 0.7485
vn -0.6434 -0.1843 0.7430
vn -0.5269 -0.3739 0.7633
vn -0.5283 -0.3719 0.7632
vn -0.4056 -0.5218 0.7505
vn -0.3853 -0.5432 0.7460
vn -0.2520 -0.6635 0.7045
vn -0.1967 -0.7046 0.6818
vn 0.6434 -0.1843 0.7430
vn 0.6277 -0.2139 0.7485
vn 0.5283 -0.3719 0.7632
vn 0.5269 -0.3739 0.7633
vn 0.3853 -0.5432 0.7460
vn 0.4056 -0.5218 0.7505
vn 0.1967 -0.7046 0.6818
vn 0.2520 -0.6635 0.7045
vn 0.6277 0.2139 0.7485
vn 0.6434 0.1843 0.7430
vn 0.5269 0.3739 0.7633
vn 0.5283 0.3719 0.7632
vn 0.4056 0.5218 0.7505
vn 0.3853 0.5432 0.7460
vn 0.2520 0.6635 0.7045
vn 0.1967 0.7046 0.6818
vn -0.6978 0.0670 0.7132
vn -0.7089 0.0391 0.7043
vn -0.6434 0.1843 0.7430
vn -0.6277 0.2139 0.7485
vn -0.5283 0.3719 0.7632
vn -0.5269 0.3739 0.7633
vn -0.3853 0.5432 0.7460
vn -0.4056 0.5218 0.7505
vn -0.1967 0.7046 0.6818
vn -0.2520 0.6635 0.7045
vn 0.3294 0.4292 0.8410
vn 0.1997 0.5352 0.8208
vn 0.1632 0.5612 0.8114
vn 0.3206 0.4371 0.8403
vn 0.1997 -0.5352 0.8208
vn 0.3294 -0.4292 0.8410
vn 0.3206 -0.4371 0.8403
vn 0.1632 -0.5612 0.8114
vn -0.5440 -0.1905 0.8172
vn -0.4408 -0.3174 0.8396
vn -0.4511 -0.3059 0.8384
vn -0.5703 -0.1533 0.8070
vn 0.0672 0.6223 0.7799
vn 0.0334 0.6412 0.7666
vn 0.0672 -0.6223 0.7799
vn 0.0334 -0.6412 0.7666
vn -0.3294 -0.4292 0.8410
vn -0.3206 -0.4371 0.8403
vn -0.5440 0.1905 0.8172
vn -0.6274 0.0634 0.7761
vn -0.6456 0.0310 0.7631
vn -0.5703 0.1533 0.8070
vn 0.6274 -0.0634 0.7761
vn 0.6274 0.0634 0.7761
vn 0.6456 0.0310 0.7631
vn 0.6456 -0.0310 0.7631
vn -0.1997 -0.5352 0.8208
vn -0.1632 -0.5612 0.8114
vn -0.4408 0.3174 0.8396
vn -0.4511 0.3059 0.8384
vn -0.0673 -0.6223 0.7799
vn -0.0334 -0.6412 0.7666
vn -0.3294 0.4292 0.8410
vn -0.3206 0.4371 0.8403
vn -0.0673 0.6223 0.7799
vn -0.0334 0.6412 0.7666
vn 0.5440 0.1905 0.8172
vn 0.5703 0.1533 0.8070
vn 0.5440 -0.1905 0.8172
vn 0.5703 -0.1533 0.8070
vn -0.1997 0.5352 0.8208
vn -0.1632 0.5612 0.8114
vn -0.6274 -0.0634 0.7761
vn -0.6456 -0.0310 0.7631
vn 0.4408 0.3174 0.8396
vn 0.4511 0.3059 0.8384
vn 0.4408 -0.3174 0.8396
vn 0.4511 -0.3059 0.8384
vn 0.9197 0.2110 0.3310
vn 0.9419 0.1383 0.3061
vn 0.9672 -0.0000 0.2542
vn -0.9419 0.1383 0.3061
vn -0.9197 0.2110 0.3310
vn -0.9672 -0.0000 0.2542
vn 0.0000 -0.9209 0.3897
vn -0.8638 0.3407 0.3712
vn -0.3578 0.8225 0.4421
vn -0.1655 0.8919 0.4209
vn -0.2006 0.8822 0.4260
vn 0.8638 0.3407 0.3712
vn 0.3578 0.8225 0.4421
vn 0.2006 0.8822 0.4260
vn 0.1655 0.8919 0.4209
vn 0.9197 -0.2110 0.3310
vn 0.9419 -0.1383 0.3061
vn -0.9419 -0.1383 0.3061
vn -0.9197 -0.2110 0.3310
vn -0.0000 0.9209 0.3897
vn -0.8638 -0.3407 0.3712
vn -0.3578 -0.8225 0.4421
vn -0.2006 -0.8822 0.4260
vn -0.1655 -0.8919 0.4209
vn 0.8638 -0.3407 0.3712
vn 0.3578 -0.8225 0.4421
vn 0.1655 -0.8919 0.4209
vn 0.2006 -0.8822 0.4260
usemtl Main
s 1
f 1//1 8//2 37//3 32//4
f 31//5 33//5 34//5 35//5 36//5 32//5 37//5 39//5 40//5 41//5 42//5 38//5 43//5 45//5 46//5 47//5 48//5 44//5 25//5 27//5 28//5 29//5 30//5 26//5
f 7//6 20//7 43//8 38//9
f 19//10 14//11 25//12 44//13
f 10//14 11//14 128//14 127//14
f 13//15 26//16 30//17 15//18
f 15//18 30//17 29//19 16//20
f 16//20 29//19 28//21 17//22
f 17//22 28//21 27//23 18//24
f 18//24 27//23 25//12 14//11
f 43//8 20//7 24//25 45//26
f 45//26 24//25 23//27 46//28
f 46//28 23//27 22//29 47//30
f 47//30 22//29 21//31 48//32
f 48//32 21//31 19//10 44//13
f 7//6 38//9 42//33 9//34
f 9//34 42//33 41//35 10//36
f 10//36 41//35 40//37 11//38
f 11//38 40//37 39//39 12//40
f 12//40 39//39 37//3 8//2
f 31//41 2//42 6//43 33//44
f 33//44 6//43 5//45 34//46
f 34//46 5//45 4//47 35//48
f 35//48 4//47 3//49 36//50
f 36//50 3//49 1//1 32//4
f 13//15 2//42 31//41 26//16
f 116//51 117//52 141//53 140//54
f 7//14 9//14 125//14 126//14
f 17//14 18//14 117//14 116//14
f 1//14 3//14 135//14 136//14
f 24//14 20//14 119//14 120//14
f 15//14 16//14 115//14 113//14
f 4//14 5//14 133//14 134//14
f 2//14 13//14 114//14 131//14
f 21//14 22//14 122//14 123//14
f 11//14 12//14 129//14 128//14
f 6//14 2//14 131//14 132//14
f 18//14 14//14 118//14 117//14
f 23//14 24//14 120//14 121//14
f 9//14 10//14 127//14 125//14
f 8//14 1//14 136//14 130//14
f 16//14 17//14 116//14 115//14
f 3//14 4//14 134//14 135//14
f 13//14 15//14 113//14 114//14
f 14//14 19//14 124//14 118//14
f 19//14 21//14 123//14 124//14
f 12//14 8//14 130//14 129//14
f 5//14 6//14 132//14 133//14
f 20//14 7//14 126//14 119//14
f 22//14 23//14 121//14 122//14
f 160//14 159//14 158//14 157//14 156//14 155//14 138//14 137//14 139//14 140//14 141//14 142//14 148//14 147//14 146//14 145//14 144//14 143//14 150//14 149//14 151//14 152//14 153//14 154//14
f 135//55 134//56 158//57 159//58
f 125//59 127//60 151//61 149//62
f 117//52 118//63 142//64 141//53
f 136//65 135//55 159//58 160//66
f 127//60 128//67 152//68 151//61
f 120//69 119//70 143//71 144//72
f 131//73 114//74 138//75 155//76
f 128//67 129//77 153//78 152//68
f 121//79 120//69 144//72 145//80
f 130//81 136//65 160//66 154//82
f 129//77 130//81 154//82 153//78
f 122//83 121//79 145//80 146//84
f 118//63 124//85 148//86 142//64
f 114//74 113//87 137//88 138//75
f 132//89 131//73 155//76 156//90
f 123//91 122//83 146//84 147//92
f 119//70 126//93 150//94 143//71
f 113//87 115//95 139//96 137//88
f 133//97 132//89 156//90 157//98
f 124//85 123//91 147//92 148//86
f 115//95 116//51 140//54 139//96
f 134//56 133//97 157//98 158//57
f 126//93 125//59 149//62 150//94
usemtl Accent
f 56//5 58//5 57//5 62//5 64//5 63//5 52//5 50//5
f 59//14 61//14 60//14 53//14 55//14 54//14 49//14 51//14
f 63//99 59//100 51//101 52//101
f 54//102 56//103 50//104 49//104
f 49//105 50//105 52//105 51//105
f 56//103 54//102 55//106 58//106
f 58//107 55//107 53//108 57//109
f 59//100 63//99 64//110 61//110
f 61//111 64//111 62//112 60//113
f 60//113 62//112 57//109 53//108
f 72//5 66//5 68//5 79//5 80//5 78//5 73//5 74//5
f 75//14 67//14 65//14 70//14 71//14 69//14 76//14 77//14
f 79//103 68//104 67//104 75//102
f 70//100 65//101 66//101 72//99
f 65//105 67//105 68//105 66//105
f 72//99 74//110 71//110 70//100
f 74//111 73//112 69//113 71//111
f 75//102 77//106 80//106 79//103
f 77//107 76//108 78//109 80//107
f 76//108 69//113 73//112 78//109
f 88//5 82//5 84//5 95//5 96//5 94//5 89//5 90//5
f 91//14 83//14 81//14 86//14 87//14 85//14 92//14 93//14
f 95//114 84//101 83//101 91//115
f 86//116 81//104 82//104 88//117
f 81//118 83//118 84//118 82//118
f 88//117 90//119 87//119 86//116
f 90//120 89//121 85//122 87//120
f 91//115 93//123 96//123 95//114
f 93//124 92//125 94//126 96//124
f 92//125 85//122 89//121 94//126
f 104//5 106//5 105//5 110//5 112//5 111//5 100//5 98//5
f 107//14 109//14 108//14 101//14 103//14 102//14 97//14 99//14
f 111//117 107//116 99//104 100//104
f 102//115 104//114 98//101 97//101
f 97//118 98//118 100//118 99//118
f 104//114 102//115 103//123 106//123
f 106//124 103//124 101//125 105//126
f 107//116 111//117 112//119 109//119
f 109//120 112//120 110//121 108//122
f 108//122 110//121 105//126 101//125
