# Blender v2.79 (sub 0) OBJ File: 'Details_Basic_4.blend'
# www.blender.org
mtllib Details_Basic_4.mtl
o Details_Basic_4_Cube.056
v -0.303432 0.047049 0.015186
v 0.339738 0.052678 -0.052848
v 0.303432 0.047049 0.015186
v -0.339738 0.052678 -0.052848
v -0.303432 -0.035013 0.015186
v -0.339738 -0.039202 -0.052848
v 0.339738 -0.039202 -0.052848
v 0.303432 -0.035013 0.015186
v -0.303432 -0.134601 0.015186
v -0.229362 -0.208671 0.015186
v -0.229362 0.202653 0.015186
v -0.303432 0.128584 0.015186
v -0.256806 -0.233639 -0.052848
v -0.339738 -0.150706 -0.052848
v -0.339738 0.143969 -0.052848
v -0.256806 0.226902 -0.052848
v 0.229362 -0.208671 0.015186
v 0.303432 -0.134601 0.015186
v 0.303431 0.128584 0.015186
v 0.229362 0.202653 0.015186
v 0.339738 -0.150707 -0.052848
v 0.256806 -0.233639 -0.052848
v 0.256806 0.226902 -0.052848
v 0.339738 0.143969 -0.052848
v -0.277018 -0.030326 0.015186
v -0.277018 0.040751 0.015186
v 0.277018 -0.030326 0.015186
v 0.277018 -0.116585 0.015186
v -0.277018 -0.116585 0.015186
v 0.277018 0.040752 0.015186
v -0.208486 -0.180741 0.015186
v -0.277018 0.111373 0.015186
v -0.208486 0.175529 0.015186
v 0.208486 -0.180741 0.015186
v 0.208486 0.175529 0.015186
v 0.277018 0.111373 0.015186
v -0.249170 -0.026539 0.015186
v -0.249170 0.035662 0.015186
v 0.249170 -0.026538 0.015186
v 0.249170 -0.102024 0.015186
v -0.249170 -0.102024 0.015186
v 0.249170 0.035662 0.015186
v -0.186476 -0.158166 0.015186
v -0.249170 0.097463 0.015186
v -0.186476 0.153606 0.015186
v 0.186476 -0.158166 0.015186
v 0.186476 0.153606 0.015186
v 0.249170 0.097463 0.015186
v -0.255389 -0.104146 0.003645
v -0.267963 -0.113355 0.003645
v 0.267962 -0.113355 0.003645
v 0.267962 -0.029486 0.003645
v -0.267962 -0.029486 0.003645
v -0.201329 -0.175734 0.003645
v -0.267962 0.108288 0.003645
v -0.201329 0.170666 0.003645
v 0.201329 -0.175734 0.003645
v 0.201329 0.170666 0.003645
v 0.267962 0.108288 0.003645
v -0.267962 0.039622 0.003645
v 0.267962 0.039623 0.003645
v -0.191392 -0.161456 0.003645
v 0.255389 -0.104146 0.003645
v 0.255389 -0.027090 0.003645
v -0.255389 -0.027091 0.003645
v -0.255389 0.099490 0.003645
v -0.191392 0.156800 0.003645
v 0.191392 -0.161456 0.003645
v 0.191392 0.156800 0.003645
v 0.255389 0.099490 0.003645
v -0.255389 0.036403 0.003645
v 0.255389 0.036403 0.003645
vn 0.0000 0.0000 1.0000
vn 0.8822 0.0000 0.4708
vn -0.0000 0.9638 0.2668
vn -0.0000 0.9420 0.3357
vn -0.8822 0.0000 0.4708
vn 0.0000 -0.0000 -1.0000
vn -0.6210 -0.6210 0.4784
vn -0.6229 0.6229 0.4733
vn 0.6210 -0.6210 0.4784
vn 0.6229 0.6229 0.4733
vn 0.0000 -0.9388 0.3445
vn 0.5516 -0.5892 0.5904
vn 0.8803 0.0000 0.4744
vn 0.5492 0.5867 0.5951
vn -0.8803 -0.0000 0.4744
vn 0.0000 -0.9215 0.3883
vn -0.7867 0.0000 0.6173
vn 0.0000 -0.9617 0.2741
vn -0.5975 -0.6672 0.4447
vn 0.1512 -0.9885 0.0062
vn -0.5492 0.5867 0.5951
vn -0.5990 0.6689 0.4403
vn 0.2013 0.9795 0.0083
vn -0.5516 -0.5892 0.5904
vn 0.5975 -0.6672 0.4447
vn -0.2013 0.9795 0.0083
vn -0.0000 0.9174 0.3980
vn 0.5990 0.6689 0.4403
vn 0.7867 0.0000 0.6173
vn -0.1512 -0.9885 0.0062
usemtl Accent
s 1
f 19//1 20//1 35//1 36//1
f 21//2 7//2 8//2 18//2
f 45//3 47//3 69//3 67//3
f 23//4 16//4 11//4 20//4
f 9//5 5//5 6//5 14//5
f 13//6 14//6 6//6 7//6 21//6 22//6
f 13//7 10//7 9//7 14//7
f 11//8 16//8 15//8 12//8
f 17//9 22//9 21//9 18//9
f 23//10 20//10 19//10 24//10
f 13//11 22//11 17//11 10//11
f 7//6 6//6 4//6 2//6
f 10//1 17//1 34//1 31//1
f 6//5 5//5 1//5 4//5
f 8//2 7//2 2//2 3//2
f 3//1 19//1 36//1 30//1
f 4//5 1//5 12//5 15//5
f 3//2 2//2 24//2 19//2
f 2//6 4//6 15//6 16//6 23//6 24//6
f 33//12 32//12 55//12 56//12
f 48//13 42//13 72//13 70//13
f 20//1 11//1 33//1 35//1
f 11//1 12//1 32//1 33//1
f 18//1 8//1 27//1 28//1
f 12//1 1//1 26//1 32//1
f 17//1 18//1 28//1 34//1
f 8//1 3//1 30//1 27//1
f 1//1 5//1 25//1 26//1
f 5//1 9//1 29//1 25//1
f 9//1 10//1 31//1 29//1
f 46//1 40//1 39//1 37//1 41//1 43//1
f 37//1 39//1 42//1 38//1
f 38//1 42//1 48//1 47//1 45//1 44//1
f 29//14 31//14 54//14 50//14
f 41//15 37//15 65//15 49//15
f 35//16 33//16 56//16 58//16
f 38//15 44//15 66//15 71//15
f 26//1 25//1 37//1 38//1
f 39//13 40//13 63//13 64//13
f 27//1 30//1 42//1 39//1
f 30//17 36//17 59//17 61//17
f 46//18 43//18 62//18 68//18
f 43//19 41//19 49//19 62//19
f 37//20 25//20 53//20 65//20
f 34//21 28//21 51//21 57//21
f 44//22 45//22 67//22 66//22
f 26//23 38//23 71//23 60//23
f 36//24 35//24 58//24 59//24
f 40//25 46//25 68//25 63//25
f 42//26 30//26 61//26 72//26
f 31//27 34//27 57//27 54//27
f 28//17 27//17 52//17 51//17
f 47//28 48//28 70//28 69//28
f 32//29 26//29 60//29 55//29
f 27//30 39//30 64//30 52//30
f 25//29 29//29 50//29 53//29
usemtl DarkAccent
f 51//1 52//1 64//1 63//1
f 58//1 56//1 67//1 69//1
f 50//1 54//1 62//1 49//1
f 54//1 57//1 68//1 62//1
f 56//1 55//1 66//1 67//1
f 53//1 50//1 49//1 65//1
f 55//1 60//1 71//1 66//1
f 57//1 51//1 63//1 68//1
f 61//1 59//1 70//1 72//1
f 59//1 58//1 69//1 70//1
