# Blender v2.79 (sub 0) OBJ File: 'Details_Hexagon.blend'
# www.blender.org
mtllib Details_Hexagon.mtl
o Details_Hexagon_Cube.049
v 0.000000 0.197190 -0.054734
v 0.000000 0.144115 0.017896
v -0.170772 0.098595 -0.054734
v -0.124808 0.072057 0.017896
v -0.170772 -0.098596 -0.054734
v -0.124808 -0.072058 0.017896
v 0.000000 -0.197191 -0.054734
v 0.000000 -0.144116 0.017896
v 0.170772 -0.098596 -0.054734
v 0.124808 -0.072058 0.017896
v 0.170772 0.098595 -0.054734
v 0.124808 0.072057 0.017896
v -0.107705 0.062183 0.017896
v 0.000000 0.124367 0.017896
v -0.107705 -0.062184 0.017896
v 0.000000 -0.124368 0.017896
v 0.107706 -0.062184 0.017896
v 0.107706 0.062183 0.017896
v -0.099474 0.057431 -0.005322
v 0.000000 0.114862 -0.005322
v -0.099474 -0.057432 -0.005322
v 0.000000 -0.114863 -0.005322
v 0.099474 -0.057432 -0.005322
v 0.099474 0.057431 -0.005322
v -0.093445 0.053950 0.024264
v 0.000000 0.107901 0.024264
v -0.093445 -0.053951 0.024264
v 0.000000 -0.107901 0.024265
v 0.093445 -0.053951 0.024265
v 0.093445 0.053950 0.024265
vn -0.4225 0.7318 0.5348
vn -0.8450 -0.0000 0.5348
vn -0.4225 -0.7318 0.5348
vn 0.4225 -0.7318 0.5348
vn -0.0000 0.0000 1.0000
vn 0.8450 -0.0000 0.5348
vn 0.4225 0.7318 0.5348
vn 0.0000 0.0000 -1.0000
vn -0.4713 -0.8162 0.3342
vn 0.9799 0.0000 0.1997
vn -0.4713 0.8162 0.3342
vn 0.9425 0.0000 0.3342
vn -0.9425 -0.0000 0.3342
vn 0.4713 0.8162 0.3342
vn 0.4713 -0.8162 0.3342
vn -0.4899 -0.8486 0.1997
vn -0.4899 0.8486 0.1997
vn 0.4899 0.8486 0.1997
vn 0.4899 -0.8486 0.1997
vn -0.9799 -0.0000 0.1997
usemtl Main
s 1
f 1//1 3//1 4//1 2//1
f 3//2 5//2 6//2 4//2
f 5//3 7//3 8//3 6//3
f 7//4 9//4 10//4 8//4
f 6//5 15//5 13//5 4//5
f 9//6 11//6 12//6 10//6
f 11//7 1//7 2//7 12//7
f 1//8 11//8 9//8 7//8 5//8 3//8
f 14//9 20//9 24//9 18//9
f 12//5 18//5 17//5 10//5
f 4//5 13//5 14//5 2//5
f 8//5 16//5 15//5 6//5
f 2//5 14//5 18//5 12//5
f 10//5 17//5 16//5 8//5
f 24//10 30//10 29//10 23//10
f 17//11 23//11 22//11 16//11
f 15//12 21//12 19//12 13//12
f 18//13 24//13 23//13 17//13
f 16//14 22//14 21//14 15//14
f 13//15 19//15 20//15 14//15
f 25//5 27//5 28//5 29//5 30//5 26//5
f 22//16 28//16 27//16 21//16
f 19//17 25//17 26//17 20//17
f 20//18 26//18 30//18 24//18
f 23//19 29//19 28//19 22//19
f 21//20 27//20 25//20 19//20
