# Blender v2.79 (sub 0) OBJ File: 'Details_Plate_Long.blend'
# www.blender.org
mtllib Details_Plate_Long.mtl
o Details_Plate_Long_Cube.035
v -0.459909 0.144889 0.022762
v -0.504336 0.098794 0.022762
v -0.473638 0.142633 0.022762
v -0.486023 0.136086 0.022762
v -0.495851 0.125888 0.022762
v -0.502162 0.113038 0.022762
v 0.504328 0.098794 0.022762
v 0.459901 0.144889 0.022762
v 0.502154 0.113038 0.022762
v 0.495844 0.125888 0.022762
v 0.486015 0.136086 0.022762
v 0.473630 0.142633 0.022762
v -0.504336 -0.098794 0.022762
v -0.459909 -0.144890 0.022762
v -0.502162 -0.113039 0.022762
v -0.495851 -0.125889 0.022762
v -0.486023 -0.136087 0.022762
v -0.473638 -0.142634 0.022762
v 0.459901 -0.144890 0.022762
v 0.504329 -0.098794 0.022762
v 0.473630 -0.142634 0.022762
v 0.486015 -0.136086 0.022762
v 0.495844 -0.125889 0.022762
v 0.502154 -0.113039 0.022762
v -0.480770 -0.161014 0.000000
v -0.526075 -0.114806 0.000000
v -0.494770 -0.158752 0.000000
v -0.507400 -0.152189 0.000000
v -0.517422 -0.141966 -0.000000
v -0.523857 -0.129085 -0.000000
v -0.526075 0.114805 -0.000000
v -0.480770 0.161013 -0.000000
v -0.523858 0.129084 -0.000000
v -0.517422 0.141965 -0.000000
v -0.507400 0.152188 -0.000000
v -0.494770 0.158751 -0.000000
v 0.480763 0.161013 0.000000
v 0.526067 0.114805 0.000000
v 0.494762 0.158751 0.000000
v 0.507392 0.152188 0.000000
v 0.517415 0.141965 0.000000
v 0.523850 0.129084 0.000000
v 0.526067 -0.114806 0.000000
v 0.480763 -0.161013 0.000000
v 0.523850 -0.129085 0.000000
v 0.517415 -0.141966 0.000000
v 0.507392 -0.152189 0.000000
v 0.494763 -0.158752 0.000000
v -0.430786 0.120226 0.028688
v -0.436316 0.111321 0.007645
v -0.403348 0.120226 0.028688
v -0.397818 0.111321 0.007645
v -0.420576 0.164411 0.028688
v -0.430787 0.153687 0.028688
v -0.427796 0.161270 0.028688
v -0.436316 0.162592 0.007645
v -0.426106 0.173316 0.007645
v -0.433326 0.170175 0.007645
v -0.403348 0.153687 0.028688
v -0.413558 0.164411 0.028688
v -0.406338 0.161270 0.028688
v -0.408028 0.173316 0.007645
v -0.397818 0.162592 0.007645
v -0.400808 0.170175 0.007645
v 0.430779 0.120226 0.028688
v 0.436309 0.111321 0.007645
v 0.403340 0.120226 0.028688
v 0.397810 0.111321 0.007645
v 0.420568 0.164411 0.028688
v 0.430779 0.153688 0.028688
v 0.427788 0.161270 0.028688
v 0.436309 0.162593 0.007645
v 0.426098 0.173316 0.007645
v 0.433318 0.170175 0.007645
v 0.403340 0.153688 0.028688
v 0.413551 0.164411 0.028688
v 0.406331 0.161270 0.028688
v 0.408021 0.173316 0.007645
v 0.397810 0.162593 0.007645
v 0.400801 0.170175 0.007645
v -0.430786 -0.120227 0.028688
v -0.436316 -0.111322 0.007645
v -0.403348 -0.120227 0.028688
v -0.397818 -0.111322 0.007645
v -0.420576 -0.164411 0.028688
v -0.430786 -0.153688 0.028688
v -0.427796 -0.161271 0.028688
v -0.436316 -0.162593 0.007645
v -0.426106 -0.173316 0.007645
v -0.433326 -0.170176 0.007645
v -0.403348 -0.153688 0.028688
v -0.413558 -0.164411 0.028688
v -0.406338 -0.161271 0.028688
v -0.408028 -0.173316 0.007645
v -0.397818 -0.162593 0.007645
v -0.400808 -0.170176 0.007645
v 0.430779 -0.120227 0.028688
v 0.436309 -0.111322 0.007645
v 0.403340 -0.120227 0.028688
v 0.397810 -0.111322 0.007645
v 0.420568 -0.164411 0.028688
v 0.430779 -0.153688 0.028688
v 0.427788 -0.161271 0.028688
v 0.436309 -0.162593 0.007645
v 0.426098 -0.173316 0.007645
v 0.433318 -0.170176 0.007645
v 0.403340 -0.153688 0.028688
v 0.413551 -0.164411 0.028688
v 0.406331 -0.161271 0.028688
v 0.408021 -0.173316 0.007645
v 0.397810 -0.162593 0.007645
v 0.400801 -0.170176 0.007645
v -0.013723 0.121788 0.028688
v -0.019253 0.112883 0.007645
v 0.013716 0.121788 0.028688
v 0.019246 0.112883 0.007645
v -0.003513 0.165973 0.028688
v -0.013723 0.155250 0.028688
v -0.010733 0.162832 0.028688
v -0.019253 0.164154 0.007645
v -0.009043 0.174878 0.007645
v -0.016263 0.171737 0.007645
v 0.013716 0.155250 0.028688
v 0.003505 0.165973 0.028688
v 0.010725 0.162832 0.028688
v 0.009035 0.174878 0.007645
v 0.019246 0.164155 0.007645
v 0.016255 0.171737 0.007645
v -0.013723 -0.118665 0.028688
v -0.019253 -0.109760 0.007645
v 0.013716 -0.118665 0.028688
v 0.019246 -0.109760 0.007645
v -0.003512 -0.162849 0.028688
v -0.013723 -0.152126 0.028688
v -0.010732 -0.159709 0.028688
v -0.019253 -0.161031 0.007645
v -0.009042 -0.171754 0.007645
v -0.016262 -0.168613 0.007645
v 0.013716 -0.152126 0.028688
v 0.003505 -0.162849 0.028688
v 0.010725 -0.159709 0.028688
v 0.009035 -0.171754 0.007645
v 0.019246 -0.161031 0.007645
v 0.016255 -0.168613 0.007645
v -0.468586 -0.081159 0.022762
v -0.470615 -0.067867 0.022762
v -0.462698 -0.093150 0.022762
v -0.453526 -0.102666 0.022762
v -0.441970 -0.108775 0.022762
v -0.429159 -0.110880 0.022762
v 0.470608 -0.067867 0.022762
v 0.468579 -0.081159 0.022762
v 0.462690 -0.093149 0.022762
v 0.453519 -0.102665 0.022762
v 0.441962 -0.108775 0.022762
v 0.429151 -0.110880 0.022762
v 0.468579 0.081158 0.022762
v 0.470608 0.067866 0.022762
v 0.462690 0.093149 0.022762
v 0.453519 0.102665 0.022762
v 0.441962 0.108775 0.022762
v 0.429151 0.110880 0.022762
v -0.470615 0.067866 0.022762
v -0.468586 0.081158 0.022762
v -0.462698 0.093149 0.022762
v -0.453526 0.102665 0.022762
v -0.441970 0.108774 0.022762
v -0.429159 0.110880 0.022762
v -0.461971 -0.074877 0.016893
v -0.463971 -0.061773 0.016893
v -0.456165 -0.086699 0.016893
v -0.447123 -0.096080 0.016893
v -0.435730 -0.102104 0.016893
v -0.423100 -0.104179 0.016893
v 0.463964 -0.061773 0.016893
v 0.461963 -0.074877 0.016893
v 0.456158 -0.086699 0.016893
v 0.447116 -0.096080 0.016893
v 0.435722 -0.102104 0.016893
v 0.423092 -0.104179 0.016893
v 0.461963 0.074877 0.016893
v 0.463964 0.061772 0.016893
v 0.456158 0.086698 0.016893
v 0.447116 0.096080 0.016893
v 0.435722 0.102103 0.016893
v 0.423092 0.104179 0.016893
v -0.463971 0.061772 0.016893
v -0.461971 0.074876 0.016893
v -0.456165 0.086698 0.016893
v -0.447123 0.096080 0.016893
v -0.435730 0.102103 0.016893
v -0.423100 0.104178 0.016893
vn -0.0390 0.7981 0.6013
vn 0.0390 0.7981 0.6013
vn 0.0855 0.7742 0.6272
vn -0.0855 0.7742 0.6272
vn 0.0000 -0.0000 -1.0000
vn 0.7089 0.0391 0.7043
vn 0.7089 -0.0391 0.7043
vn 0.6978 -0.0670 0.7132
vn 0.6978 0.0670 0.7132
vn 0.0390 -0.7981 0.6013
vn -0.0390 -0.7981 0.6013
vn -0.0855 -0.7742 0.6272
vn 0.0855 -0.7742 0.6272
vn -0.0000 0.0000 1.0000
vn -0.7089 -0.0391 0.7043
vn -0.6978 -0.0670 0.7132
vn -0.6277 -0.2139 0.7485
vn -0.6434 -0.1843 0.7430
vn -0.5269 -0.3739 0.7633
vn -0.5283 -0.3719 0.7632
vn -0.4056 -0.5218 0.7505
vn -0.3853 -0.5432 0.7460
vn -0.2520 -0.6635 0.7045
vn -0.1967 -0.7046 0.6818
vn 0.6434 -0.1843 0.7430
vn 0.6277 -0.2139 0.7485
vn 0.5283 -0.3719 0.7632
vn 0.5269 -0.3739 0.7633
vn 0.3853 -0.5432 0.7460
vn 0.4056 -0.5218 0.7505
vn 0.1967 -0.7046 0.6818
vn 0.2520 -0.6635 0.7045
vn 0.6277 0.2139 0.7485
vn 0.6434 0.1843 0.7430
vn 0.5269 0.3739 0.7633
vn 0.5283 0.3719 0.7632
vn 0.4056 0.5218 0.7505
vn 0.3853 0.5432 0.7460
vn 0.2520 0.6635 0.7045
vn 0.1967 0.7046 0.6818
vn -0.6978 0.0670 0.7132
vn -0.7089 0.0391 0.7043
vn -0.6434 0.1843 0.7430
vn -0.6277 0.2139 0.7485
vn -0.5283 0.3719 0.7632
vn -0.5269 0.3739 0.7633
vn -0.3853 0.5432 0.7460
vn -0.4056 0.5218 0.7505
vn -0.1967 0.7046 0.6818
vn -0.2520 0.6635 0.7045
vn 0.3294 0.4292 0.8410
vn 0.1997 0.5352 0.8208
vn 0.1632 0.5612 0.8114
vn 0.3206 0.4371 0.8403
vn 0.1997 -0.5352 0.8208
vn 0.3294 -0.4292 0.8410
vn 0.3206 -0.4371 0.8403
vn 0.1632 -0.5612 0.8114
vn -0.5440 -0.1905 0.8172
vn -0.4408 -0.3174 0.8396
vn -0.4511 -0.3059 0.8384
vn -0.5703 -0.1533 0.8070
vn 0.0672 0.6223 0.7799
vn 0.0334 0.6412 0.7666
vn 0.0672 -0.6223 0.7799
vn 0.0334 -0.6412 0.7666
vn -0.3294 -0.4292 0.8410
vn -0.3206 -0.4371 0.8403
vn -0.5440 0.1905 0.8172
vn -0.6274 0.0634 0.7761
vn -0.6456 0.0310 0.7631
vn -0.5703 0.1533 0.8070
vn 0.6274 -0.0634 0.7761
vn 0.6274 0.0634 0.7761
vn 0.6456 0.0310 0.7631
vn 0.6456 -0.0310 0.7631
vn -0.1997 -0.5352 0.8208
vn -0.1632 -0.5612 0.8114
vn -0.4408 0.3174 0.8396
vn -0.4511 0.3059 0.8384
vn -0.0673 -0.6223 0.7799
vn -0.0334 -0.6412 0.7666
vn -0.3294 0.4292 0.8410
vn -0.3206 0.4371 0.8403
vn -0.0673 0.6223 0.7799
vn -0.0334 0.6412 0.7666
vn 0.5440 0.1905 0.8172
vn 0.5703 0.1533 0.8070
vn 0.5440 -0.1905 0.8172
vn 0.5703 -0.1533 0.8070
vn -0.1997 0.5352 0.8208
vn -0.1632 0.5612 0.8114
vn -0.6274 -0.0634 0.7761
vn -0.6456 -0.0310 0.7631
vn 0.4408 0.3174 0.8396
vn 0.4511 0.3059 0.8384
vn 0.4408 -0.3174 0.8396
vn 0.4511 -0.3059 0.8384
vn 0.9197 0.2110 0.3310
vn 0.9419 0.1383 0.3061
vn 0.9672 -0.0000 0.2542
vn -0.9419 0.1383 0.3061
vn -0.9197 0.2110 0.3310
vn -0.9672 0.0000 0.2542
vn 0.0000 -0.9209 0.3897
vn -0.8638 0.3407 0.3712
vn -0.3578 0.8225 0.4421
vn -0.1655 0.8919 0.4209
vn -0.2006 0.8822 0.4260
vn 0.8638 0.3407 0.3712
vn 0.3578 0.8225 0.4421
vn 0.2006 0.8822 0.4260
vn 0.1655 0.8919 0.4209
vn 0.9197 -0.2110 0.3310
vn 0.9419 -0.1383 0.3061
vn -0.9419 -0.1383 0.3061
vn -0.9197 -0.2110 0.3310
vn -0.0000 0.9209 0.3897
vn -0.8638 -0.3407 0.3712
vn -0.3578 -0.8225 0.4421
vn -0.2006 -0.8822 0.4260
vn -0.1655 -0.8919 0.4209
vn 0.8638 -0.3407 0.3712
vn 0.3578 -0.8225 0.4421
vn 0.1655 -0.8919 0.4209
vn 0.2006 -0.8822 0.4260
usemtl Main
s 1
f 1//1 8//2 37//3 32//4
f 31//5 33//5 34//5 35//5 36//5 32//5 37//5 39//5 40//5 41//5 42//5 38//5 43//5 45//5 46//5 47//5 48//5 44//5 25//5 27//5 28//5 29//5 30//5 26//5
f 7//6 20//7 43//8 38//9
f 19//10 14//11 25//12 44//13
f 10//14 11//14 160//14 159//14
f 13//15 26//16 30//17 15//18
f 15//18 30//17 29//19 16//20
f 16//20 29//19 28//21 17//22
f 17//22 28//21 27//23 18//24
f 18//24 27//23 25//12 14//11
f 43//8 20//7 24//25 45//26
f 45//26 24//25 23//27 46//28
f 46//28 23//27 22//29 47//30
f 47//30 22//29 21//31 48//32
f 48//32 21//31 19//10 44//13
f 7//6 38//9 42//33 9//34
f 9//34 42//33 41//35 10//36
f 10//36 41//35 40//37 11//38
f 11//38 40//37 39//39 12//40
f 12//40 39//39 37//3 8//2
f 31//41 2//42 6//43 33//44
f 33//44 6//43 5//45 34//46
f 34//46 5//45 4//47 35//48
f 35//48 4//47 3//49 36//50
f 36//50 3//49 1//1 32//4
f 13//15 2//42 31//41 26//16
f 148//51 149//52 173//53 172//54
f 7//14 9//14 157//14 158//14
f 17//14 18//14 149//14 148//14
f 1//14 3//14 167//14 168//14
f 24//14 20//14 151//14 152//14
f 15//14 16//14 147//14 145//14
f 4//14 5//14 165//14 166//14
f 2//14 13//14 146//14 163//14
f 21//14 22//14 154//14 155//14
f 11//14 12//14 161//14 160//14
f 6//14 2//14 163//14 164//14
f 18//14 14//14 150//14 149//14
f 23//14 24//14 152//14 153//14
f 9//14 10//14 159//14 157//14
f 8//14 1//14 168//14 162//14
f 16//14 17//14 148//14 147//14
f 3//14 4//14 166//14 167//14
f 13//14 15//14 145//14 146//14
f 14//14 19//14 156//14 150//14
f 19//14 21//14 155//14 156//14
f 12//14 8//14 162//14 161//14
f 5//14 6//14 164//14 165//14
f 20//14 7//14 158//14 151//14
f 22//14 23//14 153//14 154//14
f 192//14 191//14 190//14 189//14 188//14 187//14 170//14 169//14 171//14 172//14 173//14 174//14 180//14 179//14 178//14 177//14 176//14 175//14 182//14 181//14 183//14 184//14 185//14 186//14
f 167//55 166//56 190//57 191//58
f 157//59 159//60 183//61 181//62
f 149//52 150//63 174//64 173//53
f 168//65 167//55 191//58 192//66
f 159//60 160//67 184//68 183//61
f 152//69 151//70 175//71 176//72
f 163//73 146//74 170//75 187//76
f 160//67 161//77 185//78 184//68
f 153//79 152//69 176//72 177//80
f 162//81 168//65 192//66 186//82
f 161//77 162//81 186//82 185//78
f 154//83 153//79 177//80 178//84
f 150//63 156//85 180//86 174//64
f 146//74 145//87 169//88 170//75
f 164//89 163//73 187//76 188//90
f 155//91 154//83 178//84 179//92
f 151//70 158//93 182//94 175//71
f 145//87 147//95 171//96 169//88
f 165//97 164//89 188//90 189//98
f 156//85 155//91 179//92 180//86
f 147//95 148//51 172//54 171//96
f 166//56 165//97 189//98 190//57
f 158//93 157//59 181//62 182//94
usemtl Accent
f 56//5 58//5 57//5 62//5 64//5 63//5 52//5 50//5
f 59//14 61//14 60//14 53//14 55//14 54//14 49//14 51//14
f 63//99 59//100 51//101 52//101
f 54//102 56//103 50//104 49//104
f 49//105 50//105 52//105 51//105
f 56//103 54//102 55//106 58//106
f 58//107 55//107 53//108 57//109
f 59//100 63//99 64//110 61//110
f 61//111 64//111 62//112 60//113
f 60//113 62//112 57//109 53//108
f 72//5 66//5 68//5 79//5 80//5 78//5 73//5 74//5
f 75//14 67//14 65//14 70//14 71//14 69//14 76//14 77//14
f 79//103 68//104 67//104 75//102
f 70//100 65//101 66//101 72//99
f 65//105 67//105 68//105 66//105
f 72//99 74//110 71//110 70//100
f 74//111 73//112 69//113 71//111
f 75//102 77//106 80//106 79//103
f 77//107 76//108 78//109 80//107
f 76//108 69//113 73//112 78//109
f 88//5 82//5 84//5 95//5 96//5 94//5 89//5 90//5
f 91//14 83//14 81//14 86//14 87//14 85//14 92//14 93//14
f 95//114 84//101 83//101 91//115
f 86//116 81//104 82//104 88//117
f 81//118 83//118 84//118 82//118
f 88//117 90//119 87//119 86//116
f 90//120 89//121 85//122 87//120
f 91//115 93//123 96//123 95//114
f 93//124 92//125 94//126 96//124
f 92//125 85//122 89//121 94//126
f 104//5 106//5 105//5 110//5 112//5 111//5 100//5 98//5
f 107//14 109//14 108//14 101//14 103//14 102//14 97//14 99//14
f 111//117 107//116 99//104 100//104
f 102//115 104//114 98//101 97//101
f 97//118 98//118 100//118 99//118
f 104//114 102//115 103//123 106//123
f 106//124 103//124 101//125 105//126
f 107//116 111//117 112//119 109//119
f 109//120 112//120 110//121 108//122
f 108//122 110//121 105//126 101//125
f 120//5 122//5 121//5 126//5 128//5 127//5 116//5 114//5
f 123//14 125//14 124//14 117//14 119//14 118//14 113//14 115//14
f 127//99 123//100 115//101 116//101
f 118//102 120//103 114//104 113//104
f 113//105 114//105 116//105 115//105
f 120//103 118//102 119//106 122//106
f 122//107 119//107 117//108 121//109
f 123//100 127//99 128//110 125//110
f 125//111 128//111 126//112 124//113
f 124//113 126//112 121//109 117//108
f 136//5 130//5 132//5 143//5 144//5 142//5 137//5 138//5
f 139//14 131//14 129//14 134//14 135//14 133//14 140//14 141//14
f 143//114 132//101 131//101 139//115
f 134//116 129//104 130//104 136//117
f 129//118 131//118 132//118 130//118
f 136//117 138//119 135//119 134//116
f 138//120 137//121 133//122 135//120
f 139//115 141//123 144//123 143//114
f 141//124 140//125 142//126 144//124
f 140//125 133//122 137//121 142//126
