# Blender v2.79 (sub 0) OBJ File: 'DoorDouble_Wall_SideA.blend'
# www.blender.org
mtllib DoorDouble_Wall_SideA.mtl
o DoorDouble_Wall_SideA_Plane.312
v -1.526835 0.000052 0.045566
v -1.321155 0.000052 0.045566
v -1.526835 0.000052 -0.275057
v -1.526836 0.875439 -0.275057
v -1.321155 0.000052 -0.275057
v -1.321155 0.875439 -0.275057
v -1.526836 0.777113 0.045566
v -1.526836 0.852513 -0.090513
v -1.321155 0.852513 -0.090513
v -1.321155 0.777114 0.045566
v -1.526836 1.186023 -0.275057
v -1.321155 1.186023 -0.275057
v -1.321155 1.186023 -0.128405
v -1.321155 1.148131 -0.090513
v -1.526836 1.148131 -0.090513
v -1.526836 1.186023 -0.128405
v -1.454402 -0.006088 -0.967805
v -1.454402 -0.006088 -0.031323
v -1.307754 -0.006088 -0.998099
v -1.307754 -0.006088 0.009929
v -1.140643 2.939707 -0.967805
v -1.454402 2.625319 -0.967805
v -1.454402 2.625319 -0.031323
v -1.140643 2.939707 -0.031323
v -1.307754 2.537161 -0.998099
v -1.043710 2.791892 -0.998099
v -1.043710 2.791892 0.009929
v -1.307754 2.537161 0.009929
v -1.368805 -0.006088 0.009929
v -1.368805 2.573862 0.009929
v -1.084064 2.853429 0.009929
v -1.099190 2.876495 -0.031323
v -1.391690 -0.006088 -0.031323
v -1.391690 2.587619 -0.031323
v 1.526835 0.000052 0.045566
v 1.321155 0.000052 0.045566
v 1.526835 0.000052 -0.275057
v 1.526836 0.875439 -0.275057
v 1.321155 0.000052 -0.275057
v 1.321155 0.875439 -0.275057
v 1.526836 0.777113 0.045566
v 1.526836 0.852513 -0.090513
v 1.321155 0.852513 -0.090513
v 1.321155 0.777114 0.045566
v 1.526836 1.186023 -0.275057
v 1.321155 1.186023 -0.275057
v 1.321155 1.186023 -0.128405
v 1.321155 1.148131 -0.090513
v 1.526836 1.148131 -0.090513
v 1.526836 1.186023 -0.128405
v 0.000000 2.939707 -0.967805
v 0.000000 2.939707 -0.031323
v 1.454402 -0.006088 -0.967805
v 1.454402 -0.006088 -0.031323
v 1.307754 -0.006088 -0.998099
v 1.307754 -0.006088 0.009929
v 0.000000 2.791892 0.009929
v 0.000000 2.791892 -0.998099
v 1.140643 2.939707 -0.967805
v 1.454402 2.625319 -0.967805
v 1.454402 2.625319 -0.031323
v 1.140643 2.939707 -0.031323
v 1.307754 2.537161 -0.998099
v 1.043710 2.791892 -0.998099
v 1.043710 2.791892 0.009929
v 1.307754 2.537161 0.009929
v 1.368805 -0.006088 0.009929
v 0.000000 2.853428 0.009929
v 1.368805 2.573862 0.009929
v 1.084064 2.853429 0.009929
v 1.099190 2.876495 -0.031323
v 1.391690 -0.006088 -0.031323
v 0.000000 2.876495 -0.031323
v 1.391690 2.587619 -0.031323
v -2.000000 0.000000 0.000000
v -2.000000 3.398779 -0.206425
v -2.000000 4.430894 0.255656
v -2.000000 0.853536 -0.206425
v -2.000000 0.741229 0.000000
v -2.000000 3.703513 0.255656
v -2.000000 3.766714 0.255656
v -2.000000 3.859771 0.255656
v -1.411607 4.430894 0.255655
v -1.411607 3.766714 0.255655
v -1.411607 3.859771 0.255655
v -1.411607 3.766714 0.227141
v -1.411607 3.859771 0.227141
v -2.000000 2.901515 -0.206425
v -2.000000 0.120513 0.000000
v -2.000000 0.165472 0.000000
v -2.000000 0.165472 -0.021995
v -2.000000 0.120513 -0.021995
v -2.000000 2.620514 -0.206425
v -1.397129 2.620514 -0.206425
v -1.397129 3.398779 -0.206425
v -1.397129 3.703513 0.255655
v -1.397129 2.901515 -0.206425
v -1.397128 0.120513 0.000000
v -1.397128 0.120513 -0.021995
v -1.397128 0.000000 0.000000
v -1.397129 0.853536 -0.206425
v -1.397129 0.741229 0.000000
v -1.397128 0.165472 0.000000
v -1.397128 0.165472 -0.021995
v -1.114832 2.901515 -0.206425
v -1.114832 3.398779 -0.206425
v -1.114832 3.703513 0.255655
v 2.000000 0.000000 0.000000
v 2.000000 3.398779 -0.206425
v 2.000000 4.430894 0.255656
v 2.000000 0.853536 -0.206425
v 2.000000 0.741229 0.000000
v 2.000000 3.703513 0.255656
v 2.000000 3.766714 0.255656
v 2.000000 3.859771 0.255656
v 1.411607 4.430894 0.255655
v 1.411607 3.766714 0.255655
v 1.411607 3.859771 0.255655
v 1.411607 3.766714 0.227141
v 1.411607 3.859771 0.227141
v 2.000000 2.901515 -0.206425
v 2.000000 0.120513 0.000000
v 2.000000 0.165472 0.000000
v 2.000000 0.165472 -0.021995
v 2.000000 0.120513 -0.021995
v 2.000000 2.620514 -0.206425
v 0.000000 2.901515 -0.206425
v 0.000000 3.398779 -0.206425
v 0.000000 3.703513 0.255655
v 0.000000 3.766714 0.227141
v 0.000000 4.430894 0.255655
v 0.000000 3.859771 0.255655
v 0.000000 3.766714 0.255655
v 0.000000 3.859771 0.227141
v 1.397129 2.620514 -0.206425
v 1.397129 3.398779 -0.206425
v 1.397129 3.703513 0.255655
v 1.397129 2.901515 -0.206425
v 1.397128 0.120513 0.000000
v 1.397128 0.120513 -0.021995
v 1.397128 0.000000 0.000000
v 1.397129 0.853536 -0.206425
v 1.397129 0.741229 0.000000
v 1.397128 0.165472 0.000000
v 1.397128 0.165472 -0.021995
v 1.114832 2.901515 -0.206425
v 1.114832 3.398779 -0.206425
v 1.114832 3.703513 0.255655
v 2.000002 3.382576 -0.234991
v -2.000000 3.382576 -0.234991
v 2.000002 3.348314 -0.121058
v -2.000000 3.348314 -0.121058
v 2.000002 3.111566 -0.121058
v -2.000000 3.111566 -0.121058
v 2.000002 3.077305 -0.237250
v -2.000000 3.077305 -0.237250
v 2.000002 1.180995 -0.234991
v -2.000000 1.180995 -0.234991
v 2.000002 1.146734 -0.121058
v -2.000000 1.146734 -0.121058
v 2.000002 0.909986 -0.121058
v -2.000000 0.909986 -0.121058
v 2.000002 0.875724 -0.237250
v -2.000000 0.875724 -0.237250
v 0.576392 3.503825 -0.060920
v -0.577633 3.503825 -0.060920
v -0.577633 3.610366 0.100632
v 0.576392 3.610366 0.100632
v 0.576392 3.473571 -0.040968
v -0.577633 3.473571 -0.040968
v -0.577633 3.580112 0.120584
v 0.576392 3.580112 0.120584
v 0.523963 3.495031 -0.008428
v -0.525204 3.495031 -0.008428
v -0.525204 3.559463 0.089274
v 0.523963 3.559463 0.089274
v 0.492155 3.519044 0.006625
v -0.493396 3.519044 0.006625
v -0.493396 3.557718 0.065267
v 0.492155 3.557718 0.065267
v -1.384248 1.180995 -0.234991
v -1.384248 1.146734 -0.121058
v -1.384248 0.909986 -0.121058
v -1.384248 0.875724 -0.237250
v 1.355640 1.180995 -0.234991
v 1.355640 1.146734 -0.121058
v 1.355640 0.909986 -0.121058
v 1.355640 0.875724 -0.237250
v -1.381078 -0.006088 -0.998099
v 0.000000 2.865799 -0.998099
v -1.381078 2.581240 -0.998099
v -1.092176 2.865799 -0.998099
v 1.381078 -0.006088 -0.998099
v 1.381078 2.581240 -0.998099
v 1.092176 2.865799 -0.998099
v -1.397709 -0.006088 -0.967805
v 0.000000 2.882562 -0.967805
v -1.397709 2.591237 -0.967805
v 1.397709 -0.006088 -0.967805
v 1.397709 2.591237 -0.967805
v -1.103169 2.882562 -0.967805
v 1.103169 2.882562 -0.967805
v 1.454402 0.045022 -0.967805
v 1.307754 0.045022 -0.998099
v 1.454402 0.045022 -0.031323
v 1.307754 0.045022 0.009929
v 1.368805 0.045022 0.009929
v 1.391690 0.045022 -0.031323
v 1.381078 0.045022 -0.998099
v 1.397709 0.045022 -0.967805
v -1.454402 0.045022 -0.967805
v -1.307754 0.045022 -0.998099
v -1.454402 0.045022 -0.031323
v -1.307754 0.045022 0.009929
v -1.368805 0.045022 0.009929
v -1.391690 0.045022 -0.031323
v -1.381078 0.045022 -0.998099
v -1.397709 0.045022 -0.967805
vn 1.0000 0.0000 0.0000
vn 0.0000 -0.0000 1.0000
vn -0.0000 0.8747 0.4847
vn -1.0000 -0.0000 -0.0000
vn -0.0000 0.0000 -1.0000
vn 0.0000 1.0000 0.0000
vn -0.0000 0.7071 0.7071
vn 0.0000 -0.8348 0.5505
vn 0.0000 -1.0000 0.0000
vn -0.0000 0.8784 0.4779
vn -0.7078 0.7064 0.0000
vn 0.6943 -0.7197 0.0000
vn -0.5906 0.5998 0.5398
vn 0.0000 0.8728 0.4880
vn -0.8745 0.0000 0.4851
vn 0.7078 0.7064 0.0000
vn -0.6943 -0.7197 0.0000
vn 0.5906 0.5998 0.5398
vn 0.8745 0.0000 0.4851
vn 0.0000 0.9576 0.2880
vn 0.0000 -0.9592 0.2828
vn 0.8766 0.0000 -0.4812
vn 0.0000 0.8750 -0.4842
vn -0.8766 0.0000 -0.4812
vn 0.5931 0.6009 -0.5358
vn -0.5931 0.6009 -0.5358
vn -0.0000 -0.5505 -0.8348
vn 0.0000 0.5505 0.8348
vn -0.3468 -0.7830 0.5164
vn 0.0000 -0.5311 0.8473
vn 0.0000 -0.9974 0.0725
vn 0.3468 -0.7830 0.5164
usemtl Main
s off
f 2//1 5//1 6//1 9//1 10//1
f 7//2 1//2 2//2 10//2
f 7//3 10//3 9//3 8//3
f 7//4 8//4 4//4 3//4 1//4
f 9//1 6//1 12//1 13//1 14//1
f 6//5 4//5 11//5 12//5
f 13//6 12//6 11//6 16//6
f 4//4 8//4 15//4 16//4 11//4
f 13//7 16//7 15//7 14//7
f 8//2 9//2 14//2 15//2
f 4//5 6//5 5//5 3//5
f 36//4 44//4 43//4 40//4 39//4
f 41//2 44//2 36//2 35//2
f 41//3 42//3 43//3 44//3
f 41//1 35//1 37//1 38//1 42//1
f 43//4 48//4 47//4 46//4 40//4
f 40//5 46//5 45//5 38//5
f 47//6 50//6 45//6 46//6
f 38//1 45//1 50//1 49//1 42//1
f 47//7 48//7 49//7 50//7
f 42//2 49//2 48//2 43//2
f 38//5 37//5 39//5 40//5
f 81//2 84//2 85//2 82//2
f 85//1 84//1 86//1 87//1
f 95//8 96//8 80//8 76//8
f 82//2 85//2 83//2 77//2
f 105//2 127//2 128//2 106//2
f 132//2 131//2 83//2 85//2
f 130//2 134//2 87//2 86//2
f 133//6 130//6 86//6 84//6
f 129//2 133//2 84//2 81//2 80//2 96//2 107//2
f 134//9 132//9 85//9 87//9
f 79//10 102//10 101//10 78//10
f 78//2 101//2 94//2 93//2
f 93//2 94//2 97//2 88//2
f 92//2 99//2 104//2 91//2
f 90//9 91//9 104//9 103//9
f 90//2 103//2 102//2 79//2
f 88//2 97//2 95//2 76//2
f 106//8 107//8 96//8 95//8
f 128//8 129//8 107//8 106//8
f 94//2 105//2 97//2
f 97//2 105//2 106//2 95//2
f 114//2 115//2 118//2 117//2
f 118//4 120//4 119//4 117//4
f 136//8 109//8 113//8 137//8
f 115//2 110//2 116//2 118//2
f 146//2 147//2 128//2 127//2
f 132//2 118//2 116//2 131//2
f 130//2 119//2 120//2 134//2
f 133//6 117//6 119//6 130//6
f 129//2 148//2 137//2 113//2 114//2 117//2 133//2
f 134//9 120//9 118//9 132//9
f 112//10 111//10 142//10 143//10
f 111//2 126//2 135//2 142//2
f 126//2 121//2 138//2 135//2
f 125//2 124//2 145//2 140//2
f 123//9 144//9 145//9 124//9
f 123//2 112//2 143//2 144//2
f 121//2 109//2 136//2 138//2
f 147//8 136//8 137//8 148//8
f 128//8 147//8 148//8 129//8
f 135//2 138//2 146//2
f 138//2 136//2 147//2 146//2
usemtl Accent
f 24//6 52//6 51//6 21//6
f 190//5 58//5 26//5 192//5
f 27//9 26//9 58//9 57//9
f 213//4 211//4 17//4 18//4
f 215//2 214//2 28//2 30//2
f 31//2 27//2 57//2 68//2
f 22//11 23//11 24//11 21//11
f 26//12 27//12 28//12 25//12
f 198//5 22//5 21//5 201//5
f 30//2 28//2 27//2 31//2
f 217//5 212//5 19//5 189//5
f 34//13 30//13 31//13 32//13
f 32//14 31//14 68//14 73//14
f 216//15 215//15 30//15 34//15
f 213//2 216//2 34//2 23//2
f 24//2 32//2 73//2 52//2
f 23//2 34//2 32//2 24//2
f 62//6 59//6 51//6 52//6
f 190//5 195//5 64//5 58//5
f 65//9 57//9 58//9 64//9
f 205//1 54//1 53//1 203//1
f 207//2 69//2 66//2 206//2
f 70//2 68//2 57//2 65//2
f 60//16 59//16 62//16 61//16
f 64//17 63//17 66//17 65//17
f 200//5 202//5 59//5 60//5
f 69//2 70//2 65//2 66//2
f 209//5 193//5 55//5 204//5
f 74//18 71//18 70//18 69//18
f 71//14 73//14 68//14 70//14
f 208//19 74//19 69//19 207//19
f 205//2 61//2 74//2 208//2
f 62//2 52//2 73//2 71//2
f 61//2 62//2 71//2 74//2
f 150//20 152//20 151//20 149//20
f 152//2 154//2 153//2 151//2
f 154//21 156//21 155//21 153//21
f 185//20 186//20 159//20 157//20
f 186//2 187//2 161//2 159//2
f 187//21 188//21 163//21 161//21
f 162//21 164//21 184//21 183//21
f 160//2 162//2 183//2 182//2
f 158//20 160//20 182//20 181//20
f 210//22 199//22 193//22 209//22
f 63//5 64//5 195//5 194//5
f 197//23 202//23 195//23 190//23
f 218//24 217//24 189//24 196//24
f 25//5 191//5 192//5 26//5
f 197//23 190//23 192//23 201//23
f 51//5 197//5 201//5 21//5
f 211//5 218//5 196//5 17//5
f 51//5 59//5 202//5 197//5
f 203//5 53//5 199//5 210//5
f 194//25 195//25 202//25 200//25
f 191//26 198//26 201//26 192//26
f 20//2 56//2 206//2 214//2
f 60//5 203//5 210//5 200//5
f 200//22 210//22 209//22 194//22
f 54//2 205//2 208//2 72//2
f 72//19 208//19 207//19 67//19
f 194//5 209//5 204//5 63//5
f 66//4 63//4 204//4 206//4
f 67//2 207//2 206//2 56//2
f 61//1 205//1 203//1 60//1
f 22//5 198//5 218//5 211//5
f 198//24 191//24 217//24 218//24
f 18//2 33//2 216//2 213//2
f 33//15 29//15 215//15 216//15
f 191//5 25//5 212//5 217//5
f 28//1 214//1 212//1 25//1
f 29//2 20//2 214//2 215//2
f 23//4 22//4 211//4 213//4
f 206//6 204//6 212//6 214//6
f 19//5 212//5 204//5 55//5
usemtl Light
f 178//8 177//8 180//8 179//8
usemtl DarkGrey
f 1//9 3//9 5//9 2//9
f 35//9 36//9 39//9 37//9
f 98//6 99//6 92//6 89//6
f 75//2 100//2 98//2 89//2
f 139//6 122//6 125//6 140//6
f 108//2 122//2 139//2 141//2
f 172//8 171//8 175//8 176//8
f 167//4 166//4 170//4 171//4
f 165//1 168//1 172//1 169//1
f 166//27 165//27 169//27 170//27
f 168//28 167//28 171//28 172//28
f 173//29 176//29 180//29 177//29
f 171//8 170//8 174//8 175//8
f 169//8 172//8 176//8 173//8
f 170//8 169//8 173//8 174//8
f 174//30 173//30 177//30 178//30
f 176//31 175//31 179//31 180//31
f 175//32 174//32 178//32 179//32
