# Blender v2.79 (sub 0) OBJ File: 'DoorSingle_Wall_SideA.blend'
# www.blender.org
mtllib DoorSingle_Wall_SideA.mtl
o DoorSingle_Wall_SideA_Plane.313
v -0.961430 0.000052 0.045566
v -0.755750 0.000052 0.045566
v -0.961430 0.000052 -0.275057
v -0.961431 0.875439 -0.275057
v -0.755750 0.000052 -0.275057
v -0.755750 0.875439 -0.275057
v -0.961431 0.777113 0.045566
v -0.961431 0.852513 -0.090513
v -0.755750 0.852513 -0.090513
v -0.755750 0.777114 0.045566
v -0.961431 1.186023 -0.275057
v -0.755750 1.186023 -0.275057
v -0.755750 1.186023 -0.128405
v -0.755750 1.148131 -0.090513
v -0.961431 1.148131 -0.090513
v -0.961431 1.186023 -0.128405
v -0.888998 -0.006088 -0.967805
v -0.888998 -0.006088 -0.031323
v -0.742349 -0.006088 -0.998099
v -0.742349 -0.006088 0.009929
v -0.575238 2.939707 -0.967805
v -0.888998 2.625319 -0.967805
v -0.888998 2.625319 -0.031323
v -0.575238 2.939707 -0.031323
v -0.742349 2.537161 -0.998099
v -0.478305 2.791892 -0.998099
v -0.478305 2.791892 0.009929
v -0.742349 2.537161 0.009929
v -0.803400 -0.006088 0.009929
v -0.803400 2.573862 0.009929
v -0.518659 2.853429 0.009929
v -0.533785 2.876495 -0.031323
v -0.826285 -0.006088 -0.031323
v -0.826285 2.587619 -0.031323
v -2.000000 0.000000 0.000000
v -2.000000 3.398779 -0.206425
v -2.000000 4.430894 0.255656
v -2.000000 0.853536 -0.206425
v -2.000000 0.741229 0.000000
v -2.000000 3.703513 0.255656
v -2.000000 3.766714 0.255656
v -2.000000 3.859771 0.255656
v -0.846202 4.430894 0.255655
v -0.846202 3.766714 0.255655
v -0.846202 3.859771 0.255655
v -0.846202 3.766714 0.227141
v -0.846202 3.859771 0.227141
v -2.000000 2.901515 -0.206425
v -2.000000 0.120513 0.000000
v -2.000000 0.165472 0.000000
v -2.000000 0.165472 -0.021995
v -2.000000 0.120513 -0.021995
v -2.000000 2.620514 -0.206425
v -0.831724 2.620514 -0.206425
v -0.831724 3.398779 -0.206425
v -0.831724 3.703513 0.255655
v -0.831724 2.901515 -0.206425
v -0.831724 0.120513 0.000000
v -0.831724 0.120513 -0.021995
v -0.831724 0.000000 0.000000
v -0.831724 0.853536 -0.206425
v -0.831724 0.741229 0.000000
v -0.831724 0.165472 0.000000
v -0.831724 0.165472 -0.021995
v -0.549427 2.901515 -0.206425
v -0.549427 3.398779 -0.206425
v -0.549427 3.703513 0.255655
v -2.000000 3.382576 -0.234991
v -2.000000 3.348314 -0.121058
v -2.000000 3.111566 -0.121058
v -2.000000 3.077305 -0.237250
v -2.000000 1.180995 -0.234991
v -2.000000 1.146734 -0.121058
v -2.000000 0.909986 -0.121058
v -2.000000 0.875724 -0.237250
v -0.818843 1.180995 -0.234991
v -0.818843 1.146734 -0.121058
v -0.818843 0.909986 -0.121058
v -0.818843 0.875724 -0.237250
v -0.815673 -0.006088 -0.998099
v -0.815673 2.581240 -0.998099
v -0.526771 2.865799 -0.998099
v -0.832304 -0.006088 -0.967805
v -0.832304 2.591237 -0.967805
v -0.537764 2.882562 -0.967805
v 0.961430 0.000052 0.045566
v 0.755750 0.000052 0.045566
v 0.961430 0.000052 -0.275057
v 0.961431 0.875439 -0.275057
v 0.755750 0.000052 -0.275057
v 0.755750 0.875439 -0.275057
v 0.961431 0.777113 0.045566
v 0.961431 0.852513 -0.090513
v 0.755750 0.852513 -0.090513
v 0.755750 0.777114 0.045566
v 0.961431 1.186023 -0.275057
v 0.755750 1.186023 -0.275057
v 0.755750 1.186023 -0.128405
v 0.755750 1.148131 -0.090513
v 0.961431 1.148131 -0.090513
v 0.961431 1.186023 -0.128405
v 0.888998 -0.006088 -0.967805
v 0.888998 -0.006088 -0.031323
v 0.742349 -0.006088 -0.998099
v 0.742349 -0.006088 0.009929
v 0.575238 2.939707 -0.967805
v 0.888998 2.625319 -0.967805
v 0.888998 2.625319 -0.031323
v 0.575238 2.939707 -0.031323
v 0.742349 2.537161 -0.998099
v 0.478305 2.791892 -0.998099
v 0.478305 2.791892 0.009929
v 0.742349 2.537161 0.009929
v 0.803400 -0.006088 0.009929
v 0.803400 2.573862 0.009929
v 0.518659 2.853429 0.009929
v 0.533785 2.876495 -0.031323
v 0.826285 -0.006088 -0.031323
v 0.826285 2.587619 -0.031323
v 0.000000 2.939707 -0.967805
v 0.000000 2.939707 -0.031323
v 0.000000 2.791892 0.009929
v 0.000000 2.791892 -0.998099
v 0.000000 2.853428 0.009929
v 0.000000 2.876495 -0.031323
v 2.000000 0.000000 0.000000
v 2.000000 3.398779 -0.206425
v 2.000000 4.430894 0.255656
v 2.000000 0.853536 -0.206425
v 2.000000 0.741229 0.000000
v 2.000000 3.703513 0.255656
v 2.000000 3.766714 0.255656
v 2.000000 3.859771 0.255656
v 0.846202 4.430894 0.255655
v 0.846202 3.766714 0.255655
v 0.846202 3.859771 0.255655
v 0.846202 3.766714 0.227141
v 0.846202 3.859771 0.227141
v 2.000000 2.901515 -0.206425
v 2.000000 0.120513 0.000000
v 2.000000 0.165472 0.000000
v 2.000000 0.165472 -0.021995
v 2.000000 0.120513 -0.021995
v 2.000000 2.620514 -0.206425
v 0.831724 2.620514 -0.206425
v 0.831724 3.398779 -0.206425
v 0.831724 3.703513 0.255655
v 0.831724 2.901515 -0.206425
v 0.831724 0.120513 0.000000
v 0.831724 0.120513 -0.021995
v 0.831724 0.000000 0.000000
v 0.831724 0.853536 -0.206425
v 0.831724 0.741229 0.000000
v 0.831724 0.165472 0.000000
v 0.831724 0.165472 -0.021995
v 0.549427 2.901515 -0.206425
v 0.549427 3.398779 -0.206425
v 0.549427 3.703513 0.255655
v 0.000000 2.901515 -0.206425
v 0.000000 3.398779 -0.206425
v 0.000000 3.703513 0.255655
v 0.000000 3.766714 0.227141
v 0.000000 4.430894 0.255655
v 0.000000 3.859771 0.255655
v 0.000000 3.766714 0.255655
v 0.000000 3.859771 0.227141
v 0.000000 3.077305 -0.237250
v 0.000000 3.111566 -0.121058
v 0.000000 3.348314 -0.121058
v 0.000000 3.382576 -0.234991
v 2.000000 3.382576 -0.234991
v 2.000000 3.348314 -0.121058
v 2.000000 3.111566 -0.121058
v 2.000000 3.077305 -0.237250
v 2.000000 1.180995 -0.234991
v 2.000000 1.146734 -0.121058
v 2.000000 0.909986 -0.121058
v 2.000000 0.875724 -0.237250
v 0.818843 1.180995 -0.234991
v 0.818843 1.146734 -0.121058
v 0.818843 0.909986 -0.121058
v 0.818843 0.875724 -0.237250
v 0.815673 -0.006088 -0.998099
v 0.000000 2.865799 -0.998099
v 0.815673 2.581240 -0.998099
v 0.526771 2.865799 -0.998099
v 0.832304 -0.006088 -0.967805
v 0.000000 2.882562 -0.967805
v 0.832304 2.591237 -0.967805
v 0.537764 2.882562 -0.967805
v 0.576394 3.503825 -0.060920
v -0.577631 3.503825 -0.060920
v -0.577631 3.610366 0.100632
v 0.576394 3.610366 0.100632
v 0.576394 3.473571 -0.040968
v -0.577631 3.473571 -0.040968
v -0.577631 3.580112 0.120584
v 0.576394 3.580112 0.120584
v 0.523965 3.495031 -0.008428
v -0.525202 3.495031 -0.008428
v -0.525202 3.559463 0.089274
v 0.523965 3.559463 0.089274
v 0.492157 3.519044 0.006625
v -0.493394 3.519044 0.006625
v -0.493394 3.557718 0.065267
v 0.492157 3.557718 0.065267
v -0.888998 0.044258 -0.967805
v -0.742349 0.044258 -0.998099
v -0.888998 0.044258 -0.031323
v -0.742349 0.044258 0.009929
v -0.803400 0.044258 0.009929
v -0.826285 0.044258 -0.031323
v -0.815673 0.044258 -0.998099
v -0.832304 0.044258 -0.967805
v 0.888998 0.044258 -0.967805
v 0.742349 0.044258 -0.998099
v 0.888998 0.044258 -0.031323
v 0.742349 0.044258 0.009929
v 0.803400 0.044258 0.009929
v 0.826285 0.044258 -0.031323
v 0.815673 0.044258 -0.998099
v 0.832304 0.044258 -0.967805
vn 1.0000 0.0000 0.0000
vn 0.0000 -0.0000 1.0000
vn -0.0000 0.8747 0.4847
vn -1.0000 -0.0000 -0.0000
vn -0.0000 0.0000 -1.0000
vn 0.0000 1.0000 0.0000
vn -0.0000 0.7071 0.7071
vn 0.0000 -0.8348 0.5505
vn 0.0000 -1.0000 0.0000
vn -0.0000 0.8784 0.4779
vn -0.7078 0.7064 0.0000
vn 0.6943 -0.7197 0.0000
vn -0.5906 0.5998 0.5398
vn 0.0000 0.8728 0.4880
vn -0.8745 0.0000 0.4851
vn 0.0000 0.9576 0.2880
vn 0.0000 -0.9592 0.2828
vn -0.8766 0.0000 -0.4812
vn -0.0000 0.8750 -0.4842
vn -0.5931 0.6009 -0.5358
vn 0.7078 0.7064 0.0000
vn -0.6943 -0.7197 0.0000
vn 0.5906 0.5998 0.5398
vn 0.8745 0.0000 0.4851
vn 0.8766 0.0000 -0.4812
vn 0.5931 0.6009 -0.5358
vn -0.0000 -0.5505 -0.8348
vn 0.0000 0.5505 0.8348
vn -0.3468 -0.7830 0.5164
vn 0.0000 -0.5311 0.8473
vn 0.0000 -0.9974 0.0725
vn 0.3468 -0.7830 0.5164
usemtl Main
s off
f 2//1 5//1 6//1 9//1 10//1
f 7//2 1//2 2//2 10//2
f 7//3 10//3 9//3 8//3
f 7//4 8//4 4//4 3//4 1//4
f 9//1 6//1 12//1 13//1 14//1
f 6//5 4//5 11//5 12//5
f 13//6 12//6 11//6 16//6
f 4//4 8//4 15//4 16//4 11//4
f 13//7 16//7 15//7 14//7
f 8//2 9//2 14//2 15//2
f 4//5 6//5 5//5 3//5
f 41//2 44//2 45//2 42//2
f 45//1 44//1 46//1 47//1
f 55//8 56//8 40//8 36//8
f 42//2 45//2 43//2 37//2
f 65//2 159//2 160//2 66//2
f 164//2 163//2 43//2 45//2
f 162//2 166//2 47//2 46//2
f 165//6 162//6 46//6 44//6
f 161//2 165//2 44//2 41//2 40//2 56//2 67//2
f 166//9 164//9 45//9 47//9
f 39//10 62//10 61//10 38//10
f 38//2 61//2 54//2 53//2
f 53//2 54//2 57//2 48//2
f 52//2 59//2 64//2 51//2
f 50//9 51//9 64//9 63//9
f 50//2 63//2 62//2 39//2
f 48//2 57//2 55//2 36//2
f 66//8 67//8 56//8 55//8
f 160//8 161//8 67//8 66//8
f 54//2 65//2 57//2
f 57//2 65//2 66//2 55//2
f 87//4 95//4 94//4 91//4 90//4
f 92//2 95//2 87//2 86//2
f 92//3 93//3 94//3 95//3
f 92//1 86//1 88//1 89//1 93//1
f 94//4 99//4 98//4 97//4 91//4
f 91//5 97//5 96//5 89//5
f 98//6 101//6 96//6 97//6
f 89//1 96//1 101//1 100//1 93//1
f 98//7 99//7 100//7 101//7
f 93//2 100//2 99//2 94//2
f 89//5 88//5 90//5 91//5
f 132//2 133//2 136//2 135//2
f 136//4 138//4 137//4 135//4
f 146//8 127//8 131//8 147//8
f 133//2 128//2 134//2 136//2
f 156//2 157//2 160//2 159//2
f 164//2 136//2 134//2 163//2
f 162//2 137//2 138//2 166//2
f 165//6 135//6 137//6 162//6
f 161//2 158//2 147//2 131//2 132//2 135//2 165//2
f 166//9 138//9 136//9 164//9
f 130//10 129//10 152//10 153//10
f 129//2 144//2 145//2 152//2
f 144//2 139//2 148//2 145//2
f 143//2 142//2 155//2 150//2
f 141//9 154//9 155//9 142//9
f 141//2 130//2 153//2 154//2
f 139//2 127//2 146//2 148//2
f 157//8 146//8 147//8 158//8
f 160//8 157//8 158//8 161//8
f 145//2 148//2 156//2
f 148//2 146//2 157//2 156//2
usemtl Accent
f 24//6 121//6 120//6 21//6
f 184//5 123//5 26//5 82//5
f 27//9 26//9 123//9 122//9
f 209//4 207//4 17//4 18//4
f 211//2 210//2 28//2 30//2
f 31//2 27//2 122//2 124//2
f 22//11 23//11 24//11 21//11
f 26//12 27//12 28//12 25//12
f 84//5 22//5 21//5 85//5
f 30//2 28//2 27//2 31//2
f 213//5 208//5 19//5 80//5
f 34//13 30//13 31//13 32//13
f 32//14 31//14 124//14 125//14
f 212//15 211//15 30//15 34//15
f 209//2 212//2 34//2 23//2
f 24//2 32//2 125//2 121//2
f 23//2 34//2 32//2 24//2
f 68//16 69//16 169//16 170//16
f 69//2 70//2 168//2 169//2
f 70//17 71//17 167//17 168//17
f 74//17 75//17 79//17 78//17
f 73//2 74//2 78//2 77//2
f 72//16 73//16 77//16 76//16
f 214//18 213//18 80//18 83//18
f 25//5 81//5 82//5 26//5
f 188//19 184//19 82//19 85//19
f 120//5 188//5 85//5 21//5
f 207//5 214//5 83//5 17//5
f 81//20 84//20 85//20 82//20
f 109//6 106//6 120//6 121//6
f 184//5 186//5 111//5 123//5
f 112//9 122//9 123//9 111//9
f 217//1 103//1 102//1 215//1
f 219//2 115//2 113//2 218//2
f 116//2 124//2 122//2 112//2
f 107//21 106//21 109//21 108//21
f 111//22 110//22 113//22 112//22
f 189//5 190//5 106//5 107//5
f 115//2 116//2 112//2 113//2
f 221//5 183//5 104//5 216//5
f 119//23 117//23 116//23 115//23
f 117//14 125//14 124//14 116//14
f 220//24 119//24 115//24 219//24
f 217//2 108//2 119//2 220//2
f 109//2 121//2 125//2 117//2
f 108//2 109//2 117//2 119//2
f 171//16 170//16 169//16 172//16
f 172//2 169//2 168//2 173//2
f 173//17 168//17 167//17 174//17
f 177//17 181//17 182//17 178//17
f 176//2 180//2 181//2 177//2
f 175//16 179//16 180//16 176//16
f 222//25 187//25 183//25 221//25
f 110//5 111//5 186//5 185//5
f 188//19 190//19 186//19 184//19
f 120//5 106//5 190//5 188//5
f 215//5 102//5 187//5 222//5
f 185//26 186//26 190//26 189//26
f 22//5 84//5 214//5 207//5
f 84//18 81//18 213//18 214//18
f 18//2 33//2 212//2 209//2
f 33//15 29//15 211//15 212//15
f 81//5 25//5 208//5 213//5
f 28//1 210//1 208//1 25//1
f 29//2 20//2 210//2 211//2
f 23//4 22//4 207//4 209//4
f 107//5 215//5 222//5 189//5
f 189//25 222//25 221//25 185//25
f 103//2 217//2 220//2 118//2
f 118//24 220//24 219//24 114//24
f 185//5 221//5 216//5 110//5
f 113//4 110//4 216//4 218//4
f 114//2 219//2 218//2 105//2
f 108//1 217//1 215//1 107//1
f 208//6 210//6 218//6 216//6
f 20//2 105//2 218//2 210//2
f 216//5 104//5 19//5 208//5
usemtl Light
f 204//8 203//8 206//8 205//8
usemtl DarkGrey
f 1//9 3//9 5//9 2//9
f 58//6 59//6 52//6 49//6
f 35//2 60//2 58//2 49//2
f 86//9 87//9 90//9 88//9
f 149//6 140//6 143//6 150//6
f 126//2 140//2 149//2 151//2
f 198//8 197//8 201//8 202//8
f 193//4 192//4 196//4 197//4
f 191//1 194//1 198//1 195//1
f 192//27 191//27 195//27 196//27
f 194//28 193//28 197//28 198//28
f 199//29 202//29 206//29 203//29
f 197//8 196//8 200//8 201//8
f 195//8 198//8 202//8 199//8
f 196//8 195//8 199//8 200//8
f 200//30 199//30 203//30 204//30
f 202//31 201//31 205//31 206//31
f 201//32 200//32 204//32 205//32
