# Blender v2.79 (sub 0) OBJ File: 'FloorTile_Side.blend'
# www.blender.org
mtllib FloorTile_Side.mtl
o FloorTile_Side_Plane.046
v -1.000000 0.000000 1.000000
v 1.000000 0.000000 1.000000
v -1.000000 0.000000 -1.000000
v 1.000000 0.000000 -1.000000
v -1.000000 0.039729 -1.000000
v -1.000000 0.039729 1.000000
v 1.000000 0.015330 1.000000
v 1.000000 0.015330 -1.000000
v -0.256347 0.000000 1.000000
v -0.256347 0.000000 -1.000000
v -0.256347 0.041344 1.000000
v -0.256347 0.041344 -1.000000
v -0.274022 0.000000 -1.000000
v -0.274022 0.013947 -1.000000
v -0.274022 0.000000 1.000000
v -0.274022 0.013947 1.000000
v -1.000000 0.000000 -0.402469
v 1.000000 0.000000 -0.402469
v -1.000000 0.039729 -0.402469
v 1.000000 0.015330 -0.390990
v -0.387588 0.041344 -0.390990
v -0.405262 0.013947 -0.402469
v 1.000000 0.000000 -0.444794
v 1.000000 0.015330 -0.431607
v -0.256347 0.041344 -0.431607
v -0.274022 0.013947 -0.444794
v -1.000000 0.000000 -0.444794
v -1.000000 0.039729 -0.444794
v -1.000000 0.000000 0.789926
v -1.000000 0.039729 0.789926
v 1.000000 0.000000 0.776150
v 1.000000 0.015330 0.783626
v -0.256347 0.041344 0.783626
v -0.274022 0.013947 0.789925
v 1.000000 0.000000 0.748192
v 1.000000 0.015330 0.736713
v -0.387588 0.041344 0.736713
v -0.405262 0.013947 0.748192
v -1.000000 0.000000 0.748192
v -1.000000 0.039729 0.748192
v 0.796375 0.000000 1.000000
v 0.796375 0.041344 1.000000
v 0.796375 0.000000 -1.000000
v 0.796375 0.041344 -1.000000
v 0.770054 0.041344 -0.390990
v 0.796375 0.041344 -0.431607
v 0.796375 0.041344 0.783626
v 0.770054 0.041344 0.736713
v 0.813101 0.000000 1.000000
v 0.813101 0.015330 1.000000
v 0.813101 0.000000 -1.000000
v 0.813101 0.015330 -1.000000
v 0.786779 0.015330 -0.390990
v 0.813101 0.015330 -0.431607
v 0.813101 0.015330 0.783626
v 0.786779 0.015330 0.736713
v -0.395275 0.032483 1.000000
v -0.395275 0.032483 -1.000000
v -0.434430 0.032483 -1.000000
v -0.434430 0.032483 1.000000
v -0.526516 0.032483 -0.441894
v -0.565670 0.032483 -0.465102
v -0.395275 0.032483 -0.497409
v -0.434430 0.032483 -0.525138
v -0.395275 0.032483 0.849957
v -0.434430 0.032483 0.870050
v -0.526516 0.032483 0.787461
v -0.565670 0.032483 0.810670
v -0.395275 -0.002719 1.000000
v -0.395275 -0.002719 -1.000000
v -0.459498 -0.002719 -1.000000
v -0.459498 -0.002719 1.000000
v -0.526516 -0.002719 -0.441894
v -0.590739 -0.002719 -0.465102
v -0.395275 -0.002719 -0.497409
v -0.459498 -0.002719 -0.525138
v -0.395275 -0.002719 0.849957
v -0.459498 -0.002719 0.870050
v -0.526516 -0.002719 0.787461
v -0.590739 -0.002719 0.810670
v -0.766753 0.029167 -0.846493
v -0.766753 0.029167 -0.797244
v -0.890084 0.029167 -0.846493
v -0.890084 0.029167 -0.797244
v -0.727565 -0.020181 -0.846493
v -0.727565 -0.020181 -0.797244
v -0.890084 -0.020181 -0.797244
v -0.890084 -0.020181 -0.846493
v -0.766753 0.029167 -0.514556
v -0.766753 0.029167 -0.465307
v -0.890084 0.029167 -0.514556
v -0.890084 0.029167 -0.465307
v -0.727565 -0.020181 -0.514556
v -0.727565 -0.020181 -0.465307
v -0.890084 -0.020181 -0.465307
v -0.890084 -0.020181 -0.514556
v -0.766753 0.029167 -0.182619
v -0.766753 0.029167 -0.133370
v -0.890084 0.029167 -0.182619
v -0.890084 0.029167 -0.133370
v -0.727565 -0.020181 -0.182619
v -0.727565 -0.020181 -0.133370
v -0.890084 -0.020181 -0.133370
v -0.890084 -0.020181 -0.182619
v -0.766753 0.029167 0.149318
v -0.766753 0.029167 0.198567
v -0.890084 0.029167 0.149318
v -0.890084 0.029167 0.198567
v -0.727565 -0.020181 0.149318
v -0.727565 -0.020181 0.198567
v -0.890084 -0.020181 0.198567
v -0.890084 -0.020181 0.149318
v -0.766753 0.029167 0.481255
v -0.766753 0.029167 0.530504
v -0.890084 0.029167 0.481255
v -0.890084 0.029167 0.530504
v -0.727565 -0.020181 0.481255
v -0.727565 -0.020181 0.530504
v -0.890084 -0.020181 0.530504
v -0.890084 -0.020181 0.481255
v -0.766753 0.029167 0.813192
v -0.766753 0.029167 0.862441
v -0.890084 0.029167 0.813192
v -0.890084 0.029167 0.862441
v -0.727565 -0.020181 0.813192
v -0.727565 -0.020181 0.862441
v -0.890084 -0.020181 0.862441
v -0.890084 -0.020181 0.813192
v -0.833562 0.000000 -1.000000
v -0.833562 0.003127 -1.000000
v -0.833562 0.000000 1.000000
v -0.833562 0.003127 1.000000
v -0.833562 0.003127 -0.402469
v -0.833562 0.003127 -0.444794
v -0.833562 0.003127 0.789926
v -0.833562 0.003127 0.748192
v -0.851408 0.000000 -1.000000
v -0.851408 0.039729 -1.000000
v -0.851408 0.039729 -0.402469
v -0.851408 0.039729 -0.444794
v -0.851408 0.039729 0.789926
v -0.851408 0.039729 0.748192
v -0.851408 0.000000 1.000000
v -0.851408 0.039729 1.000000
v 0.685369 0.048272 -0.176129
v 0.685369 0.048272 0.521852
v 0.724740 0.048272 -0.176129
v 0.724740 0.048272 0.521852
v 0.685369 0.030952 0.521852
v 0.685369 0.030952 -0.176129
v 0.724740 0.030952 -0.176129
v 0.724740 0.030952 0.521852
v -0.597931 0.000000 1.000000
v -0.597931 0.013947 1.000000
v -0.597931 0.000000 -1.000000
v -0.597931 0.013947 -1.000000
v -0.721938 0.013947 -0.402469
v -0.597931 0.013947 -0.444794
v -0.597931 0.013947 0.789925
v -0.721938 0.013947 0.748192
v -0.613790 0.000000 -1.000000
v -0.613790 0.003127 -1.000000
v -0.737797 0.003127 -0.402469
v -0.613790 0.003127 -0.444794
v -0.613790 0.003127 0.789925
v -0.737797 0.003127 0.748192
v -0.613790 0.000000 1.000000
v -0.613790 0.003127 1.000000
vn -1.0000 0.0000 0.0000
vn 0.0000 0.0000 -1.0000
vn 0.8988 0.4383 0.0000
vn 0.0000 0.0000 1.0000
vn 0.0000 1.0000 0.0000
vn 0.7831 0.6219 0.0000
vn 1.0000 0.0000 0.0000
vn -0.8403 0.5421 0.0000
vn -0.2557 0.5292 -0.8091
vn -0.2846 0.4570 0.8427
vn 0.7607 0.4891 -0.4268
vn 0.8411 0.5408 0.0000
vn 0.7385 0.4748 0.4786
vn 0.3896 0.0000 0.9210
vn -0.3955 0.2817 0.8742
vn -0.8146 0.5801 0.0000
vn -0.3989 0.2840 -0.8719
vn 0.4299 0.0000 -0.9029
vn -0.2890 0.4235 0.8586
vn -0.5636 0.8260 0.0000
vn -0.2920 0.4279 -0.8554
usemtl Accent
s off
f 29//1 1//1 6//1 30//1
f 137//2 3//2 5//2 138//2
f 27//1 17//1 19//1 28//1
f 3//1 27//1 28//1 5//1
f 39//1 29//1 30//1 40//1
f 17//1 39//1 40//1 19//1
f 141//3 135//3 136//3 142//3
f 144//3 132//3 135//3 141//3
f 139//3 133//3 134//3 140//3
f 142//3 136//3 133//3 139//3
f 143//4 131//4 132//4 144//4
f 140//3 134//3 130//3 138//3
f 28//5 140//5 138//5 5//5
f 1//4 143//4 144//4 6//4
f 40//5 142//5 139//5 19//5
f 19//5 139//5 140//5 28//5
f 6//5 144//5 141//5 30//5
f 30//5 141//5 142//5 40//5
f 129//2 137//2 138//2 130//2
usemtl DarkAccent
f 81//5 83//5 84//5 82//5
f 84//4 87//4 86//4 82//4
f 81//2 85//2 88//2 83//2
f 82//6 86//6 85//6 81//6
f 89//5 91//5 92//5 90//5
f 92//4 95//4 94//4 90//4
f 89//2 93//2 96//2 91//2
f 90//6 94//6 93//6 89//6
f 97//5 99//5 100//5 98//5
f 100//4 103//4 102//4 98//4
f 97//2 101//2 104//2 99//2
f 98//6 102//6 101//6 97//6
f 105//5 107//5 108//5 106//5
f 108//4 111//4 110//4 106//4
f 105//2 109//2 112//2 107//2
f 106//6 110//6 109//6 105//6
f 113//5 115//5 116//5 114//5
f 116//4 119//4 118//4 114//4
f 113//2 117//2 120//2 115//2
f 114//6 118//6 117//6 113//6
f 121//5 123//5 124//5 122//5
f 124//4 127//4 126//4 122//4
f 121//2 125//2 128//2 123//2
f 122//6 126//6 125//6 121//6
f 146//5 148//5 147//5 145//5
f 146//4 149//4 152//4 148//4
f 145//1 150//1 149//1 146//1
f 148//7 152//7 151//7 147//7
f 147//2 151//2 150//2 145//2
usemtl Black
f 134//5 164//5 162//5 130//5
f 136//5 166//5 163//5 133//5
f 133//5 163//5 164//5 134//5
f 132//5 168//5 165//5 135//5
f 135//5 165//5 166//5 136//5
usemtl Main
f 15//4 9//4 11//4 16//4
f 23//7 4//7 8//7 24//7
f 43//2 10//2 12//2 44//2
f 26//8 25//8 12//8 14//8
f 10//2 13//2 14//2 12//2
f 38//8 37//8 21//8 22//8
f 35//7 18//7 20//7 36//7
f 22//9 21//9 25//9 26//9
f 18//7 23//7 24//7 20//7
f 2//7 31//7 32//7 7//7
f 16//8 11//8 33//8 34//8
f 31//7 35//7 36//7 32//7
f 34//10 33//10 37//10 38//10
f 33//5 47//5 48//5 37//5
f 11//5 42//5 47//5 33//5
f 21//5 45//5 46//5 25//5
f 37//5 48//5 45//5 21//5
f 51//2 43//2 44//2 52//2
f 9//4 41//4 42//4 11//4
f 25//5 46//5 44//5 12//5
f 47//11 55//11 56//11 48//11
f 42//12 50//12 55//12 47//12
f 45//13 53//13 54//13 46//13
f 48//12 56//12 53//12 45//12
f 41//4 49//4 50//4 42//4
f 46//12 54//12 52//12 44//12
f 64//5 63//5 58//5 59//5
f 68//5 67//5 61//5 62//5
f 62//5 61//5 63//5 64//5
f 60//5 57//5 65//5 66//5
f 66//5 65//5 67//5 68//5
f 61//14 73//14 75//14 63//14
f 68//15 80//15 78//15 66//15
f 67//7 79//7 73//7 61//7
f 66//16 78//16 72//16 60//16
f 63//7 75//7 70//7 58//7
f 64//17 76//17 74//17 62//17
f 62//16 74//16 80//16 68//16
f 58//2 70//2 71//2 59//2
f 65//18 77//18 79//18 67//18
f 59//16 71//16 76//16 64//16
f 57//7 69//7 77//7 65//7
f 60//4 72//4 69//4 57//4
usemtl DarkGrey
f 54//5 24//5 8//5 52//5
f 49//4 2//4 7//4 50//4
f 158//5 26//5 14//5 156//5
f 153//4 15//4 16//4 154//4
f 160//5 38//5 22//5 157//5
f 56//5 36//5 20//5 53//5
f 157//5 22//5 26//5 158//5
f 53//5 20//5 24//5 54//5
f 50//5 7//5 32//5 55//5
f 154//5 16//5 34//5 159//5
f 55//5 32//5 36//5 56//5
f 159//5 34//5 38//5 160//5
f 4//2 51//2 52//2 8//2
f 161//2 129//2 130//2 162//2
f 13//2 155//2 156//2 14//2
f 165//19 159//19 160//19 166//19
f 168//20 154//20 159//20 165//20
f 163//21 157//21 158//21 164//21
f 166//20 160//20 157//20 163//20
f 167//4 153//4 154//4 168//4
f 164//20 158//20 156//20 162//20
f 131//4 167//4 168//4 132//4
f 155//2 161//2 162//2 156//2
