# Blender v2.79 (sub 0) OBJ File: 'Props_Shelf.blend'
# www.blender.org
mtllib Props_Shelf.mtl
o Props_Shelf_Cube.001
v -0.869783 0.003508 0.259028
v -0.869783 0.149875 0.405395
v -0.869783 2.357214 0.405395
v -0.869783 2.503581 0.259028
v -0.869783 0.149875 -0.405395
v -0.869783 0.003508 -0.259028
v -0.869783 2.503581 -0.259028
v -0.869783 2.357214 -0.405395
v -0.746986 0.147135 0.390500
v -0.746986 0.006146 0.249511
v -0.746986 2.476235 0.249511
v -0.746986 2.335246 0.390500
v -0.746986 0.006146 -0.249511
v -0.746986 0.147135 -0.390500
v -0.746986 2.335246 -0.390500
v -0.746986 2.476235 -0.249511
v -0.823190 0.003508 -0.259028
v -0.823190 0.149875 -0.405395
v -0.823190 2.503581 -0.259028
v -0.823190 2.357214 -0.405395
v -0.823190 0.003508 0.259028
v -0.823190 0.149875 0.405395
v -0.823190 2.503581 0.259028
v -0.823190 2.357214 0.405395
v -0.822690 0.147135 -0.390500
v -0.822690 2.476235 -0.249511
v -0.822690 0.006146 0.249511
v -0.822690 2.335246 0.390500
v -0.822690 0.006146 -0.249511
v -0.822690 2.335246 -0.390500
v -0.822690 0.147135 0.390500
v -0.822690 2.476235 0.249511
v -0.869783 0.037508 0.244945
v -0.869783 0.163959 0.371395
v -0.869783 2.343131 0.371395
v -0.869783 2.469581 0.244945
v -0.869783 0.163959 -0.371395
v -0.869783 0.037508 -0.244945
v -0.869783 2.469581 -0.244945
v -0.869783 2.343131 -0.371395
v -0.746986 0.161219 0.356500
v -0.746986 0.040146 0.235427
v -0.746986 2.442235 0.235427
v -0.746986 2.321163 0.356500
v -0.746986 0.040146 -0.235427
v -0.746986 0.161219 -0.356500
v -0.746986 2.321163 -0.356500
v -0.746986 2.442235 -0.235427
v -0.832681 0.036720 -0.243345
v -0.838162 0.162736 -0.371416
v -0.844932 2.469145 -0.244857
v -0.842927 2.342422 -0.372192
v -0.832681 0.036720 0.243345
v -0.838162 0.162736 0.371416
v -0.844932 2.469145 0.244857
v -0.842927 2.342422 0.372192
v -0.828214 0.163313 -0.357873
v -0.839392 2.444898 -0.236292
v -0.819508 0.042020 0.237811
v -0.835098 2.324084 0.356714
v -0.819508 0.042020 -0.237811
v -0.835098 2.324084 -0.356714
v -0.828214 0.163313 0.357873
v -0.839392 2.444898 0.236292
v 0.869783 0.003508 0.259028
v 0.869783 0.149875 0.405395
v 0.869783 2.357214 0.405395
v 0.869783 2.503581 0.259028
v 0.869783 0.149875 -0.405395
v 0.869783 0.003508 -0.259028
v 0.869783 2.503581 -0.259028
v 0.869783 2.357214 -0.405395
v 0.746986 0.147135 0.390500
v 0.746986 0.006146 0.249511
v 0.746986 2.476235 0.249511
v 0.746986 2.335246 0.390500
v 0.746986 0.006146 -0.249511
v 0.746986 0.147135 -0.390500
v 0.746986 2.335246 -0.390500
v 0.746986 2.476235 -0.249511
v 0.823190 0.003508 -0.259028
v 0.823190 0.149875 -0.405395
v 0.823190 2.503581 -0.259028
v 0.823190 2.357214 -0.405395
v 0.823190 0.003508 0.259028
v 0.823190 0.149875 0.405395
v 0.823190 2.503581 0.259028
v 0.823190 2.357214 0.405395
v 0.822690 0.147135 -0.390500
v 0.822690 2.476235 -0.249511
v 0.822690 0.006146 0.249511
v 0.822690 2.335246 0.390500
v 0.822690 0.006146 -0.249511
v 0.822690 2.335246 -0.390500
v 0.822690 0.147135 0.390500
v 0.822690 2.476235 0.249511
v 0.869783 0.037508 0.244945
v 0.869783 0.163959 0.371395
v 0.869783 2.343131 0.371395
v 0.869783 2.469581 0.244945
v 0.869783 0.163959 -0.371395
v 0.869783 0.037508 -0.244945
v 0.869783 2.469581 -0.244945
v 0.869783 2.343131 -0.371395
v 0.746986 0.161219 0.356500
v 0.746986 0.040146 0.235427
v 0.746986 2.442235 0.235427
v 0.746986 2.321163 0.356500
v 0.746986 0.040146 -0.235427
v 0.746986 0.161219 -0.356500
v 0.746986 2.321163 -0.356500
v 0.746986 2.442235 -0.235427
v 0.832681 0.036720 -0.243345
v 0.838162 0.162736 -0.371416
v 0.844932 2.469145 -0.244857
v 0.842927 2.342422 -0.372192
v 0.832681 0.036720 0.243345
v 0.838162 0.162736 0.371416
v 0.844932 2.469145 0.244857
v 0.842927 2.342422 0.372192
v 0.828214 0.163313 -0.357873
v 0.839392 2.444898 -0.236292
v 0.819508 0.042020 0.237811
v 0.835098 2.324084 0.356714
v 0.819508 0.042020 -0.237811
v 0.835098 2.324084 -0.356714
v 0.828214 0.163313 0.357873
v 0.839392 2.444898 0.236292
v -0.894499 2.251396 0.384272
v -0.894499 2.251396 -0.384272
v -0.894499 2.210492 0.384272
v -0.894499 2.210492 -0.384272
v -0.849880 2.251396 0.345936
v -0.849880 2.251396 -0.345936
v -0.849880 2.234605 0.345936
v -0.849880 2.234605 -0.345936
v 0.894499 2.251396 0.384272
v 0.894499 2.251396 -0.384272
v 0.894499 2.210492 0.384272
v 0.894499 2.210492 -0.384272
v 0.849880 2.251396 0.345936
v 0.849880 2.251396 -0.345936
v 0.849880 2.234605 0.345936
v 0.849880 2.234605 -0.345936
v -0.894499 1.641933 0.384272
v -0.894499 1.641933 -0.384272
v -0.894499 1.601029 0.384272
v -0.894499 1.601029 -0.384272
v -0.849880 1.641933 0.345936
v -0.849880 1.641933 -0.345936
v -0.849880 1.625142 0.345936
v -0.849880 1.625142 -0.345936
v 0.894499 1.641933 0.384272
v 0.894499 1.641933 -0.384272
v 0.894499 1.601029 0.384272
v 0.894499 1.601029 -0.384272
v 0.849880 1.641933 0.345936
v 0.849880 1.641933 -0.345936
v 0.849880 1.625142 0.345936
v 0.849880 1.625142 -0.345936
v -0.894499 1.032470 0.384272
v -0.894499 1.032470 -0.384272
v -0.894499 0.991566 0.384272
v -0.894499 0.991566 -0.384272
v -0.849880 1.032470 0.345936
v -0.849880 1.032470 -0.345936
v -0.849880 1.015679 0.345936
v -0.849880 1.015679 -0.345936
v 0.894499 1.032470 0.384272
v 0.894499 1.032470 -0.384272
v 0.894499 0.991566 0.384272
v 0.894499 0.991566 -0.384272
v 0.849880 1.032470 0.345936
v 0.849880 1.032470 -0.345936
v 0.849880 1.015679 0.345936
v 0.849880 1.015679 -0.345936
v -0.894499 0.423006 0.384272
v -0.894499 0.423006 -0.384272
v -0.894499 0.382103 0.384272
v -0.894499 0.382103 -0.384272
v -0.849880 0.423006 0.345936
v -0.849880 0.423006 -0.345936
v -0.849880 0.406216 0.345936
v -0.849880 0.406216 -0.345936
v 0.894499 0.423006 0.384272
v 0.894499 0.423006 -0.384272
v 0.894499 0.382103 0.384272
v 0.894499 0.382103 -0.384272
v 0.849880 0.423006 0.345936
v 0.849880 0.423006 -0.345936
v 0.849880 0.406216 0.345936
v 0.849880 0.406216 -0.345936
vn 0.0000 1.0000 0.0000
vn 0.0000 0.0000 1.0000
vn 0.0000 0.0000 -1.0000
vn 0.0000 -0.7071 -0.7071
vn 0.0000 0.7071 -0.7071
vn 0.0000 -0.7071 0.7071
vn 0.0000 0.7071 0.7071
vn 0.0000 -1.0000 0.0000
vn 0.9998 0.0136 0.0136
vn 0.9983 -0.0411 -0.0411
vn 0.9994 0.0000 0.0335
vn 0.9998 0.0183 0.0000
vn 0.9825 -0.1862 0.0000
vn 0.9983 -0.0411 0.0411
vn 0.9998 0.0136 -0.0136
vn 0.9994 0.0000 -0.0335
vn -0.0175 -0.9998 0.0000
vn 0.0140 0.0002 -0.9999
vn -0.0094 -0.0003 1.0000
vn 0.0046 0.7100 0.7042
vn -0.0261 -0.7065 0.7072
vn 0.0009 0.7053 -0.7089
vn -0.0060 -0.7080 -0.7062
vn 0.0258 0.9997 -0.0000
vn 0.0212 0.9998 0.0000
vn -0.9631 -0.2022 -0.1775
vn 0.0046 0.7100 -0.7042
vn -0.0060 -0.7080 0.7062
vn -0.6125 0.5421 0.5753
vn 0.0140 0.0002 0.9999
vn -0.8534 -0.0023 -0.5213
vn -0.9749 -0.2228 0.0000
vn -0.0288 -0.9996 0.0000
vn -0.0094 -0.0003 -1.0000
vn 0.0009 0.7053 0.7089
vn -0.0261 -0.7065 -0.7072
vn -0.3732 0.9277 0.0000
vn -0.6125 0.5421 -0.5753
vn -0.9631 -0.2022 0.1775
vn -0.8534 -0.0023 0.5213
vn 1.0000 -0.0000 0.0000
vn -1.0000 0.0000 0.0000
vn -0.9998 0.0136 0.0136
vn -0.9983 -0.0411 -0.0411
vn -0.9994 0.0000 0.0335
vn -0.9998 0.0183 0.0000
vn -0.9825 -0.1862 0.0000
vn -0.9983 -0.0411 0.0411
vn -0.9998 0.0136 -0.0136
vn -0.9994 0.0000 -0.0335
vn 0.0175 -0.9998 0.0000
vn -0.0140 0.0002 -0.9999
vn 0.0094 -0.0003 1.0000
vn -0.0046 0.7100 0.7042
vn 0.0261 -0.7065 0.7072
vn -0.0009 0.7053 -0.7089
vn 0.0060 -0.7080 -0.7062
vn -0.0258 0.9997 -0.0000
vn -0.0212 0.9998 0.0000
vn 0.9631 -0.2022 -0.1775
vn -0.0046 0.7100 -0.7042
vn 0.0060 -0.7080 0.7062
vn 0.6125 0.5421 0.5753
vn -0.0140 0.0002 0.9999
vn 0.8534 -0.0023 -0.5213
vn 0.9749 -0.2228 0.0000
vn 0.0288 -0.9996 0.0000
vn 0.0094 -0.0003 -1.0000
vn -0.0009 0.7053 0.7089
vn 0.0261 -0.7065 -0.7072
vn 0.3732 0.9277 0.0000
vn 0.6125 0.5421 -0.5753
vn 0.9631 -0.2022 0.1775
vn 0.8534 -0.0023 0.5213
usemtl Accent
s off
f 19//1 7//1 4//1 23//1
f 22//2 24//2 3//2 2//2
f 25//3 30//3 15//3 14//3
f 17//4 6//4 5//4 18//4
f 26//5 16//5 15//5 30//5
f 27//6 10//6 9//6 31//6
f 23//7 4//7 3//7 24//7
f 29//8 13//8 10//8 27//8
f 6//8 17//8 21//8 1//8
f 32//9 23//9 24//9 28//9
f 1//6 21//6 22//6 2//6
f 7//5 19//5 20//5 8//5
f 29//10 17//10 18//10 25//10
f 5//3 8//3 20//3 18//3
f 31//11 28//11 24//11 22//11
f 26//12 19//12 23//12 32//12
f 16//1 26//1 32//1 11//1
f 9//2 12//2 28//2 31//2
f 13//4 29//4 25//4 14//4
f 11//7 32//7 28//7 12//7
f 17//13 29//13 27//13 21//13
f 21//14 27//14 31//14 22//14
f 19//15 26//15 30//15 20//15
f 18//16 20//16 30//16 25//16
f 51//17 55//17 36//17 39//17
f 54//18 34//18 35//18 56//18
f 57//19 46//19 47//19 62//19
f 49//20 50//20 37//20 38//20
f 58//21 62//21 47//21 48//21
f 59//22 63//22 41//22 42//22
f 55//23 56//23 35//23 36//23
f 61//24 59//24 42//24 45//24
f 38//25 33//25 53//25 49//25
f 64//26 60//26 56//26 55//26
f 33//27 34//27 54//27 53//27
f 39//28 40//28 52//28 51//28
f 61//29 57//29 50//29 49//29
f 37//30 50//30 52//30 40//30
f 63//31 54//31 56//31 60//31
f 58//32 64//32 55//32 51//32
f 48//33 43//33 64//33 58//33
f 41//34 63//34 60//34 44//34
f 45//35 46//35 57//35 61//35
f 43//36 44//36 60//36 64//36
f 49//37 53//37 59//37 61//37
f 53//38 54//38 63//38 59//38
f 51//39 52//39 62//39 58//39
f 50//40 57//40 62//40 52//40
f 13//41 14//41 46//41 45//41
f 5//42 6//42 38//42 37//42
f 7//42 8//42 40//42 39//42
f 15//41 16//41 48//41 47//41
f 1//42 2//42 34//42 33//42
f 9//41 10//41 42//41 41//41
f 11//41 12//41 44//41 43//41
f 3//42 4//42 36//42 35//42
f 6//42 1//42 33//42 38//42
f 10//41 13//41 45//41 42//41
f 12//41 9//41 41//41 44//41
f 2//42 3//42 35//42 34//42
f 16//41 11//41 43//41 48//41
f 4//42 7//42 39//42 36//42
f 8//42 5//42 37//42 40//42
f 14//41 15//41 47//41 46//41
f 83//1 87//1 68//1 71//1
f 86//2 66//2 67//2 88//2
f 89//3 78//3 79//3 94//3
f 81//4 82//4 69//4 70//4
f 90//5 94//5 79//5 80//5
f 91//6 95//6 73//6 74//6
f 87//7 88//7 67//7 68//7
f 93//8 91//8 74//8 77//8
f 70//8 65//8 85//8 81//8
f 96//43 92//43 88//43 87//43
f 65//6 66//6 86//6 85//6
f 71//5 72//5 84//5 83//5
f 93//44 89//44 82//44 81//44
f 69//3 82//3 84//3 72//3
f 95//45 86//45 88//45 92//45
f 90//46 96//46 87//46 83//46
f 80//1 75//1 96//1 90//1
f 73//2 95//2 92//2 76//2
f 77//4 78//4 89//4 93//4
f 75//7 76//7 92//7 96//7
f 81//47 85//47 91//47 93//47
f 85//48 86//48 95//48 91//48
f 83//49 84//49 94//49 90//49
f 82//50 89//50 94//50 84//50
f 115//51 103//51 100//51 119//51
f 118//52 120//52 99//52 98//52
f 121//53 126//53 111//53 110//53
f 113//54 102//54 101//54 114//54
f 122//55 112//55 111//55 126//55
f 123//56 106//56 105//56 127//56
f 119//57 100//57 99//57 120//57
f 125//58 109//58 106//58 123//58
f 102//59 113//59 117//59 97//59
f 128//60 119//60 120//60 124//60
f 97//61 117//61 118//61 98//61
f 103//62 115//62 116//62 104//62
f 125//63 113//63 114//63 121//63
f 101//64 104//64 116//64 114//64
f 127//65 124//65 120//65 118//65
f 122//66 115//66 119//66 128//66
f 112//67 122//67 128//67 107//67
f 105//68 108//68 124//68 127//68
f 109//69 125//69 121//69 110//69
f 107//70 128//70 124//70 108//70
f 113//71 125//71 123//71 117//71
f 117//72 123//72 127//72 118//72
f 115//73 122//73 126//73 116//73
f 114//74 116//74 126//74 121//74
f 77//42 109//42 110//42 78//42
f 69//41 101//41 102//41 70//41
f 71//41 103//41 104//41 72//41
f 79//42 111//42 112//42 80//42
f 65//41 97//41 98//41 66//41
f 73//42 105//42 106//42 74//42
f 75//42 107//42 108//42 76//42
f 67//41 99//41 100//41 68//41
f 70//41 102//41 97//41 65//41
f 74//42 106//42 109//42 77//42
f 76//42 108//42 105//42 73//42
f 66//41 98//41 99//41 67//41
f 80//42 112//42 107//42 75//42
f 68//41 100//41 103//41 71//41
f 72//41 104//41 101//41 69//41
f 78//42 110//42 111//42 79//42
usemtl Main
f 137//1 141//1 133//1 129//1
f 130//3 138//3 140//3 132//3
f 130//42 132//42 131//42 129//42
f 137//2 129//2 131//2 139//2
f 134//1 142//1 138//1 130//1
f 134//41 133//41 135//41 136//41
f 130//1 129//1 133//1 134//1
f 136//2 144//2 142//2 134//2
f 141//3 143//3 135//3 133//3
f 138//41 137//41 139//41 140//41
f 142//42 144//42 143//42 141//42
f 138//1 142//1 141//1 137//1
f 132//8 140//8 139//8 131//8
f 153//1 157//1 149//1 145//1
f 146//3 154//3 156//3 148//3
f 146//42 148//42 147//42 145//42
f 153//2 145//2 147//2 155//2
f 150//1 158//1 154//1 146//1
f 150//41 149//41 151//41 152//41
f 146//1 145//1 149//1 150//1
f 152//2 160//2 158//2 150//2
f 157//3 159//3 151//3 149//3
f 154//41 153//41 155//41 156//41
f 158//42 160//42 159//42 157//42
f 154//1 158//1 157//1 153//1
f 148//8 156//8 155//8 147//8
f 169//1 173//1 165//1 161//1
f 162//3 170//3 172//3 164//3
f 162//42 164//42 163//42 161//42
f 169//2 161//2 163//2 171//2
f 166//1 174//1 170//1 162//1
f 166//41 165//41 167//41 168//41
f 162//1 161//1 165//1 166//1
f 168//2 176//2 174//2 166//2
f 173//3 175//3 167//3 165//3
f 170//41 169//41 171//41 172//41
f 174//42 176//42 175//42 173//42
f 170//1 174//1 173//1 169//1
f 164//8 172//8 171//8 163//8
f 185//1 189//1 181//1 177//1
f 178//3 186//3 188//3 180//3
f 178//42 180//42 179//42 177//42
f 185//2 177//2 179//2 187//2
f 182//1 190//1 186//1 178//1
f 182//41 181//41 183//41 184//41
f 178//1 177//1 181//1 182//1
f 184//2 192//2 190//2 182//2
f 189//3 191//3 183//3 181//3
f 186//41 185//41 187//41 188//41
f 190//42 192//42 191//42 189//42
f 186//1 190//1 189//1 185//1
f 180//8 188//8 187//8 179//8
usemtl DarkGrey
f 135//1 143//1 144//1 136//1
f 151//1 159//1 160//1 152//1
f 167//1 175//1 176//1 168//1
f 183//1 191//1 192//1 184//1
