# Blender v2.79 (sub 0) OBJ File: 'Props_Vessel_Short.blend'
# www.blender.org
mtllib Props_Vessel_Short.mtl
o Props_Vessel_Short_Cube.034
v 0.059504 0.452182 -0.143655
v 0.143655 0.452182 -0.059504
v 0.143655 0.452182 0.059504
v 0.059504 0.452182 0.143655
v -0.059504 0.452182 0.143655
v -0.143655 0.452182 0.059504
v -0.143655 0.452182 -0.059504
v -0.059504 0.452182 -0.143655
v 0.110605 0.504952 -0.045814
v 0.045814 0.504952 -0.110605
v 0.110605 0.504952 0.045814
v 0.045814 0.504952 0.110605
v -0.045814 0.504951 0.110605
v -0.110606 0.504952 0.045814
v -0.110606 0.504952 -0.045814
v -0.045814 0.504951 -0.110605
v 0.068239 0.531212 -0.028266
v 0.028266 0.531212 -0.068239
v 0.068239 0.531212 0.028266
v 0.028266 0.531212 0.068239
v -0.028266 0.531212 0.068239
v -0.068239 0.531212 0.028266
v -0.068239 0.531212 -0.028266
v -0.028266 0.531212 -0.068239
v 0.059330 0.511773 -0.024575
v 0.024575 0.511773 -0.059330
v 0.059330 0.511773 0.024575
v 0.024575 0.511773 0.059330
v -0.024575 0.511773 0.059330
v -0.059330 0.511773 0.024575
v -0.059330 0.511773 -0.024575
v -0.024575 0.511773 -0.059330
v 0.059504 0.422500 -0.143655
v 0.143655 0.422500 -0.059504
v 0.143655 0.422500 0.059504
v 0.059504 0.422500 0.143655
v -0.059504 0.422500 0.143655
v -0.143655 0.422500 0.059504
v -0.143655 0.422500 -0.059504
v -0.059504 0.422500 -0.143655
v 0.143655 0.382633 -0.059504
v 0.143655 0.382633 0.059504
v 0.059504 0.382633 0.143655
v -0.059504 0.382633 0.143655
v -0.143655 0.382633 0.059504
v -0.143655 0.382633 -0.059504
v -0.059504 0.382633 -0.143655
v 0.059504 0.382633 -0.143655
v 0.055882 0.383846 -0.134912
v 0.055882 0.421287 -0.134912
v -0.055883 0.421287 -0.134912
v -0.134912 0.421287 -0.055882
v -0.134912 0.421287 0.055882
v -0.055883 0.421287 0.134912
v 0.055882 0.421287 0.134912
v 0.134912 0.421287 0.055882
v 0.134912 0.421287 -0.055882
v 0.134912 0.383846 -0.055882
v 0.134912 0.383846 0.055882
v 0.055882 0.383846 0.134912
v -0.055883 0.383846 0.134912
v -0.134912 0.383846 0.055882
v -0.134912 0.383846 -0.055882
v -0.055883 0.383846 -0.134912
v 0.059504 0.072216 -0.143655
v 0.143655 0.072216 -0.059504
v 0.143655 0.072216 0.059504
v 0.059504 0.072216 0.143655
v -0.059504 0.072216 0.143655
v -0.143655 0.072216 0.059504
v -0.143655 0.072216 -0.059504
v -0.059504 0.072216 -0.143655
v 0.110606 0.019446 -0.045814
v 0.045814 0.019446 -0.110605
v 0.110606 0.019446 0.045814
v 0.045814 0.019446 0.110605
v -0.045814 0.019446 0.110605
v -0.110605 0.019446 0.045814
v -0.110605 0.019446 -0.045814
v -0.045814 0.019446 -0.110605
v 0.068239 -0.006815 -0.028266
v 0.028266 -0.006815 -0.068239
v 0.068239 -0.006815 0.028266
v 0.028266 -0.006815 0.068239
v -0.028266 -0.006815 0.068239
v -0.068239 -0.006815 0.028266
v -0.068239 -0.006815 -0.028266
v -0.028266 -0.006815 -0.068239
v 0.059330 0.012625 -0.024575
v 0.024575 0.012625 -0.059330
v 0.059330 0.012625 0.024575
v 0.024575 0.012625 0.059330
v -0.024575 0.012625 0.059330
v -0.059330 0.012625 0.024575
v -0.059330 0.012625 -0.024575
v -0.024575 0.012625 -0.059330
v 0.059504 0.101898 -0.143655
v 0.143655 0.101898 -0.059504
v 0.143655 0.101898 0.059504
v 0.059504 0.101898 0.143655
v -0.059504 0.101898 0.143655
v -0.143655 0.101898 0.059504
v -0.143655 0.101898 -0.059504
v -0.059504 0.101898 -0.143655
v 0.143655 0.141765 -0.059504
v 0.143655 0.141765 0.059504
v 0.059504 0.141765 0.143655
v -0.059504 0.141765 0.143655
v -0.143655 0.141765 0.059504
v -0.143655 0.141765 -0.059504
v -0.059504 0.141765 -0.143655
v 0.059504 0.141765 -0.143655
v 0.055882 0.140552 -0.134912
v 0.055883 0.103111 -0.134912
v -0.055882 0.103111 -0.134912
v -0.134912 0.103111 -0.055882
v -0.134912 0.103111 0.055882
v -0.055882 0.103111 0.134912
v 0.055882 0.103111 0.134912
v 0.134912 0.103111 0.055882
v 0.134912 0.103111 -0.055882
v 0.134912 0.140552 -0.055882
v 0.134912 0.140552 0.055882
v 0.055882 0.140552 0.134912
v -0.055882 0.140552 0.134912
v -0.134912 0.140552 0.055882
v -0.134912 0.140552 -0.055882
v -0.055882 0.140552 -0.134912
vn 0.7071 -0.0000 -0.7071
vn 1.0000 -0.0000 -0.0000
vn 0.7071 -0.0000 0.7071
vn 0.0000 -0.0000 1.0000
vn -0.7071 0.0000 0.7071
vn -1.0000 0.0000 -0.0000
vn -0.8475 0.5308 0.0000
vn -0.7071 0.0000 -0.7071
vn -0.0000 0.0000 -1.0000
vn -0.3725 0.8500 0.3725
vn -0.0000 0.5308 0.8475
vn -0.5993 0.5308 -0.5993
vn 0.8475 0.5308 -0.0000
vn -0.5993 0.5308 0.5993
vn -0.0000 0.5308 -0.8475
vn 0.5993 0.5308 -0.5993
vn 0.5993 0.5308 0.5993
vn 0.6428 0.4166 0.6428
vn 0.3725 0.8500 0.3725
vn 0.3725 0.8500 -0.3725
vn -0.0000 0.8500 -0.5269
vn -0.5268 0.8500 -0.0000
vn -0.0000 0.8500 0.5269
vn 0.5269 0.8500 0.0000
vn -0.3725 0.8500 -0.3725
vn 0.6428 0.4166 -0.6428
vn -0.6428 0.4166 -0.6428
vn -0.6428 0.4166 0.6428
vn 0.0000 0.4166 0.9091
vn 0.9091 0.4166 0.0000
vn 0.0000 0.4166 -0.9091
vn -0.9091 0.4166 -0.0000
vn -0.1374 0.9905 -0.0000
vn 0.1374 -0.9905 -0.0000
vn -0.0972 0.9905 0.0972
vn 0.0972 -0.9905 0.0972
vn -0.0000 0.9905 0.1374
vn 0.0000 -0.9905 0.1374
vn 0.0972 0.9905 0.0972
vn -0.0972 -0.9905 0.0972
vn 0.0972 -0.9905 -0.0972
vn -0.0972 0.9905 -0.0972
vn 0.0000 -0.9905 -0.1374
vn -0.0000 0.9905 -0.1374
vn -0.0972 -0.9905 -0.0972
vn 0.0972 0.9905 -0.0972
vn -0.1374 -0.9905 -0.0000
vn 0.1374 0.9905 -0.0000
vn -0.8475 -0.5308 -0.0000
vn -0.3725 -0.8500 0.3725
vn 0.0000 -0.5308 0.8475
vn -0.5993 -0.5308 -0.5993
vn 0.8475 -0.5308 -0.0000
vn -0.5993 -0.5308 0.5993
vn 0.0000 -0.5308 -0.8475
vn 0.5993 -0.5308 -0.5993
vn 0.5993 -0.5308 0.5993
vn 0.6428 -0.4166 0.6428
vn 0.3725 -0.8500 0.3725
vn 0.3725 -0.8500 -0.3725
vn 0.0000 -0.8500 -0.5269
vn -0.5269 -0.8500 -0.0000
vn 0.0000 -0.8500 0.5269
vn 0.5269 -0.8500 0.0000
vn -0.3725 -0.8500 -0.3725
vn 0.6428 -0.4166 -0.6428
vn -0.6428 -0.4166 -0.6428
vn -0.6428 -0.4166 0.6428
vn 0.0000 -0.4166 0.9091
vn 0.9091 -0.4166 0.0000
vn 0.0000 -0.4166 -0.9091
vn -0.9091 -0.4166 -0.0000
vn 0.0000 1.0000 0.0000
vn 0.0000 -1.0000 0.0000
usemtl Main
s off
f 33//1 1//1 2//1 34//1
f 34//2 2//2 3//2 35//2
f 35//3 3//3 4//3 36//3
f 36//4 4//4 5//4 37//4
f 37//5 5//5 6//5 38//5
f 38//6 6//6 7//6 39//6
f 7//7 6//7 14//7 15//7
f 39//8 7//8 8//8 40//8
f 40//9 8//9 1//9 33//9
f 14//10 13//10 21//10 22//10
f 5//11 4//11 12//11 13//11
f 8//12 7//12 15//12 16//12
f 3//13 2//13 9//13 11//13
f 6//14 5//14 13//14 14//14
f 1//15 8//15 16//15 10//15
f 2//16 1//16 10//16 9//16
f 4//17 3//17 11//17 12//17
f 24//18 23//18 31//18 32//18
f 12//19 11//19 19//19 20//19
f 9//20 10//20 18//20 17//20
f 10//21 16//21 24//21 18//21
f 15//22 14//22 22//22 23//22
f 13//23 12//23 20//23 21//23
f 11//24 9//24 17//24 19//24
f 16//25 15//25 23//25 24//25
f 22//26 21//26 29//26 30//26
f 20//27 19//27 27//27 28//27
f 17//28 18//28 26//28 25//28
f 18//29 24//29 32//29 26//29
f 23//30 22//30 30//30 31//30
f 21//31 20//31 28//31 29//31
f 19//32 17//32 25//32 27//32
f 46//33 45//33 62//33 63//33
f 34//34 35//34 56//34 57//34
f 45//35 44//35 61//35 62//35
f 35//36 36//36 55//36 56//36
f 44//37 43//37 60//37 61//37
f 36//38 37//38 54//38 55//38
f 43//39 42//39 59//39 60//39
f 37//40 38//40 53//40 54//40
f 48//9 112//9 111//9 47//9
f 33//41 34//41 57//41 50//41
f 47//42 46//42 63//42 64//42
f 40//43 33//43 50//43 51//43
f 48//44 47//44 64//44 49//44
f 39//45 40//45 51//45 52//45
f 41//46 48//46 49//46 58//46
f 38//47 39//47 52//47 53//47
f 42//48 41//48 58//48 59//48
f 97//1 98//1 66//1 65//1
f 98//2 99//2 67//2 66//2
f 99//3 100//3 68//3 67//3
f 100//4 101//4 69//4 68//4
f 101//5 102//5 70//5 69//5
f 102//6 103//6 71//6 70//6
f 71//49 79//49 78//49 70//49
f 103//8 104//8 72//8 71//8
f 104//9 97//9 65//9 72//9
f 78//50 86//50 85//50 77//50
f 69//51 77//51 76//51 68//51
f 72//52 80//52 79//52 71//52
f 67//53 75//53 73//53 66//53
f 70//54 78//54 77//54 69//54
f 65//55 74//55 80//55 72//55
f 66//56 73//56 74//56 65//56
f 68//57 76//57 75//57 67//57
f 88//58 96//58 95//58 87//58
f 76//59 84//59 83//59 75//59
f 73//60 81//60 82//60 74//60
f 74//61 82//61 88//61 80//61
f 79//62 87//62 86//62 78//62
f 77//63 85//63 84//63 76//63
f 75//64 83//64 81//64 73//64
f 80//65 88//65 87//65 79//65
f 86//66 94//66 93//66 85//66
f 84//67 92//67 91//67 83//67
f 81//68 89//68 90//68 82//68
f 82//69 90//69 96//69 88//69
f 87//70 95//70 94//70 86//70
f 85//71 93//71 92//71 84//71
f 83//72 91//72 89//72 81//72
f 110//47 127//47 126//47 109//47
f 98//48 121//48 120//48 99//48
f 109//40 126//40 125//40 108//40
f 99//39 120//39 119//39 100//39
f 108//38 125//38 124//38 107//38
f 100//37 119//37 118//37 101//37
f 107//36 124//36 123//36 106//36
f 101//35 118//35 117//35 102//35
f 41//1 105//1 112//1 48//1
f 42//2 106//2 105//2 41//2
f 43//3 107//3 106//3 42//3
f 44//4 108//4 107//4 43//4
f 45//5 109//5 108//5 44//5
f 46//6 110//6 109//6 45//6
f 47//8 111//8 110//8 46//8
f 97//46 114//46 121//46 98//46
f 111//45 128//45 127//45 110//45
f 104//44 115//44 114//44 97//44
f 112//43 113//43 128//43 111//43
f 103//42 116//42 115//42 104//42
f 105//41 122//41 113//41 112//41
f 102//33 117//33 116//33 103//33
f 106//34 123//34 122//34 105//34
usemtl Accent
f 64//9 51//9 50//9 49//9
f 63//8 52//8 51//8 64//8
f 62//6 53//6 52//6 63//6
f 61//5 54//5 53//5 62//5
f 60//4 55//4 54//4 61//4
f 59//3 56//3 55//3 60//3
f 58//2 57//2 56//2 59//2
f 49//1 50//1 57//1 58//1
f 128//9 113//9 114//9 115//9
f 127//8 128//8 115//8 116//8
f 126//6 127//6 116//6 117//6
f 125//5 126//5 117//5 118//5
f 124//4 125//4 118//4 119//4
f 123//3 124//3 119//3 120//3
f 122//2 123//2 120//2 121//2
f 113//1 122//1 121//1 114//1
usemtl DarkGrey
f 25//73 26//73 32//73 31//73 30//73 29//73 28//73 27//73
f 89//74 91//74 92//74 93//74 94//74 95//74 96//74 90//74
