# Blender v2.79 (sub 0) OBJ File: 'RoofTile_OrangeVent.blend'
# www.blender.org
mtllib RoofTile_OrangeVent.mtl
o RoofTile_OrangeVent_Plane.123
v -0.983209 0.045754 0.983209
v 0.983209 0.045754 0.983209
v -0.983209 0.045754 -0.983209
v 0.983209 0.045754 -0.983209
v -0.947488 0.012932 0.947488
v 0.947488 0.012932 0.947488
v -0.947488 0.012932 -0.947488
v 0.947488 0.012932 -0.947488
v -0.947488 0.073106 -0.947488
v -0.947488 0.073106 0.947488
v 0.947488 0.073106 0.947488
v 0.947488 0.073106 -0.947488
v -0.924098 0.073106 -0.924098
v -0.924098 0.073106 0.924098
v 0.924098 0.073106 0.924098
v 0.924098 0.073106 -0.924098
v -0.900192 0.059430 -0.900192
v -0.900192 0.059430 0.900192
v 0.900191 0.059430 0.900192
v 0.900191 0.059430 -0.900192
v -0.848265 0.059430 -0.848265
v -0.848265 0.059430 0.848265
v 0.848265 0.059430 0.848265
v 0.848265 0.059430 -0.848265
v -0.819004 0.033288 -0.819004
v -0.819004 0.033288 0.819004
v 0.819003 0.033288 0.819004
v 0.819003 0.033288 -0.819004
v 1.000000 0.000000 -1.000000
v 1.000000 0.000000 1.000000
v -1.000000 0.000000 1.000000
v -1.000000 0.000000 -1.000000
v 0.909122 -0.004232 -0.909122
v 0.909122 -0.004232 0.909122
v -0.909122 -0.004232 0.909122
v -0.909122 -0.004232 -0.909122
v -0.935958 0.045754 -0.935958
v -0.935958 0.045754 0.935958
v 0.935958 0.045754 0.935958
v 0.935958 0.045754 -0.935958
v 0.355450 0.046791 0.307655
v 0.537512 0.064052 0.247113
v 0.537512 0.060722 0.214963
v 0.537512 0.032861 0.257380
v 0.537512 0.029531 0.202209
v 0.617240 0.064052 0.169874
v 0.617240 0.060722 0.137724
v 0.617240 0.032861 0.180141
v 0.617240 0.029531 0.124970
v 0.617240 0.064052 0.092636
v 0.617240 0.060722 0.060485
v 0.617240 0.032861 0.102902
v 0.617240 0.029531 0.047731
v 0.617240 0.064052 0.015397
v 0.617240 0.060722 -0.016754
v 0.617240 0.032861 0.025663
v 0.617240 0.029531 -0.029508
v 0.617240 0.064052 -0.061842
v 0.617240 0.060722 -0.093992
v 0.617240 0.032861 -0.051576
v 0.617240 0.029531 -0.106746
v 0.617240 0.064052 -0.139081
v 0.617240 0.060722 -0.171231
v 0.617240 0.032861 -0.128814
v 0.617240 0.029531 -0.183985
v 0.537512 0.064052 -0.216319
v 0.537512 0.060722 -0.248470
v 0.537512 0.032861 -0.206053
v 0.537512 0.029531 -0.261224
v 0.671421 0.081932 -0.155574
v 0.473195 0.081932 -0.353799
v 0.704068 0.081943 -0.172579
v 0.484532 0.081943 -0.392115
v 0.496229 -0.025066 -0.431650
v 0.737754 -0.025066 -0.190125
v 0.484532 0.081943 0.397318
v 0.704068 0.081943 0.177782
v 0.737754 -0.025066 0.195329
v 0.496230 -0.025066 0.436853
v 0.671421 0.081932 0.160778
v 0.473196 0.081932 0.359003
v 0.658224 0.054819 0.153904
v 0.658224 0.054818 -0.148701
v 0.468613 0.054819 0.343515
v 0.468613 0.054818 -0.338312
v 0.644062 0.090604 0.146527
v 0.644062 0.090604 -0.141324
v 0.463695 0.090604 0.326894
v 0.463695 0.090604 -0.321691
v 0.616668 0.087274 0.132258
v 0.616668 0.087274 -0.127055
v 0.454183 0.087274 0.294744
v 0.454183 0.087274 -0.289540
v 0.597494 0.035871 0.122271
v 0.597494 0.035871 -0.117068
v 0.447525 0.035871 0.272241
v 0.447525 0.035871 -0.267038
v -0.355449 0.046791 0.307655
v -0.537512 0.064052 0.247114
v -0.537512 0.060722 0.214963
v -0.537512 0.032861 0.257380
v -0.537512 0.029531 0.202209
v -0.617240 0.064052 0.169875
v -0.617240 0.060722 0.137724
v -0.617240 0.032861 0.180141
v -0.617240 0.029531 0.124970
v -0.617240 0.064052 0.092636
v -0.617240 0.060722 0.060485
v -0.617240 0.032861 0.102902
v -0.617240 0.029531 0.047732
v -0.617240 0.064052 0.015397
v -0.617240 0.060722 -0.016753
v -0.617240 0.032861 0.025663
v -0.617240 0.029531 -0.029507
v -0.617240 0.064052 -0.061842
v -0.617240 0.060722 -0.093992
v -0.617240 0.032861 -0.051576
v -0.617240 0.029531 -0.106746
v -0.617240 0.064052 -0.139080
v -0.617240 0.060722 -0.171231
v -0.617240 0.032861 -0.128814
v -0.617240 0.029531 -0.183985
v -0.537512 0.064052 -0.216319
v -0.537512 0.060722 -0.248470
v -0.537512 0.032861 -0.206053
v -0.537512 0.029531 -0.261224
v -0.671421 0.081932 -0.155574
v -0.473195 0.081932 -0.353799
v -0.704068 0.081944 -0.172579
v -0.484532 0.081944 -0.392115
v -0.496229 -0.025066 -0.431650
v -0.737754 -0.025066 -0.190125
v -0.484532 0.081944 0.397318
v -0.704068 0.081944 0.177783
v -0.737754 -0.025066 0.195329
v -0.496229 -0.025066 0.436853
v -0.671421 0.081932 0.160778
v -0.473195 0.081932 0.359003
v -0.658224 0.054819 0.153904
v -0.658224 0.054819 -0.148700
v -0.468613 0.054819 0.343515
v -0.468613 0.054819 -0.338312
v -0.644062 0.090604 0.146527
v -0.644062 0.090604 -0.141324
v -0.463695 0.090604 0.326894
v -0.463695 0.090604 -0.321691
v -0.616668 0.087275 0.132259
v -0.616668 0.087275 -0.127055
v -0.454183 0.087275 0.294744
v -0.454183 0.087274 -0.289540
v -0.597494 0.035872 0.122272
v -0.597494 0.035871 -0.117068
v -0.447525 0.035871 0.272241
v -0.447525 0.035871 -0.267038
vn -0.0000 0.3466 -0.9380
vn 0.9539 0.3003 -0.0000
vn -0.0001 1.0000 -0.0003
vn 0.0001 1.0000 -0.0003
vn 0.0001 1.0000 0.0003
vn -0.0001 1.0000 0.0003
vn 0.0000 0.3466 0.9380
vn 0.6698 0.3207 -0.6698
vn 0.6698 0.3207 0.6698
vn -0.0000 -1.0000 0.0000
vn -0.0000 0.4960 -0.8683
vn -0.0003 1.0000 -0.0001
vn -0.0003 1.0000 0.0001
vn 0.0000 0.4212 0.9070
vn -0.0000 0.4212 -0.9070
vn -0.6265 0.4637 0.6265
vn 0.0000 0.4960 0.8683
vn -0.8992 0.4376 0.0000
vn -0.6265 0.4637 -0.6265
vn -0.0986 0.9942 0.0427
vn -0.0362 0.9951 0.0923
vn -0.0419 0.9950 0.0907
vn -0.1011 0.9942 0.0380
vn 0.6506 0.3916 0.6506
vn -0.0419 0.9950 -0.0907
vn 0.0419 0.9950 -0.0907
vn 0.0362 0.9951 -0.0923
vn -0.0362 0.9951 -0.0923
vn 0.6506 0.3916 -0.6506
vn 0.9298 0.3680 -0.0000
vn -0.0000 0.4010 -0.9161
vn -0.0986 0.9942 -0.0427
vn -0.1011 0.9942 -0.0380
vn 0.0362 0.9951 0.0923
vn 0.0419 0.9950 0.0907
vn 0.0000 0.4010 0.9161
vn -0.6563 0.3723 -0.6563
vn -0.6563 0.3723 0.6563
vn -0.9369 0.3495 0.0000
vn -0.9539 0.3003 -0.0000
vn -0.6698 0.3207 -0.6698
vn -0.6698 0.3207 0.6698
vn 0.0003 1.0000 -0.0001
vn 0.0003 1.0000 0.0001
vn 0.6265 0.4637 0.6265
vn 0.8992 0.4376 -0.0000
vn 0.6265 0.4637 -0.6265
vn 0.0986 0.9942 0.0427
vn 0.1011 0.9942 0.0380
vn -0.6506 0.3916 0.6506
vn -0.6506 0.3916 -0.6506
vn -0.9298 0.3680 0.0000
vn 0.0986 0.9942 -0.0427
vn 0.1011 0.9942 -0.0380
vn 0.6563 0.3723 -0.6563
vn 0.6563 0.3723 0.6563
vn 0.9369 0.3495 -0.0000
vn -0.0000 -0.9982 0.0602
vn -0.0000 0.3785 -0.9256
vn 0.0000 0.3126 0.9499
vn 0.0000 0.9947 -0.1030
vn 0.0000 1.0000 -0.0000
vn 1.0000 0.0000 0.0000
vn -1.0000 0.0000 0.0000
vn -0.4965 0.8680 0.0000
vn 0.4966 0.8680 0.0000
vn -0.6662 0.7457 0.0000
vn 0.6662 0.7457 0.0000
vn 0.0000 0.3445 0.9388
vn 0.0000 0.0000 -1.0000
vn 0.0000 0.0000 1.0000
vn 0.0000 0.8680 0.4965
vn 0.0000 0.8680 -0.4965
vn 0.0000 0.7457 0.6662
vn 0.0000 0.7457 -0.6662
vn 0.0000 0.3445 -0.9388
vn -0.9388 0.3445 0.0000
vn 0.9388 0.3445 0.0000
vn 0.0000 0.4730 0.8811
vn 0.8811 0.4730 0.0000
vn -0.8811 0.4730 0.0000
vn 0.0000 0.4730 -0.8811
usemtl Accent
s 1
f 74//1 131//1 130//1 73//1
f 78//2 75//2 72//2 77//2
f 81//3 138//4 133//4 76//3
f 130//5 128//5 71//6 73//6
f 76//7 133//7 136//7 79//7
f 72//8 75//8 74//8 73//8
f 78//9 77//9 76//9 79//9
f 79//10 136//10 135//10 132//10 131//10 74//10 75//10 78//10
f 84//11 141//11 138//11 81//11
f 76//3 77//12 80//12 81//3
f 72//13 73//6 71//6 70//13
f 77//12 72//13 70//13 80//12
f 88//14 145//14 141//14 84//14
f 142//15 146//15 89//15 85//15
f 70//16 71//16 85//16 83//16
f 128//17 142//17 85//17 71//17
f 80//18 70//18 83//18 82//18
f 81//19 80//19 82//19 84//19
f 87//20 89//21 93//22 91//23
f 84//24 82//24 86//24 88//24
f 92//25 149//26 145//27 88//28
f 83//29 85//29 89//29 87//29
f 82//30 83//30 87//30 86//30
f 96//31 153//31 149//31 92//31
f 86//32 87//20 91//23 90//33
f 88//28 86//32 90//33 92//25
f 146//34 150//35 93//22 89//21
f 150//36 154//36 97//36 93//36
f 92//37 90//37 94//37 96//37
f 91//38 93//38 97//38 95//38
f 90//39 91//39 95//39 94//39
f 135//40 134//40 129//40 132//40
f 129//41 130//41 131//41 132//41
f 135//42 136//42 133//42 134//42
f 133//4 138//4 137//43 134//43
f 129//44 127//44 128//5 130//5
f 134//43 137//43 127//44 129//44
f 127//45 140//45 142//45 128//45
f 137//46 139//46 140//46 127//46
f 138//47 141//47 139//47 137//47
f 144//48 148//49 150//35 146//34
f 141//50 145//50 143//50 139//50
f 140//51 144//51 146//51 142//51
f 139//52 143//52 144//52 140//52
f 143//53 147//54 148//49 144//48
f 145//27 149//26 147//54 143//53
f 149//55 153//55 151//55 147//55
f 148//56 152//56 154//56 150//56
f 147//57 151//57 152//57 148//57
usemtl DarkAccent
f 44//58 101//58 102//58 45//58
f 100//59 43//59 45//59 102//59
f 42//60 99//60 101//60 44//60
f 47//61 104//61 103//61 46//61
f 48//58 105//58 106//58 49//58
f 104//59 47//59 49//59 106//59
f 46//60 103//60 105//60 48//60
f 51//61 108//61 107//61 50//61
f 52//58 109//58 110//58 53//58
f 108//59 51//59 53//59 110//59
f 50//60 107//60 109//60 52//60
f 55//61 112//61 111//61 54//61
f 56//58 113//58 114//58 57//58
f 112//59 55//59 57//59 114//59
f 54//60 111//60 113//60 56//60
f 59//61 116//61 115//61 58//61
f 60//58 117//58 118//58 61//58
f 116//59 59//59 61//59 118//59
f 58//60 115//60 117//60 60//60
f 63//61 120//61 119//61 62//61
f 64//58 121//58 122//58 65//58
f 120//59 63//59 65//59 122//59
f 62//60 119//60 121//60 64//60
f 67//61 124//61 123//61 66//61
f 68//58 125//58 126//58 69//58
f 124//59 67//59 69//59 126//59
f 66//60 123//60 125//60 68//60
f 43//61 100//61 99//61 42//61
usemtl Black
f 97//62 154//62 152//62 151//62 153//62 96//62 94//62 95//62
usemtl Main
s off
f 2//62 4//62 40//62 39//62
f 9//62 10//62 14//62 13//62
f 6//63 8//63 12//63 11//63
f 7//64 5//64 10//64 9//64
f 11//62 12//62 16//62 15//62
f 19//62 20//62 24//62 23//62
f 15//65 16//65 20//65 19//65
f 13//66 14//66 18//66 17//66
f 17//62 18//62 22//62 21//62
f 23//67 24//67 28//67 27//67
f 21//68 22//68 26//68 25//68
f 1//69 31//69 30//69 2//69
f 8//70 7//70 9//70 12//70
f 5//71 6//71 11//71 10//71
f 16//72 13//72 17//72 20//72
f 12//62 9//62 13//62 16//62
f 10//62 11//62 15//62 14//62
f 14//73 15//73 19//73 18//73
f 24//74 21//74 25//74 28//74
f 20//62 17//62 21//62 24//62
f 18//62 19//62 23//62 22//62
f 22//75 23//75 27//75 26//75
f 4//76 29//76 32//76 3//76
f 3//77 32//77 31//77 1//77
f 2//78 30//78 29//78 4//78
f 40//79 37//79 36//79 33//79
f 37//80 38//80 35//80 36//80
f 39//81 40//81 33//81 34//81
f 35//62 34//62 33//62 36//62
f 38//82 39//82 34//82 35//82
f 3//62 1//62 38//62 37//62
f 4//62 3//62 37//62 40//62
f 1//62 2//62 39//62 38//62
usemtl DarkGrey
f 25//62 26//62 27//62 28//62
