# Blender v2.79 (sub 0) OBJ File: 'RoofTile_InnerCorner_Pipes.blend'
# www.blender.org
mtllib RoofTile_InnerCorner_Pipes.mtl
o RoofTile_InnerCorner_Pipes_Plane.334
v 0.983209 0.045754 0.983208
v 0.983208 0.045754 -0.983209
v -0.983208 0.045754 0.983209
v -0.983209 0.045755 -0.983208
v 0.947488 0.012932 0.947488
v 0.947488 0.012932 -0.947488
v -0.947488 0.012932 0.947488
v -0.947488 0.012933 -0.947488
v -0.947488 0.073106 0.947488
v 0.947488 0.073105 0.947488
v 0.947488 0.073106 -0.947488
v -0.947488 0.073106 -0.947488
v -0.924098 0.073106 0.924098
v 0.924098 0.073105 0.924098
v 0.924098 0.073106 -0.924098
v -0.924098 0.073106 -0.924098
v -0.900192 0.059430 0.900192
v 0.900192 0.059429 0.900192
v 0.900192 0.059430 -0.900191
v -0.900192 0.059430 -0.900191
v 0.848265 0.059429 0.819760
v 0.848265 0.059430 -0.848265
v -0.367661 0.059430 -0.848265
v 0.819004 -0.032983 0.790499
v 0.819003 -0.032983 -0.819003
v -0.338400 -0.032983 -0.819003
v -1.000000 0.000001 -1.000000
v 1.000000 0.000000 -1.000000
v 1.000000 -0.000001 1.000000
v -1.000000 -0.000000 1.000000
v -0.909122 -0.039000 -0.909122
v 0.909122 -0.039000 -0.909122
v 0.909122 -0.039001 0.909122
v -0.909122 -0.039000 0.909122
v -0.935957 0.045754 0.935958
v 0.935958 0.045754 0.935957
v 0.935957 0.045754 -0.935958
v -0.935958 0.045755 -0.935957
v 0.405235 -0.040210 -0.855613
v 0.587683 -0.040210 -0.855613
v 0.496459 0.051013 -0.855613
v 0.560961 0.024291 -0.855613
v 0.431959 0.024291 -0.855613
v 0.416027 -0.040210 -0.784626
v 0.576891 -0.040210 -0.784625
v 0.496459 0.040221 -0.784625
v 0.553330 0.016661 -0.784625
v 0.439590 0.016661 -0.784625
v 0.431959 0.024291 -0.789943
v 0.560961 0.024291 -0.789943
v 0.496459 0.051013 -0.789943
v 0.587683 -0.040210 -0.789943
v 0.405235 -0.040210 -0.789943
v 0.790504 -0.040209 0.013763
v 0.790504 -0.040209 -0.156982
v 0.790504 0.045162 -0.071609
v 0.790504 0.020154 -0.131974
v 0.790504 0.020154 -0.011247
v 0.790504 -0.040209 0.026816
v 0.790504 -0.040209 -0.170034
v 0.790504 0.058214 -0.071609
v 0.790504 0.029383 -0.141202
v 0.790504 0.029383 -0.002018
v 0.894934 -0.040209 0.026815
v 0.894934 -0.040209 -0.170034
v 0.894934 0.058214 -0.071609
v 0.894934 0.029383 -0.141203
v 0.894934 0.029383 -0.002019
v 0.026724 -0.040210 -0.853620
v 0.209172 -0.040210 -0.853620
v 0.117948 0.051013 -0.853620
v 0.182450 0.024291 -0.853620
v 0.053448 0.024291 -0.853620
v 0.037516 -0.040210 -0.782632
v 0.198380 -0.040210 -0.782632
v 0.117948 0.040221 -0.782632
v 0.174819 0.016661 -0.782632
v 0.061079 0.016660 -0.782632
v 0.053448 0.024291 -0.787950
v 0.182450 0.024291 -0.787950
v 0.117948 0.051013 -0.787950
v 0.209172 -0.040210 -0.787950
v 0.026724 -0.040210 -0.787950
v 0.790504 -0.040209 0.414543
v 0.790504 -0.040209 0.243798
v 0.790504 0.045162 0.329170
v 0.790504 0.020154 0.268806
v 0.790504 0.020154 0.389533
v 0.790504 -0.040209 0.427596
v 0.790504 -0.040209 0.230746
v 0.790504 0.058214 0.329171
v 0.790504 0.029383 0.259577
v 0.790504 0.029383 0.398762
v 0.894934 -0.040209 0.427595
v 0.894934 -0.040209 0.230746
v 0.894934 0.058214 0.329170
v 0.894934 0.029383 0.259577
v 0.894934 0.029383 0.398761
v 0.894934 0.029383 0.198337
v 0.894934 0.029383 0.059153
v 0.894934 0.058214 0.128746
v 0.894934 -0.040209 0.030322
v 0.894934 -0.040209 0.227171
v 0.790504 0.029383 0.198338
v 0.790504 0.029383 0.059153
v 0.790504 0.058214 0.128746
v 0.790504 -0.040209 0.030322
v 0.790504 -0.040209 0.227171
v 0.790504 0.020154 0.189109
v 0.790504 0.020154 0.068382
v 0.790504 0.045162 0.128746
v 0.790504 -0.040209 0.043374
v 0.790504 -0.040209 0.214119
v 0.217251 -0.040210 -0.797847
v 0.399699 -0.040210 -0.797847
v 0.308475 0.051013 -0.797847
v 0.372977 0.024291 -0.797847
v 0.243975 0.024291 -0.797847
v 0.251606 0.016660 -0.792529
v 0.365346 0.016661 -0.792529
v 0.308475 0.040221 -0.792529
v 0.388907 -0.040210 -0.792529
v 0.228043 -0.040210 -0.792530
v 0.243975 0.024291 -0.863517
v 0.372977 0.024291 -0.863517
v 0.308475 0.051013 -0.863517
v 0.399699 -0.040210 -0.863517
v 0.217251 -0.040210 -0.863517
v 0.160831 0.017841 0.414390
v 0.129374 -0.040209 0.541514
v 0.147802 0.041891 0.467045
v 0.166229 -0.040210 0.392576
v 0.134773 0.017841 0.519698
v 0.014287 -0.040210 0.207620
v -0.123014 0.016661 0.207620
v -0.009274 0.016661 0.207620
v -0.146577 -0.040210 0.207619
v -0.066145 0.040221 0.207620
v 0.061942 -0.040210 0.298154
v -0.052286 0.017275 0.358295
v 0.042341 0.017276 0.308474
v -0.071890 -0.040210 0.368616
v -0.004974 0.041091 0.333385
v 0.359139 -0.040209 0.441113
v 0.359139 0.018407 0.465398
v 0.359139 -0.040209 0.606917
v 0.359139 0.018407 0.582631
v 0.359139 0.042692 0.524015
v 0.894934 0.029383 0.593606
v 0.894934 0.029383 0.454422
v 0.894934 0.058214 0.524015
v 0.894934 -0.040209 0.425590
v 0.894934 -0.040209 0.622440
v 0.790504 0.029383 0.593606
v 0.790504 0.029383 0.454422
v 0.790504 0.058214 0.524015
v 0.790504 -0.040209 0.425590
v 0.790504 -0.040209 0.622440
v 0.790504 0.020154 0.584377
v 0.790504 0.020154 0.463651
v 0.790504 0.045162 0.524015
v 0.790504 -0.040209 0.438643
v 0.790504 -0.040209 0.609387
v -0.157369 -0.040210 -0.806891
v 0.025079 -0.040210 -0.806891
v -0.066145 0.051013 -0.806891
v -0.001643 0.024291 -0.806891
v -0.130645 0.024291 -0.806891
v -0.123015 0.016661 -0.801574
v -0.009274 0.016661 -0.801574
v -0.066145 0.040221 -0.801574
v 0.014286 -0.040210 -0.801574
v -0.146577 -0.040210 -0.801574
v -0.130645 0.024291 -0.872561
v -0.001644 0.024291 -0.872561
v -0.066145 0.051013 -0.872561
v 0.025078 -0.040210 -0.872562
v -0.157370 -0.040210 -0.872562
v 0.630804 0.042692 -0.071609
v 0.630804 0.018407 -0.012993
v 0.630804 -0.040209 0.011293
v 0.630804 0.018407 -0.130227
v 0.630804 -0.040209 -0.154511
v 0.547257 0.041091 -0.121562
v 0.501756 -0.040210 -0.061158
v 0.579429 0.017276 -0.164272
v 0.515086 0.017275 -0.078853
v 0.592758 -0.040210 -0.181966
v 0.496459 0.040221 -0.224421
v 0.416027 -0.040210 -0.224421
v 0.553330 0.016661 -0.224421
v 0.439590 0.016660 -0.224421
v 0.576891 -0.040210 -0.224421
v 0.548325 0.042692 0.128747
v 0.548325 0.018407 0.187362
v 0.548325 -0.040209 0.211649
v 0.548325 0.018407 0.070129
v 0.548325 -0.040209 0.045844
v 0.352464 0.041091 0.012004
v 0.293962 -0.040210 0.059927
v 0.393828 0.017276 -0.021881
v 0.311101 0.017275 0.045888
v 0.410965 -0.040210 -0.035918
v 0.308475 0.040221 -0.113761
v 0.228043 -0.040210 -0.113761
v 0.365346 0.016661 -0.113761
v 0.251606 0.016661 -0.113761
v 0.388907 -0.040210 -0.113761
v 0.415074 0.017841 0.157070
v 0.470161 -0.040210 0.038263
v 0.437891 0.041891 0.107861
v 0.405620 -0.040209 0.177458
v 0.460708 0.017841 0.058650
v 0.441852 0.042692 0.329171
v 0.441852 0.018407 0.387786
v 0.441852 -0.040209 0.412073
v 0.441852 0.018407 0.270553
v 0.441852 -0.040209 0.246269
v 0.160218 0.041091 0.138541
v 0.093302 -0.040210 0.173772
v 0.207533 0.017276 0.113630
v 0.112906 0.017275 0.163451
v 0.227134 -0.040210 0.103310
v 0.117948 0.040221 0.012775
v 0.037516 -0.040210 0.012775
v 0.174819 0.016661 0.012775
v 0.061079 0.016661 0.012775
v 0.198380 -0.040210 0.012775
v 0.281064 0.017841 0.324853
v 0.312520 -0.040210 0.197731
v 0.294092 0.041891 0.272200
v 0.275665 -0.040209 0.346669
v 0.307122 0.017841 0.219546
v 0.592348 -0.040210 -0.859727
v 0.774796 -0.040210 -0.859727
v 0.683573 0.051013 -0.859727
v 0.748074 0.024291 -0.859727
v 0.619073 0.024291 -0.859727
v 0.603141 -0.040210 -0.788739
v 0.767826 -0.040210 -0.790404
v 0.683572 0.040221 -0.788739
v 0.740444 0.016661 -0.788739
v 0.626703 0.016661 -0.788739
v 0.619073 0.024291 -0.794057
v 0.748075 0.024291 -0.794057
v 0.683572 0.051013 -0.794057
v 0.774797 -0.040210 -0.794057
v 0.592349 -0.040210 -0.794057
v 0.790504 -0.040209 -0.184186
v 0.790504 -0.040209 -0.807445
v 0.790504 0.045162 -0.269559
v 0.790504 0.020154 -0.782437
v 0.790504 0.020154 -0.209196
v 0.790504 -0.040209 -0.171134
v 0.790504 -0.040209 -0.820497
v 0.790504 0.058214 -0.269559
v 0.790504 0.029383 -0.791666
v 0.790504 0.029383 -0.199967
v 0.894934 -0.040209 -0.171134
v 0.894934 -0.040209 -0.820497
v 0.894934 0.058214 -0.269559
v 0.894934 0.029383 -0.791666
v 0.894934 0.029383 -0.199968
v 0.783085 0.042692 -0.269558
v 0.783085 0.018407 -0.210943
v 0.783085 -0.040209 -0.186656
v 0.783085 0.018407 -0.780690
v 0.783085 -0.040209 -0.804974
v 0.772482 -0.034514 -0.790708
v 0.627989 0.030473 -0.228575
v 0.753161 0.030474 -0.774876
v 0.607551 -0.041561 -0.210176
v 0.677315 0.046325 -0.272982
v 0.777850 0.017840 -0.217936
v 0.778574 -0.040209 -0.794708
v 0.778149 0.041889 -0.269403
v 0.777725 -0.040209 -0.196611
v 0.778449 0.017840 -0.773385
v -0.009283 0.017841 0.609728
v -0.040739 -0.040209 0.736852
v -0.022312 0.041891 0.662383
v -0.003885 -0.040210 0.587914
v -0.035341 0.017841 0.715036
v -0.155827 -0.040210 0.402958
v -0.293128 0.016661 0.402957
v -0.179388 0.016661 0.402957
v -0.316691 -0.040210 0.402957
v -0.236259 0.040221 0.402957
v -0.108171 -0.040210 0.493492
v -0.222400 0.017275 0.553633
v -0.127773 0.017276 0.503812
v -0.242003 -0.040210 0.563954
v -0.175087 0.041091 0.528723
v 0.189026 -0.040209 0.636451
v 0.189026 0.018407 0.660735
v 0.189026 -0.040209 0.802255
v 0.189026 0.018407 0.777969
v 0.189026 0.042692 0.719353
v 0.894934 0.029383 0.788943
v 0.894934 0.029383 0.649760
v 0.894934 0.058214 0.719353
v 0.894934 -0.040209 0.620928
v 0.894934 -0.040209 0.817777
v 0.790504 0.029383 0.788944
v 0.790504 0.029383 0.649760
v 0.790504 0.058214 0.719353
v 0.790504 -0.040209 0.620928
v 0.790504 -0.040209 0.817778
v 0.790504 0.020154 0.779715
v 0.790504 0.020154 0.658988
v 0.790504 0.045162 0.719353
v 0.790504 -0.040209 0.633980
v 0.790504 -0.040209 0.804725
v -0.327483 -0.040210 -0.791976
v -0.145035 -0.040210 -0.791976
v -0.236259 0.051013 -0.791976
v -0.171757 0.024291 -0.791976
v -0.300759 0.024291 -0.791976
v -0.293128 0.016661 -0.786659
v -0.179388 0.016661 -0.786659
v -0.236259 0.040221 -0.786659
v -0.155827 -0.040210 -0.786658
v -0.316691 -0.040210 -0.786659
v -0.300759 0.024291 -0.857646
v -0.171757 0.024291 -0.857646
v -0.236259 0.051013 -0.857646
v -0.145035 -0.040210 -0.857647
v -0.327483 -0.040210 -0.857647
v -0.367661 0.059430 0.545676
v -0.093576 0.059430 0.819760
v -0.553126 0.059430 0.552857
v -0.064315 -0.032983 0.790499
v -0.338399 -0.032983 0.516415
vn -0.0143 0.9238 0.3827
vn -0.0143 0.9238 -0.3827
vn -0.0143 0.3827 0.9237
vn -0.0143 0.3827 -0.9238
vn -0.0065 0.3827 -0.9238
vn -0.0065 0.9238 0.3827
vn -0.0065 0.3828 0.9238
vn -0.0065 0.9238 -0.3827
vn -0.0094 0.9238 -0.3827
vn -0.0094 0.3828 0.9238
vn -0.0094 0.3827 -0.9238
vn -0.0094 0.9238 0.3827
vn 0.9239 0.3827 -0.0000
vn 0.2877 0.8988 -0.3308
vn -0.9238 0.3828 0.0000
vn 0.6304 0.3316 -0.7019
vn 0.3827 0.9239 -0.0000
vn -0.3828 0.9239 0.0000
vn -0.6157 0.3320 0.7146
vn -0.2896 0.8987 0.3293
vn -0.8473 0.3555 0.3946
vn 0.8303 0.3524 -0.4318
vn 0.3686 0.9101 -0.1894
vn -0.3731 0.9115 0.1731
vn 0.2289 0.3669 -0.9017
vn 0.0989 0.9169 -0.3867
vn -0.1089 0.9163 0.3853
vn -0.2535 0.3656 0.8956
vn -0.0053 0.3828 0.9238
vn -0.0053 0.9238 -0.3827
vn -0.0053 0.9238 0.3827
vn -0.0053 0.3827 -0.9238
vn 0.5297 0.3415 -0.7764
vn -0.4624 0.3480 0.8155
vn 0.2086 0.9075 -0.3646
vn -0.2216 0.9063 0.3599
vn -0.3878 0.9016 0.1917
vn 0.3880 0.9016 -0.1912
vn -0.8350 0.3367 0.4352
vn 0.8709 0.3364 -0.3582
vn 0.1052 0.3630 -0.9258
vn -0.2126 0.3644 0.9066
vn 0.0587 0.9155 -0.3980
vn -0.0875 0.9158 0.3920
vn -0.3915 0.9099 0.1372
vn 0.3917 0.9099 -0.1366
vn -0.8762 0.3522 0.3290
vn 0.8967 0.3521 -0.2683
vn -0.3133 0.9072 0.2806
vn 0.3151 0.9071 -0.2791
vn -0.6824 0.3485 0.6425
vn 0.7272 0.3443 -0.5938
vn 0.3284 0.3602 -0.8732
vn -0.3415 0.3590 0.8686
vn 0.1410 0.9140 -0.3805
vn -0.1513 0.9130 0.3789
vn -0.3855 0.9140 0.1263
vn 0.3837 0.9138 -0.1330
vn -0.8820 0.3603 0.3038
vn 0.8876 0.3609 -0.2862
vn -0.3098 0.8978 0.3130
vn 0.3131 0.8976 -0.3103
vn -0.6516 0.3309 0.6826
vn 0.6935 0.3284 -0.6412
vn -0.2940 0.8830 0.3658
vn -0.2781 0.9594 -0.0462
vn -0.2940 0.3659 0.8830
vn -0.2940 0.3658 -0.8830
vn -0.8756 0.1750 -0.4502
vn -0.8335 0.2020 0.5143
vn -0.1772 0.9831 -0.0469
vn -0.3658 0.8526 0.3733
vn 0.1462 0.9885 -0.0390
vn -0.9463 0.3232 0.0012
vn 0.3822 0.2732 -0.8828
vn 0.1352 0.9904 -0.0291
vn -0.0614 0.3004 0.9518
vn 0.1007 0.3022 -0.9479
vn -0.3548 0.9347 -0.0189
vn 0.0395 0.9151 0.4013
vn -0.0038 0.3828 0.9238
vn -0.0038 0.9239 -0.3827
vn -0.0038 0.9238 0.3827
vn -0.0038 0.3827 -0.9238
vn 0.0000 1.0000 0.0000
vn 0.9534 0.3019 -0.0000
vn 0.0000 0.3019 0.9533
vn 0.9388 0.3445 -0.0000
vn -0.0000 0.3019 -0.9534
vn -0.9534 0.3019 0.0000
vn -0.9388 0.3445 0.0000
vn 0.0000 0.3445 0.9388
vn -0.0000 0.3445 -0.9388
vn 0.0000 0.3019 0.9534
vn -0.0000 0.0000 -1.0000
vn 0.0000 0.0000 1.0000
vn 0.0000 0.8680 0.4965
vn 0.0000 0.8680 -0.4966
vn -1.0000 0.0000 0.0000
vn 1.0000 0.0000 -0.0000
vn 0.4965 0.8680 0.0000
vn -0.4965 0.8680 0.0000
vn 0.4347 0.1801 0.8824
vn -0.1801 0.4348 0.8824
vn -0.4348 0.1801 0.8824
vn 0.1801 0.4348 0.8824
vn -0.0000 0.9239 -0.3827
vn -0.0000 0.3827 -0.9239
vn 0.0000 0.3828 0.9238
vn 0.0000 0.9239 0.3827
vn 0.4348 0.1801 0.8824
vn -0.4347 0.1801 0.8824
vn 0.4423 0.1851 0.8775
vn -0.3827 0.9239 -0.0000
vn 0.0000 0.9985 -0.0551
vn 0.6454 0.4087 -0.6454
usemtl Accent
s off
f 180//1 58//1 56//1 179//1
f 179//2 56//2 57//2 182//2
f 181//3 54//3 58//3 180//3
f 182//4 57//4 55//4 183//4
f 217//5 87//5 85//5 218//5
f 215//6 88//6 86//6 214//6
f 216//7 84//7 88//7 215//7
f 214//8 86//8 87//8 217//8
f 194//9 111//9 110//9 197//9
f 196//10 113//10 109//10 195//10
f 197//11 110//11 112//11 198//11
f 195//12 109//12 111//12 194//12
f 170//13 136//13 134//13 172//13
f 143//14 131//14 129//14 141//14
f 173//15 137//15 135//15 169//15
f 141//16 129//16 132//16 139//16
f 171//17 138//17 136//17 170//17
f 169//18 135//18 138//18 171//18
f 142//19 130//19 133//19 140//19
f 140//20 133//20 131//20 143//20
f 137//21 142//21 140//21 135//21
f 136//22 141//22 139//22 134//22
f 138//23 143//23 141//23 136//23
f 135//24 140//24 143//24 138//24
f 129//25 145//25 144//25 132//25
f 131//26 148//26 145//26 129//26
f 133//27 147//27 148//27 131//27
f 130//28 146//28 147//28 133//28
f 146//29 163//29 159//29 147//29
f 148//30 161//30 160//30 145//30
f 147//31 159//31 161//31 148//31
f 145//32 160//32 162//32 144//32
f 186//33 182//33 183//33 188//33
f 185//34 181//34 180//34 187//34
f 184//35 179//35 182//35 186//35
f 187//36 180//36 179//36 184//36
f 192//37 187//37 184//37 189//37
f 189//38 184//38 186//38 191//38
f 190//39 185//39 187//39 192//39
f 191//40 186//40 188//40 193//40
f 47//13 191//13 193//13 45//13
f 44//15 190//15 192//15 48//15
f 46//17 189//17 191//17 47//17
f 48//18 192//18 189//18 46//18
f 213//41 197//41 198//41 210//41
f 212//42 196//42 195//42 209//42
f 211//43 194//43 197//43 213//43
f 209//44 195//44 194//44 211//44
f 207//45 202//45 199//45 204//45
f 204//46 199//46 201//46 206//46
f 205//47 200//47 202//47 207//47
f 206//48 201//48 203//48 208//48
f 120//13 206//13 208//13 122//13
f 123//15 205//15 207//15 119//15
f 121//17 204//17 206//17 120//17
f 119//18 207//18 204//18 121//18
f 202//49 209//49 211//49 199//49
f 199//50 211//50 213//50 201//50
f 200//51 212//51 209//51 202//51
f 201//52 213//52 210//52 203//52
f 233//53 217//53 218//53 230//53
f 232//54 216//54 215//54 229//54
f 231//55 214//55 217//55 233//55
f 229//56 215//56 214//56 231//56
f 227//57 222//57 219//57 224//57
f 224//58 219//58 221//58 226//58
f 225//59 220//59 222//59 227//59
f 226//60 221//60 223//60 228//60
f 77//13 226//13 228//13 75//13
f 74//15 225//15 227//15 78//15
f 76//17 224//17 226//17 77//17
f 78//18 227//18 224//18 76//18
f 222//61 229//61 231//61 219//61
f 219//62 231//62 233//62 221//62
f 220//63 232//63 229//63 222//63
f 221//64 233//64 230//64 223//64
f 265//65 253//65 251//65 264//65
f 264//66 251//66 252//66 267//66
f 266//67 249//67 253//67 265//67
f 267//68 252//68 250//68 268//68
f 278//69 267//69 268//69 275//69
f 277//70 266//70 265//70 274//70
f 276//71 264//71 267//71 278//71
f 274//72 265//72 264//72 276//72
f 241//73 273//73 271//73 242//73
f 239//74 272//74 270//74 243//74
f 242//75 271//75 269//75 240//75
f 273//76 276//76 278//76 271//76
f 272//77 277//77 274//77 270//77
f 271//78 278//78 275//78 269//78
f 243//79 270//79 273//79 241//79
f 270//80 274//80 276//80 273//80
f 320//13 286//13 284//13 322//13
f 293//14 281//14 279//14 291//14
f 323//15 287//15 285//15 319//15
f 291//16 279//16 282//16 289//16
f 321//17 288//17 286//17 320//17
f 319//18 285//18 288//18 321//18
f 292//19 280//19 283//19 290//19
f 290//20 283//20 281//20 293//20
f 287//21 292//21 290//21 285//21
f 286//22 291//22 289//22 284//22
f 288//23 293//23 291//23 286//23
f 285//24 290//24 293//24 288//24
f 279//25 295//25 294//25 282//25
f 281//26 298//26 295//26 279//26
f 283//27 297//27 298//27 281//27
f 280//28 296//28 297//28 283//28
f 296//81 313//81 309//81 297//81
f 298//82 311//82 310//82 295//82
f 297//83 309//83 311//83 298//83
f 295//84 310//84 312//84 294//84
usemtl Black
f 332//85 24//85 25//85 26//85 333//85
usemtl Main
f 2//85 4//85 38//85 37//85
f 23//86 329//86 333//86 26//86
f 22//87 23//87 26//87 25//87
f 1//88 29//88 28//88 2//88
f 330//89 21//89 24//89 332//89
f 21//90 22//90 25//90 24//90
f 4//91 27//91 30//91 3//91
f 3//92 30//92 29//92 1//92
f 2//93 28//93 27//93 4//93
f 38//86 35//86 34//86 31//86
f 35//89 36//89 33//89 34//89
f 37//94 38//94 31//94 32//94
f 33//85 32//85 31//85 34//85
f 36//90 37//90 32//90 33//90
f 3//85 1//85 36//85 35//85
f 4//85 3//85 35//85 38//85
f 1//85 2//85 37//85 36//85
usemtl DarkGrey
f 9//85 10//85 14//85 13//85
f 6//95 8//95 12//95 11//95
f 7//96 5//96 10//96 9//96
f 11//85 12//85 16//85 15//85
f 19//85 20//85 23//85 22//85
f 15//97 16//97 20//97 19//97
f 13//98 14//98 18//98 17//98
f 17//85 18//85 21//85 330//85 331//85
f 8//99 7//99 9//99 12//99
f 5//100 6//100 11//100 10//100
f 16//101 13//101 17//101 20//101
f 12//85 9//85 13//85 16//85
f 10//85 11//85 15//85 14//85
f 14//102 15//102 19//102 18//102
f 18//85 19//85 22//85 21//85
f 52//103 50//103 47//103 45//103
f 51//104 49//104 48//104 46//104
f 49//105 53//105 44//105 48//105
f 50//106 51//106 46//106 47//106
f 40//13 42//13 50//13 52//13
f 43//15 39//15 53//15 49//15
f 41//18 43//18 49//18 51//18
f 42//17 41//17 51//17 50//17
f 55//99 57//99 62//99 60//99
f 58//99 54//99 59//99 63//99
f 56//99 58//99 63//99 61//99
f 57//99 56//99 61//99 62//99
f 62//107 61//107 66//107 67//107
f 60//108 62//108 67//108 65//108
f 63//109 59//109 64//109 68//109
f 61//110 63//110 68//110 66//110
f 90//108 92//108 97//108 95//108
f 71//18 73//18 79//18 81//18
f 80//106 81//106 76//106 77//106
f 86//99 88//99 93//99 91//99
f 79//105 83//105 74//105 78//105
f 82//111 80//111 77//111 75//111
f 81//104 79//104 78//104 76//104
f 85//99 87//99 92//99 90//99
f 70//13 72//13 80//13 82//13
f 73//15 69//15 83//15 79//15
f 91//110 93//110 98//110 96//110
f 92//107 91//107 96//107 97//107
f 93//109 89//109 94//109 98//109
f 72//17 71//17 81//17 80//17
f 87//99 86//99 91//99 92//99
f 88//99 84//99 89//99 93//99
f 125//17 126//17 116//17 117//17
f 109//99 113//99 108//99 104//99
f 110//99 111//99 106//99 105//99
f 104//109 108//109 103//109 99//109
f 106//110 104//110 99//110 101//110
f 105//107 106//107 101//107 100//107
f 107//108 105//108 100//108 102//108
f 111//99 109//99 104//99 106//99
f 112//99 110//99 105//99 107//99
f 124//15 128//15 114//15 118//15
f 126//18 124//18 118//18 116//18
f 127//13 125//13 117//13 115//13
f 117//106 116//106 121//106 120//106
f 116//104 118//104 119//104 121//104
f 118//112 114//112 123//112 119//112
f 115//103 117//103 120//103 122//103
f 166//104 168//104 169//104 171//104
f 155//107 156//107 151//107 150//107
f 162//99 160//99 155//99 157//99
f 177//13 175//13 167//13 165//13
f 160//99 161//99 156//99 155//99
f 159//99 163//99 158//99 154//99
f 175//17 176//17 166//17 167//17
f 174//15 178//15 164//15 168//15
f 154//109 158//109 153//109 149//109
f 156//110 154//110 149//110 151//110
f 165//111 167//111 170//111 172//111
f 168//105 164//105 173//105 169//105
f 161//99 159//99 154//99 156//99
f 157//108 155//108 150//108 152//108
f 167//106 166//106 171//106 170//106
f 176//18 174//18 168//18 166//18
f 247//113 245//113 242//113 240//113
f 246//104 244//104 243//104 241//104
f 244//105 248//105 239//105 243//105
f 245//106 246//106 241//106 242//106
f 235//13 237//13 245//13 247//13
f 238//15 234//15 248//15 244//15
f 236//114 238//114 244//114 246//114
f 237//17 236//17 246//17 245//17
f 250//99 252//99 257//99 255//99
f 253//99 249//99 254//99 258//99
f 251//99 253//99 258//99 256//99
f 252//99 251//99 256//99 257//99
f 257//115 256//115 261//115 262//115
f 255//108 257//108 262//108 260//108
f 258//109 254//109 259//109 263//109
f 256//110 258//110 263//110 261//110
f 316//104 318//104 319//104 321//104
f 305//107 306//107 301//107 300//107
f 312//99 310//99 305//99 307//99
f 327//13 325//13 317//13 315//13
f 310//99 311//99 306//99 305//99
f 309//99 313//99 308//99 304//99
f 325//17 326//17 316//17 317//17
f 324//15 328//15 314//15 318//15
f 304//109 308//109 303//109 299//109
f 306//110 304//110 299//110 301//110
f 315//111 317//111 320//111 322//111
f 318//105 314//105 323//105 319//105
f 311//99 309//99 304//99 306//99
f 307//108 305//108 300//108 302//108
f 317//106 316//106 321//106 320//106
f 326//114 324//114 318//114 316//114
f 329//85 331//85 330//85
f 329//116 330//116 332//116 333//116
f 20//85 17//85 331//85 329//85 23//85
