# Blender v2.79 (sub 0) OBJ File: 'RoofTile_Corner_Pipes.blend'
# www.blender.org
mtllib RoofTile_Corner_Pipes.mtl
o RoofTile_Corner_Pipes_Plane.110
v 0.983209 0.045754 0.983209
v -0.983209 0.045754 0.983209
v 0.983209 0.045754 -0.983209
v -0.983209 0.045755 -0.983209
v 0.947488 0.012932 0.947488
v -0.947488 0.012932 0.947488
v 0.947488 0.012932 -0.947488
v -0.947488 0.012933 -0.947488
v 0.947488 0.073106 -0.947488
v 0.947488 0.073105 0.947488
v -0.947488 0.073106 0.947488
v -0.947488 0.073106 -0.947488
v 0.924098 0.073106 -0.924098
v 0.924098 0.073105 0.924098
v -0.924098 0.073106 0.924098
v -0.924098 0.073106 -0.924098
v 0.900192 0.059430 -0.900192
v 0.900192 0.059429 0.900192
v -0.900191 0.059430 0.900192
v -0.900191 0.059430 -0.900192
v 0.367247 0.059429 0.848265
v -0.848265 0.059430 0.848265
v -0.848265 0.059430 -0.367661
v 0.337986 -0.032983 0.819004
v -0.819003 -0.032983 0.819004
v -0.819003 -0.032983 -0.338399
v -1.000000 0.000001 -1.000000
v -1.000000 0.000000 1.000000
v 1.000000 -0.000001 1.000000
v 1.000000 -0.000000 -1.000000
v -0.909122 -0.039000 -0.909122
v -0.909122 -0.039000 0.909122
v 0.909122 -0.039001 0.909122
v 0.909122 -0.039000 -0.909122
v 0.935958 0.045754 -0.935958
v 0.935958 0.045754 0.935958
v -0.935958 0.045754 0.935958
v -0.935958 0.045755 -0.935958
v -0.855613 -0.040210 0.405235
v -0.855613 -0.040210 0.587683
v -0.855613 0.051013 0.496459
v -0.855613 0.024291 0.560961
v -0.855613 0.024291 0.431959
v -0.784626 -0.040210 0.416027
v -0.784625 -0.040210 0.576891
v -0.784625 0.040221 0.496459
v -0.784625 0.016661 0.553330
v -0.784625 0.016661 0.439590
v -0.789943 0.024291 0.431960
v -0.789943 0.024291 0.560961
v -0.789943 0.051013 0.496459
v -0.789943 -0.040210 0.587683
v -0.789943 -0.040210 0.405235
v -0.438750 -0.040209 0.790504
v -0.609495 -0.040209 0.790504
v -0.524123 0.045162 0.790504
v -0.584487 0.020154 0.790504
v -0.463760 0.020154 0.790504
v -0.425698 -0.040209 0.790504
v -0.622547 -0.040209 0.790504
v -0.524123 0.058214 0.790504
v -0.593716 0.029383 0.790504
v -0.454531 0.029383 0.790504
v -0.425698 -0.040209 0.894934
v -0.622548 -0.040209 0.894934
v -0.524123 0.058214 0.894934
v -0.593716 0.029383 0.894934
v -0.454532 0.029383 0.894934
v -0.853620 -0.040210 0.026724
v -0.853620 -0.040210 0.209172
v -0.853620 0.051013 0.117948
v -0.853620 0.024291 0.182450
v -0.853620 0.024291 0.053449
v -0.782632 -0.040210 0.037516
v -0.782632 -0.040210 0.198380
v -0.782632 0.040221 0.117948
v -0.782632 0.016661 0.174819
v -0.782632 0.016660 0.061079
v -0.787950 0.024291 0.053449
v -0.787950 0.024291 0.182450
v -0.787950 0.051013 0.117948
v -0.787950 -0.040210 0.209172
v -0.787950 -0.040210 0.026724
v -0.037971 -0.040209 0.790504
v -0.208715 -0.040209 0.790504
v -0.123343 0.045162 0.790504
v -0.183707 0.020154 0.790504
v -0.062981 0.020154 0.790504
v -0.024918 -0.040209 0.790504
v -0.221768 -0.040209 0.790504
v -0.123343 0.058214 0.790504
v -0.192936 0.029383 0.790504
v -0.053752 0.029383 0.790504
v -0.024918 -0.040209 0.894934
v -0.221768 -0.040209 0.894934
v -0.123343 0.058214 0.894934
v -0.192936 0.029383 0.894934
v -0.053752 0.029383 0.894934
v -0.254176 0.029383 0.894934
v -0.393360 0.029383 0.894934
v -0.323767 0.058214 0.894934
v -0.422192 -0.040209 0.894934
v -0.225343 -0.040209 0.894934
v -0.254176 0.029383 0.790504
v -0.393360 0.029383 0.790504
v -0.323767 0.058214 0.790504
v -0.422192 -0.040209 0.790504
v -0.225342 -0.040209 0.790504
v -0.263405 0.020154 0.790504
v -0.384132 0.020154 0.790504
v -0.323767 0.045162 0.790504
v -0.409140 -0.040209 0.790504
v -0.238395 -0.040209 0.790504
v -0.797847 -0.040210 0.217251
v -0.797847 -0.040210 0.399699
v -0.797847 0.051013 0.308475
v -0.797847 0.024291 0.372977
v -0.797847 0.024291 0.243976
v -0.792529 0.016660 0.251606
v -0.792529 0.016661 0.365346
v -0.792529 0.040221 0.308475
v -0.792529 -0.040210 0.388907
v -0.792530 -0.040210 0.228043
v -0.863517 0.024291 0.243976
v -0.863517 0.024291 0.372977
v -0.863517 0.051013 0.308475
v -0.863517 -0.040210 0.399699
v -0.863517 -0.040210 0.217251
v -0.038124 0.017841 0.160831
v 0.089000 -0.040209 0.129374
v 0.014531 0.041891 0.147802
v -0.059938 -0.040210 0.166229
v 0.067184 0.017841 0.134773
v -0.244894 -0.040210 0.014287
v -0.244894 0.016661 -0.123014
v -0.244894 0.016661 -0.009274
v -0.244894 -0.040210 -0.146577
v -0.244894 0.040221 -0.066145
v -0.154359 -0.040210 0.061942
v -0.094218 0.017275 -0.052286
v -0.144039 0.017276 0.042340
v -0.083898 -0.040210 -0.071890
v -0.119128 0.041091 -0.004974
v -0.011401 -0.040209 0.359139
v 0.012884 0.018407 0.359139
v 0.154404 -0.040209 0.359139
v 0.130117 0.018407 0.359139
v 0.071502 0.042692 0.359139
v 0.141092 0.029383 0.894934
v 0.001908 0.029383 0.894934
v 0.071501 0.058214 0.894934
v -0.026923 -0.040209 0.894934
v 0.169926 -0.040209 0.894934
v 0.141093 0.029383 0.790504
v 0.001908 0.029383 0.790504
v 0.071501 0.058214 0.790504
v -0.026923 -0.040209 0.790504
v 0.169926 -0.040209 0.790504
v 0.131864 0.020154 0.790504
v 0.011137 0.020154 0.790504
v 0.071501 0.045162 0.790504
v -0.013871 -0.040209 0.790504
v 0.156874 -0.040209 0.790504
v -0.806891 -0.040210 -0.157369
v -0.806891 -0.040210 0.025079
v -0.806891 0.051013 -0.066145
v -0.806891 0.024291 -0.001643
v -0.806891 0.024291 -0.130645
v -0.801574 0.016661 -0.123014
v -0.801574 0.016661 -0.009274
v -0.801574 0.040221 -0.066145
v -0.801574 -0.040210 0.014287
v -0.801574 -0.040210 -0.146577
v -0.872561 0.024291 -0.130645
v -0.872561 0.024291 -0.001644
v -0.872561 0.051013 -0.066145
v -0.872562 -0.040210 0.025079
v -0.872562 -0.040210 -0.157370
v -0.524123 0.042692 0.630804
v -0.465507 0.018407 0.630804
v -0.441220 -0.040209 0.630804
v -0.582740 0.018407 0.630804
v -0.607025 -0.040209 0.630804
v -0.574075 0.041091 0.547257
v -0.513671 -0.040210 0.501756
v -0.616785 0.017276 0.579429
v -0.531367 0.017275 0.515086
v -0.634479 -0.040210 0.592758
v -0.676935 0.040221 0.496459
v -0.676935 -0.040210 0.416027
v -0.676935 0.016661 0.553330
v -0.676934 0.016660 0.439590
v -0.676934 -0.040210 0.576891
v -0.323767 0.042692 0.548325
v -0.265151 0.018407 0.548325
v -0.240865 -0.040209 0.548325
v -0.382385 0.018407 0.548325
v -0.406669 -0.040209 0.548325
v -0.440509 0.041091 0.352464
v -0.392587 -0.040210 0.293962
v -0.474394 0.017276 0.393828
v -0.406626 0.017275 0.311101
v -0.488432 -0.040210 0.410965
v -0.566275 0.040221 0.308475
v -0.566275 -0.040210 0.228043
v -0.566275 0.016661 0.365346
v -0.566275 0.016661 0.251606
v -0.566275 -0.040210 0.388907
v -0.295444 0.017841 0.415074
v -0.414250 -0.040210 0.470161
v -0.344653 0.041891 0.437891
v -0.275055 -0.040209 0.405620
v -0.393863 0.017841 0.460708
v -0.123343 0.042692 0.441852
v -0.064727 0.018407 0.441852
v -0.040441 -0.040209 0.441852
v -0.181961 0.018407 0.441852
v -0.206245 -0.040209 0.441852
v -0.313973 0.041091 0.160218
v -0.278742 -0.040210 0.093302
v -0.338884 0.017276 0.207533
v -0.289063 0.017275 0.112906
v -0.349204 -0.040210 0.227134
v -0.439739 0.040221 0.117948
v -0.439739 -0.040210 0.037516
v -0.439739 0.016661 0.174819
v -0.439739 0.016661 0.061079
v -0.439738 -0.040210 0.198380
v -0.127660 0.017841 0.281063
v -0.254782 -0.040210 0.312520
v -0.180313 0.041891 0.294092
v -0.105844 -0.040209 0.275665
v -0.232968 0.017841 0.307122
v -0.859727 -0.040210 0.592349
v -0.859727 -0.040210 0.774796
v -0.859727 0.051013 0.683573
v -0.859727 0.024291 0.748074
v -0.859727 0.024291 0.619073
v -0.788739 -0.040210 0.603141
v -0.790404 -0.040210 0.767826
v -0.788739 0.040221 0.683573
v -0.788739 0.016661 0.740444
v -0.788739 0.016661 0.626704
v -0.794056 0.024291 0.619073
v -0.794057 0.024291 0.748075
v -0.794057 0.051013 0.683573
v -0.794056 -0.040210 0.774797
v -0.794056 -0.040210 0.592349
v -0.636700 -0.040209 0.790504
v -0.807445 -0.040209 0.790504
v -0.722072 0.045162 0.790504
v -0.782436 0.020154 0.790504
v -0.661710 0.020154 0.790504
v -0.623647 -0.040209 0.790504
v -0.820497 -0.040209 0.790504
v -0.722072 0.058214 0.790504
v -0.791665 0.029383 0.790504
v -0.652481 0.029383 0.790504
v -0.623648 -0.040209 0.894934
v -0.820497 -0.040209 0.894934
v -0.722072 0.058214 0.894934
v -0.791665 0.029383 0.894934
v -0.652481 0.029383 0.894934
v -0.722072 0.042692 0.783085
v -0.663456 0.018407 0.783085
v -0.639170 -0.040209 0.783085
v -0.780690 0.018407 0.783085
v -0.804974 -0.040209 0.783086
v -0.790708 -0.034514 0.772482
v -0.681089 0.030473 0.627989
v -0.774876 0.030474 0.753161
v -0.662690 -0.041561 0.607551
v -0.725496 0.046325 0.677315
v -0.670449 0.017840 0.777850
v -0.794708 -0.040209 0.778574
v -0.721916 0.041889 0.778150
v -0.649125 -0.040209 0.777725
v -0.773385 0.017840 0.778450
v 0.157214 0.017841 -0.009283
v 0.284338 -0.040209 -0.040739
v 0.209869 0.041891 -0.022312
v 0.135400 -0.040210 -0.003885
v 0.262522 0.017841 -0.035341
v -0.049556 -0.040210 -0.155827
v -0.049556 0.016661 -0.293128
v -0.049556 0.016661 -0.179388
v -0.049556 -0.040210 -0.316691
v -0.049556 0.040221 -0.236259
v 0.040979 -0.040210 -0.108171
v 0.101119 0.017275 -0.222400
v 0.051299 0.017276 -0.127773
v 0.111440 -0.040210 -0.242003
v 0.076209 0.041091 -0.175087
v 0.183937 -0.040209 0.189026
v 0.208222 0.018407 0.189026
v 0.349742 -0.040209 0.189026
v 0.325455 0.018407 0.189026
v 0.266839 0.042692 0.189026
v 0.336430 0.029383 0.894934
v 0.197246 0.029383 0.894934
v 0.266839 0.058214 0.894934
v 0.168414 -0.040209 0.894934
v 0.365264 -0.040209 0.894934
v 0.336430 0.029383 0.790504
v 0.197246 0.029383 0.790504
v 0.266839 0.058214 0.790504
v 0.168415 -0.040209 0.790504
v 0.365264 -0.040209 0.790504
v 0.327202 0.020154 0.790504
v 0.206475 0.020154 0.790504
v 0.266839 0.045162 0.790504
v 0.181467 -0.040209 0.790504
v 0.352212 -0.040209 0.790504
v -0.791976 -0.040210 -0.327483
v -0.791976 -0.040210 -0.145035
v -0.791976 0.051013 -0.236259
v -0.791976 0.024291 -0.171757
v -0.791976 0.024291 -0.300758
v -0.786659 0.016661 -0.293128
v -0.786659 0.016661 -0.179388
v -0.786659 0.040221 -0.236259
v -0.786659 -0.040210 -0.155827
v -0.786659 -0.040210 -0.316691
v -0.857646 0.024291 -0.300759
v -0.857646 0.024291 -0.171757
v -0.857646 0.051013 -0.236259
v -0.857647 -0.040210 -0.145035
v -0.857647 -0.040210 -0.327483
v 0.093163 0.059430 -0.367661
v 0.367247 0.059430 -0.093577
v 0.552856 0.059430 -0.553126
v 0.337986 -0.032983 -0.064315
v 0.063902 -0.032983 -0.338399
vn 0.3827 0.9238 -0.0143
vn -0.3827 0.9238 -0.0143
vn 0.9237 0.3827 -0.0143
vn -0.9238 0.3827 -0.0143
vn -0.9238 0.3827 -0.0065
vn 0.3827 0.9238 -0.0065
vn 0.9238 0.3828 -0.0065
vn -0.3827 0.9238 -0.0065
vn -0.3827 0.9238 -0.0094
vn 0.9238 0.3828 -0.0094
vn -0.9238 0.3827 -0.0094
vn 0.3827 0.9238 -0.0094
vn -0.0000 0.3827 0.9239
vn -0.3308 0.8988 0.2877
vn 0.0000 0.3828 -0.9238
vn -0.7019 0.3316 0.6304
vn -0.0000 0.9239 0.3827
vn 0.0000 0.9239 -0.3828
vn 0.7146 0.3320 -0.6157
vn 0.3293 0.8987 -0.2896
vn 0.3946 0.3555 -0.8473
vn -0.4318 0.3524 0.8303
vn -0.1894 0.9101 0.3686
vn 0.1731 0.9115 -0.3731
vn -0.9017 0.3669 0.2289
vn -0.3867 0.9169 0.0989
vn 0.3853 0.9163 -0.1089
vn 0.8956 0.3656 -0.2535
vn 0.9238 0.3828 -0.0053
vn -0.3827 0.9238 -0.0053
vn 0.3827 0.9238 -0.0053
vn -0.9238 0.3827 -0.0053
vn -0.7764 0.3415 0.5297
vn 0.8155 0.3480 -0.4624
vn -0.3646 0.9075 0.2086
vn 0.3599 0.9063 -0.2216
vn 0.1917 0.9016 -0.3878
vn -0.1912 0.9016 0.3880
vn 0.4352 0.3367 -0.8350
vn -0.3582 0.3364 0.8709
vn -0.9258 0.3630 0.1052
vn 0.9066 0.3644 -0.2126
vn -0.3980 0.9155 0.0587
vn 0.3920 0.9158 -0.0875
vn 0.1372 0.9099 -0.3915
vn -0.1366 0.9099 0.3917
vn 0.3290 0.3522 -0.8762
vn -0.2683 0.3521 0.8967
vn 0.2806 0.9072 -0.3133
vn -0.2791 0.9071 0.3151
vn 0.6425 0.3485 -0.6824
vn -0.5938 0.3443 0.7272
vn -0.8732 0.3602 0.3284
vn 0.8686 0.3590 -0.3415
vn -0.3805 0.9140 0.1410
vn 0.3789 0.9130 -0.1513
vn 0.1263 0.9140 -0.3855
vn -0.1330 0.9138 0.3837
vn 0.3038 0.3603 -0.8820
vn -0.2862 0.3609 0.8876
vn 0.3130 0.8978 -0.3098
vn -0.3103 0.8976 0.3131
vn 0.6826 0.3309 -0.6516
vn -0.6412 0.3284 0.6935
vn 0.3658 0.8830 -0.2940
vn -0.3658 0.8830 -0.2941
vn 0.8830 0.3659 -0.2940
vn -0.8830 0.3658 -0.2941
vn -0.4502 0.1750 -0.8756
vn 0.5143 0.2020 -0.8335
vn -0.3682 0.8361 -0.4067
vn 0.3733 0.8526 -0.3658
vn -0.2603 0.9477 0.1846
vn 0.0058 0.3238 -0.9461
vn -0.8828 0.2732 0.3822
vn -0.2712 0.9523 0.1398
vn 0.9518 0.3004 -0.0614
vn -0.9479 0.3022 0.1007
vn -0.1178 0.9139 -0.3884
vn 0.4013 0.9151 0.0395
vn 0.9238 0.3828 -0.0038
vn -0.3827 0.9239 -0.0038
vn 0.3827 0.9238 -0.0038
vn -0.9238 0.3827 -0.0038
vn 0.0000 1.0000 0.0000
vn 0.0000 0.3019 0.9534
vn 0.9533 0.3019 0.0000
vn 0.0000 0.3445 0.9388
vn -0.9534 0.3019 0.0000
vn 0.0000 0.3019 -0.9534
vn 0.0000 0.3445 -0.9388
vn 0.9388 0.3445 0.0000
vn -0.9388 0.3445 0.0000
vn 0.9534 0.3019 0.0000
vn -1.0000 0.0000 0.0000
vn 1.0000 0.0000 0.0000
vn 0.4965 0.8680 0.0000
vn -0.4966 0.8680 0.0000
vn 0.0000 0.0000 -1.0000
vn 0.0000 0.0000 1.0000
vn 0.0000 0.8680 0.4965
vn 0.0000 0.8680 -0.4965
vn 0.8824 0.1801 0.4348
vn 0.8824 0.4348 -0.1801
vn 0.8824 0.1801 -0.4348
vn 0.8824 0.4348 0.1801
vn 0.0000 0.9239 -0.3827
vn -0.3827 0.9239 0.0000
vn -0.9239 0.3827 -0.0000
vn 0.9238 0.3828 0.0000
vn 0.3827 0.9239 0.0000
vn 0.8824 0.1801 -0.4347
vn 0.8775 0.1851 0.4423
vn -0.6454 0.4087 0.6454
usemtl Accent
s off
f 180//1 179//1 56//1 58//1
f 179//2 182//2 57//2 56//2
f 181//3 180//3 58//3 54//3
f 182//4 183//4 55//4 57//4
f 217//5 218//5 85//5 87//5
f 215//6 214//6 86//6 88//6
f 216//7 215//7 88//7 84//7
f 214//8 217//8 87//8 86//8
f 194//9 197//9 110//9 111//9
f 196//10 195//10 109//10 113//10
f 197//11 198//11 112//11 110//11
f 195//12 194//12 111//12 109//12
f 170//13 172//13 134//13 136//13
f 143//14 141//14 129//14 131//14
f 173//15 169//15 135//15 137//15
f 141//16 139//16 132//16 129//16
f 171//17 170//17 136//17 138//17
f 169//18 171//18 138//18 135//18
f 142//19 140//19 133//19 130//19
f 140//20 143//20 131//20 133//20
f 137//21 135//21 140//21 142//21
f 136//22 134//22 139//22 141//22
f 138//23 136//23 141//23 143//23
f 135//24 138//24 143//24 140//24
f 129//25 132//25 144//25 145//25
f 131//26 129//26 145//26 148//26
f 133//27 131//27 148//27 147//27
f 130//28 133//28 147//28 146//28
f 146//29 147//29 159//29 163//29
f 148//30 145//30 160//30 161//30
f 147//31 148//31 161//31 159//31
f 145//32 144//32 162//32 160//32
f 186//33 188//33 183//33 182//33
f 185//34 187//34 180//34 181//34
f 184//35 186//35 182//35 179//35
f 187//36 184//36 179//36 180//36
f 192//37 189//37 184//37 187//37
f 189//38 191//38 186//38 184//38
f 190//39 192//39 187//39 185//39
f 191//40 193//40 188//40 186//40
f 47//13 45//13 193//13 191//13
f 44//15 48//15 192//15 190//15
f 46//17 47//17 191//17 189//17
f 48//18 46//18 189//18 192//18
f 213//41 210//41 198//41 197//41
f 212//42 209//42 195//42 196//42
f 211//43 213//43 197//43 194//43
f 209//44 211//44 194//44 195//44
f 207//45 204//45 199//45 202//45
f 204//46 206//46 201//46 199//46
f 205//47 207//47 202//47 200//47
f 206//48 208//48 203//48 201//48
f 120//13 122//13 208//13 206//13
f 123//15 119//15 207//15 205//15
f 121//17 120//17 206//17 204//17
f 119//18 121//18 204//18 207//18
f 202//49 199//49 211//49 209//49
f 199//50 201//50 213//50 211//50
f 200//51 202//51 209//51 212//51
f 201//52 203//52 210//52 213//52
f 233//53 230//53 218//53 217//53
f 232//54 229//54 215//54 216//54
f 231//55 233//55 217//55 214//55
f 229//56 231//56 214//56 215//56
f 227//57 224//57 219//57 222//57
f 224//58 226//58 221//58 219//58
f 225//59 227//59 222//59 220//59
f 226//60 228//60 223//60 221//60
f 77//13 75//13 228//13 226//13
f 74//15 78//15 227//15 225//15
f 76//17 77//17 226//17 224//17
f 78//18 76//18 224//18 227//18
f 222//61 219//61 231//61 229//61
f 219//62 221//62 233//62 231//62
f 220//63 222//63 229//63 232//63
f 221//64 223//64 230//64 233//64
f 265//65 264//65 251//65 253//65
f 264//66 267//66 252//66 251//66
f 266//67 265//67 253//67 249//67
f 267//68 268//68 250//68 252//68
f 278//69 275//69 268//69 267//69
f 277//70 274//70 265//70 266//70
f 276//71 278//71 267//71 264//71
f 274//72 276//72 264//72 265//72
f 241//73 242//73 271//73 273//73
f 239//74 243//74 270//74 272//74
f 242//75 240//75 269//75 271//75
f 273//76 271//76 278//76 276//76
f 272//77 270//77 274//77 277//77
f 271//78 269//78 275//78 278//78
f 243//79 241//79 273//79 270//79
f 270//80 273//80 276//80 274//80
f 320//13 322//13 284//13 286//13
f 293//14 291//14 279//14 281//14
f 323//15 319//15 285//15 287//15
f 291//16 289//16 282//16 279//16
f 321//17 320//17 286//17 288//17
f 319//18 321//18 288//18 285//18
f 292//19 290//19 283//19 280//19
f 290//20 293//20 281//20 283//20
f 287//21 285//21 290//21 292//21
f 286//22 284//22 289//22 291//22
f 288//23 286//23 291//23 293//23
f 285//24 288//24 293//24 290//24
f 279//25 282//25 294//25 295//25
f 281//26 279//26 295//26 298//26
f 283//27 281//27 298//27 297//27
f 280//28 283//28 297//28 296//28
f 296//81 297//81 309//81 313//81
f 298//82 295//82 310//82 311//82
f 297//83 298//83 311//83 309//83
f 295//84 294//84 312//84 310//84
usemtl Black
f 332//85 333//85 26//85 25//85 24//85
usemtl Main
f 2//85 37//85 38//85 4//85
f 23//86 26//86 333//86 329//86
f 22//87 25//87 26//87 23//87
f 1//88 2//88 28//88 29//88
f 330//89 332//89 24//89 21//89
f 21//90 24//90 25//90 22//90
f 4//91 3//91 30//91 27//91
f 3//92 1//92 29//92 30//92
f 2//93 4//93 27//93 28//93
f 38//86 31//86 34//86 35//86
f 35//89 34//89 33//89 36//89
f 37//94 32//94 31//94 38//94
f 33//85 34//85 31//85 32//85
f 36//90 33//90 32//90 37//90
f 3//85 35//85 36//85 1//85
f 4//85 38//85 35//85 3//85
f 1//85 36//85 37//85 2//85
usemtl DarkGrey
f 9//85 13//85 14//85 10//85
f 6//95 11//95 12//95 8//95
f 7//96 9//96 10//96 5//96
f 11//85 15//85 16//85 12//85
f 19//85 22//85 23//85 20//85
f 15//97 19//97 20//97 16//97
f 13//98 17//98 18//98 14//98
f 17//85 331//85 330//85 21//85 18//85
f 8//99 12//99 9//99 7//99
f 5//100 10//100 11//100 6//100
f 16//101 20//101 17//101 13//101
f 12//85 16//85 13//85 9//85
f 10//85 14//85 15//85 11//85
f 14//102 18//102 19//102 15//102
f 18//85 21//85 22//85 19//85
f 52//103 45//103 47//103 50//103
f 51//104 46//104 48//104 49//104
f 49//105 48//105 44//105 53//105
f 50//106 47//106 46//106 51//106
f 40//13 52//13 50//13 42//13
f 43//15 49//15 53//15 39//15
f 41//107 51//107 49//107 43//107
f 42//17 50//17 51//17 41//17
f 55//99 60//99 62//99 57//99
f 58//99 63//99 59//99 54//99
f 56//99 61//99 63//99 58//99
f 57//99 62//99 61//99 56//99
f 62//108 67//108 66//108 61//108
f 60//109 65//109 67//109 62//109
f 63//110 68//110 64//110 59//110
f 61//111 66//111 68//111 63//111
f 90//109 95//109 97//109 92//109
f 71//18 81//18 79//18 73//18
f 80//106 77//106 76//106 81//106
f 86//99 91//99 93//99 88//99
f 79//105 78//105 74//105 83//105
f 82//103 75//103 77//103 80//103
f 81//104 76//104 78//104 79//104
f 85//99 90//99 92//99 87//99
f 70//13 82//13 80//13 72//13
f 73//15 79//15 83//15 69//15
f 91//111 96//111 98//111 93//111
f 92//108 97//108 96//108 91//108
f 93//110 98//110 94//110 89//110
f 72//17 80//17 81//17 71//17
f 87//99 92//99 91//99 86//99
f 88//99 93//99 89//99 84//99
f 125//17 117//17 116//17 126//17
f 109//99 104//99 108//99 113//99
f 110//99 105//99 106//99 111//99
f 104//110 99//110 103//110 108//110
f 106//111 101//111 99//111 104//111
f 105//108 100//108 101//108 106//108
f 107//109 102//109 100//109 105//109
f 111//99 106//99 104//99 109//99
f 112//99 107//99 105//99 110//99
f 124//15 118//15 114//15 128//15
f 126//18 116//18 118//18 124//18
f 127//13 115//13 117//13 125//13
f 117//106 120//106 121//106 116//106
f 116//104 121//104 119//104 118//104
f 118//112 119//112 123//112 114//112
f 115//103 122//103 120//103 117//103
f 166//104 171//104 169//104 168//104
f 155//108 150//108 151//108 156//108
f 162//99 157//99 155//99 160//99
f 177//13 165//13 167//13 175//13
f 160//99 155//99 156//99 161//99
f 159//99 154//99 158//99 163//99
f 175//17 167//17 166//17 176//17
f 174//15 168//15 164//15 178//15
f 154//110 149//110 153//110 158//110
f 156//111 151//111 149//111 154//111
f 165//103 172//103 170//103 167//103
f 168//105 169//105 173//105 164//105
f 161//99 156//99 154//99 159//99
f 157//109 152//109 150//109 155//109
f 167//106 170//106 171//106 166//106
f 176//107 166//107 168//107 174//107
f 247//113 240//113 242//113 245//113
f 246//104 241//104 243//104 244//104
f 244//105 243//105 239//105 248//105
f 245//106 242//106 241//106 246//106
f 235//13 247//13 245//13 237//13
f 238//15 244//15 248//15 234//15
f 236//18 246//18 244//18 238//18
f 237//17 245//17 246//17 236//17
f 250//99 255//99 257//99 252//99
f 253//99 258//99 254//99 249//99
f 251//99 256//99 258//99 253//99
f 252//99 257//99 256//99 251//99
f 257//108 262//108 261//108 256//108
f 255//109 260//109 262//109 257//109
f 258//110 263//110 259//110 254//110
f 256//111 261//111 263//111 258//111
f 316//104 321//104 319//104 318//104
f 305//108 300//108 301//108 306//108
f 312//99 307//99 305//99 310//99
f 327//13 315//13 317//13 325//13
f 310//99 305//99 306//99 311//99
f 309//99 304//99 308//99 313//99
f 325//17 317//17 316//17 326//17
f 324//15 318//15 314//15 328//15
f 304//110 299//110 303//110 308//110
f 306//111 301//111 299//111 304//111
f 315//103 322//103 320//103 317//103
f 318//105 319//105 323//105 314//105
f 311//99 306//99 304//99 309//99
f 307//109 302//109 300//109 305//109
f 317//106 320//106 321//106 316//106
f 326//107 316//107 318//107 324//107
f 329//85 330//85 331//85
f 329//114 333//114 332//114 330//114
f 20//85 23//85 329//85 331//85 17//85
